<?xml version="1.0" encoding="UTF-8"?> <svg xmlns="http://www.w3.org/2000/svg" width="119" height="41" viewBox="0 0 119 41" fill="none"> <path d="M15.955 14.678L13.075 16.748V15.29L16.063 13.13H17.521V26H15.955V14.678ZM20.9614 20.348H24.8134V21.752H20.9614V20.348ZM26.1824 25.64L31.2944 20.258C31.8824 19.634 32.3384 19.022 32.6624 18.422C32.9864 17.822 33.1484 17.192 33.1484 16.532C33.1484 15.812 32.9444 15.248 32.5364 14.84C32.1404 14.432 31.5764 14.228 30.8444 14.228C30.0884 14.228 29.4764 14.45 29.0084 14.894C28.5524 15.338 28.2584 16.07 28.1264 17.09H26.6684C26.7164 16.466 26.8424 15.902 27.0464 15.398C27.2624 14.882 27.5504 14.444 27.9104 14.084C28.2704 13.724 28.6964 13.448 29.1884 13.256C29.6804 13.064 30.2324 12.968 30.8444 12.968C31.4324 12.968 31.9664 13.052 32.4464 13.22C32.9264 13.388 33.3344 13.634 33.6704 13.958C34.0184 14.27 34.2824 14.648 34.4624 15.092C34.6424 15.536 34.7324 16.034 34.7324 16.586C34.7324 17.378 34.4984 18.164 34.0304 18.944C33.5624 19.712 32.9324 20.486 32.1404 21.266L28.5944 24.722H34.8044V26H26.1824V25.64ZM43.4634 18.062V26H42.2214V16.586H44.3274L47.0094 23.66L49.7634 16.586H51.8154V26H50.3394V18.062L47.2254 26H46.5414L43.4634 18.062ZM58.8197 26.162C58.1477 26.162 57.5357 26.048 56.9837 25.82C56.4317 25.592 55.9517 25.274 55.5437 24.866C55.1357 24.446 54.8177 23.942 54.5897 23.354C54.3737 22.766 54.2657 22.112 54.2657 21.392V21.248C54.2657 20.54 54.3737 19.892 54.5897 19.304C54.8057 18.704 55.1057 18.194 55.4897 17.774C55.8857 17.342 56.3537 17.012 56.8937 16.784C57.4337 16.544 58.0277 16.424 58.6757 16.424C59.2157 16.424 59.7377 16.514 60.2417 16.694C60.7577 16.862 61.2137 17.132 61.6097 17.504C62.0057 17.876 62.3177 18.362 62.5457 18.962C62.7857 19.55 62.9057 20.264 62.9057 21.104V21.59H55.8137C55.8497 22.67 56.1197 23.498 56.6237 24.074C57.1277 24.638 57.8657 24.92 58.8377 24.92C60.3137 24.92 61.1477 24.374 61.3397 23.282H62.8337C62.6657 24.23 62.2217 24.95 61.5017 25.442C60.7817 25.922 59.8877 26.162 58.8197 26.162ZM61.3757 20.384C61.3037 19.412 61.0277 18.716 60.5477 18.296C60.0797 17.876 59.4557 17.666 58.6757 17.666C57.9077 17.666 57.2777 17.912 56.7857 18.404C56.3057 18.884 55.9997 19.544 55.8677 20.384H61.3757ZM69.1041 26.162C68.4441 26.162 67.8321 26.054 67.2681 25.838C66.7161 25.61 66.2301 25.292 65.8101 24.884C65.4021 24.464 65.0781 23.96 64.8381 23.372C64.6101 22.784 64.4961 22.124 64.4961 21.392V21.248C64.4961 20.528 64.6161 19.874 64.8561 19.286C65.0961 18.686 65.4201 18.176 65.8281 17.756C66.2481 17.336 66.7341 17.012 67.2861 16.784C67.8381 16.544 68.4321 16.424 69.0681 16.424C69.5601 16.424 70.0341 16.484 70.4901 16.604C70.9581 16.724 71.3721 16.916 71.7321 17.18C72.1041 17.432 72.4161 17.768 72.6681 18.188C72.9201 18.608 73.0821 19.118 73.1541 19.718H71.6781C71.5581 18.974 71.2521 18.446 70.7601 18.134C70.2801 17.822 69.7161 17.666 69.0681 17.666C68.6361 17.666 68.2341 17.75 67.8621 17.918C67.5021 18.086 67.1841 18.326 66.9081 18.638C66.6441 18.938 66.4341 19.31 66.2781 19.754C66.1221 20.198 66.0441 20.696 66.0441 21.248V21.392C66.0441 22.556 66.3261 23.438 66.8901 24.038C67.4661 24.626 68.2101 24.92 69.1221 24.92C69.4581 24.92 69.7761 24.872 70.0761 24.776C70.3881 24.68 70.6641 24.536 70.9041 24.344C71.1561 24.152 71.3601 23.912 71.5161 23.624C71.6841 23.336 71.7861 23 71.8221 22.616H73.2081C73.1601 23.12 73.0221 23.594 72.7941 24.038C72.5781 24.47 72.2901 24.842 71.9301 25.154C71.5701 25.466 71.1501 25.712 70.6701 25.892C70.1901 26.072 69.6681 26.162 69.1041 26.162ZM78.4878 17.774C77.7798 17.774 77.2638 17.924 76.9398 18.224C76.6278 18.512 76.4718 18.932 76.4718 19.484V19.538C76.4718 20.054 76.6218 20.456 76.9218 20.744C77.2218 21.032 77.7438 21.176 78.4878 21.176H80.2518V17.774H78.4878ZM76.0038 26H74.2938L77.1558 22.058C76.8678 21.998 76.5918 21.908 76.3278 21.788C76.0638 21.668 75.8298 21.506 75.6258 21.302C75.4338 21.098 75.2778 20.852 75.1578 20.564C75.0378 20.276 74.9778 19.934 74.9778 19.538V19.484C74.9778 18.968 75.0738 18.53 75.2658 18.17C75.4578 17.798 75.7158 17.498 76.0398 17.27C76.3638 17.03 76.7418 16.856 77.1738 16.748C77.6178 16.64 78.0858 16.586 78.5778 16.586H81.7458V26H80.2518V22.31H78.6318L76.0038 26ZM92.4456 28.286L92.3376 26H84.7776V16.586H86.2716V24.74H90.7176V16.586H92.2116V24.74H93.6516V28.286H92.4456ZM103.618 16.586H105.112V26H103.618V16.586ZM95.5179 16.586H97.0119V19.88H98.6859C99.1779 19.88 99.6399 19.934 100.072 20.042C100.516 20.15 100.9 20.324 101.224 20.564C101.548 20.792 101.806 21.098 101.998 21.482C102.19 21.854 102.286 22.316 102.286 22.868V22.922C102.286 23.462 102.19 23.93 101.998 24.326C101.806 24.71 101.548 25.028 101.224 25.28C100.9 25.52 100.516 25.7 100.072 25.82C99.6399 25.94 99.1779 26 98.6859 26H95.5179V16.586ZM98.7759 24.812C99.4839 24.812 99.9939 24.662 100.306 24.362C100.63 24.05 100.792 23.57 100.792 22.922V22.868C100.792 22.292 100.642 21.848 100.342 21.536C100.042 21.212 99.5199 21.05 98.7759 21.05H97.0119V24.812H98.7759Z" fill="white"></path> <path d="M118.5 20.5C118.5 23.1187 116.961 25.6871 114.008 28.0919C111.06 30.4935 106.764 32.6785 101.41 34.523C90.7077 38.2103 75.8903 40.5 59.5 40.5C43.1097 40.5 28.2923 38.2103 17.59 34.523C12.2365 32.6785 7.93986 30.4935 4.99159 28.0919C2.0394 25.6871 0.5 23.1187 0.5 20.5C0.5 17.8813 2.0394 15.3129 4.99159 12.9081C7.93986 10.5065 12.2365 8.32154 17.59 6.47704C28.2923 2.7897 43.1097 0.5 59.5 0.5C75.8903 0.5 90.7077 2.7897 101.41 6.47704C106.764 8.32154 111.06 10.5065 114.008 12.9081C116.961 15.3129 118.5 17.8813 118.5 20.5Z" stroke="white"></path> </svg> 