<?xml version="1.0" encoding="UTF-8"?> <svg xmlns="http://www.w3.org/2000/svg" width="157" height="85" viewBox="0 0 157 85" fill="none"> <path d="M149.873 23.257C150.697 26.3263 149.564 29.8166 146.692 33.5311C143.823 37.2409 139.255 41.1262 133.321 44.9556C121.455 52.6124 104.19 60.0082 84.3374 65.3178C64.485 70.6274 45.828 72.8391 31.7168 72.1298C24.6594 71.775 18.7566 70.6904 14.414 68.9092C10.0659 67.1258 7.33615 64.6686 6.51222 61.5994C5.6883 58.5301 6.82148 55.0398 9.69364 51.3253C12.5622 47.6155 17.1309 43.7302 23.065 39.9008C34.9304 32.244 52.1958 24.8482 72.0482 19.5386C91.9006 14.229 110.558 12.0173 124.669 12.7266C131.726 13.0814 137.629 14.166 141.972 15.9472C146.32 17.7306 149.049 20.1878 149.873 23.257Z" stroke="#81F3AC" stroke-width="0.6"></path> <path d="M40.6981 19.0437H47.1493C48.1495 19.0437 49.0697 19.1337 49.9098 19.3137C50.75 19.4937 51.4801 19.8038 52.1002 20.2439C52.7203 20.6639 53.2004 21.234 53.5405 21.9542C53.8805 22.6543 54.0506 23.5345 54.0506 24.5947V24.7147C54.0506 25.6949 53.8105 26.595 53.3304 27.4152C52.8703 28.2153 52.0302 28.8254 50.81 29.2455C52.3703 29.6256 53.4705 30.2257 54.1106 31.0458C54.7707 31.866 55.1008 32.9762 55.1008 34.3764V34.4965C55.1008 35.5167 54.9307 36.4068 54.5907 37.167C54.2706 37.9071 53.8005 38.5272 53.1804 39.0273C52.5603 39.5074 51.8202 39.8774 50.96 40.1375C50.0998 40.3775 49.1297 40.4976 48.0495 40.4976H40.6981V19.0437ZM47.9895 38.4572C49.5497 38.4572 50.7 38.1271 51.4401 37.467C52.1802 36.7869 52.5503 35.7867 52.5503 34.4665V34.3464C52.5503 33.0262 52.1602 32.046 51.3801 31.4059C50.6199 30.7658 49.3697 30.4457 47.6294 30.4457H43.2486V38.4572H47.9895ZM47.1493 28.4054C48.7296 28.4054 49.8498 28.1053 50.5099 27.5052C51.17 26.9051 51.5001 25.9449 51.5001 24.6247V24.5046C51.5001 23.2844 51.14 22.4143 50.4199 21.8942C49.6998 21.3541 48.5896 21.084 47.0893 21.084H43.2486V28.4054H47.1493ZM69.1405 38.6072C70.3407 38.6072 71.4109 38.3972 72.3511 37.9771C73.3113 37.537 74.1214 36.9369 74.7815 36.1768C75.4416 35.3966 75.9517 34.4665 76.3118 33.3863C76.6719 32.3061 76.8519 31.1158 76.8519 29.8156V29.5756C76.8519 28.3754 76.6719 27.2451 76.3118 26.185C75.9717 25.1248 75.4717 24.2046 74.8115 23.4244C74.1514 22.6443 73.3413 22.0242 72.3811 21.5641C71.4209 21.104 70.3207 20.874 69.0805 20.874C67.8403 20.874 66.7301 21.094 65.7499 21.5341C64.7697 21.9542 63.9395 22.5543 63.2594 23.3344C62.5993 24.1146 62.0892 25.0447 61.7291 26.1249C61.3891 27.1851 61.2191 28.3553 61.2191 29.6356V29.8756C61.2191 31.1759 61.4191 32.3661 61.8192 33.4463C62.2392 34.5065 62.7993 35.4266 63.4995 36.2068C64.2196 36.9669 65.0598 37.557 66.0199 37.9771C66.9801 38.3972 68.0203 38.6072 69.1405 38.6072ZM69.1405 40.7676C67.5602 40.7676 66.1099 40.4876 64.7897 39.9275C63.4895 39.3473 62.3693 38.5672 61.4291 37.587C60.5089 36.6068 59.7888 35.4566 59.2687 34.1364C58.7686 32.8162 58.5186 31.4059 58.5186 29.9056V29.6656C58.5186 28.1453 58.7686 26.7251 59.2687 25.4048C59.7888 24.0646 60.5089 22.9044 61.4291 21.9242C62.3693 20.944 63.4795 20.1739 64.7597 19.6138C66.0599 19.0537 67.5002 18.7736 69.0805 18.7736C70.6608 18.7736 72.091 19.0537 73.3713 19.6138C74.6515 20.1739 75.7517 20.944 76.6719 21.9242C77.592 22.9044 78.3022 24.0546 78.8023 25.3748C79.3023 26.695 79.5524 28.1053 79.5524 29.6056V29.8456C79.5524 31.3659 79.3023 32.7862 78.8023 34.1064C78.3022 35.4266 77.592 36.5868 76.6719 37.587C75.7717 38.5672 74.6815 39.3473 73.4013 39.9275C72.121 40.4876 70.7008 40.7676 69.1405 40.7676ZM93.8423 38.6072C95.0425 38.6072 96.1127 38.3972 97.0528 37.9771C98.013 37.537 98.8232 36.9369 99.4833 36.1768C100.143 35.3966 100.654 34.4665 101.014 33.3863C101.374 32.3061 101.554 31.1158 101.554 29.8156V29.5756C101.554 28.3754 101.374 27.2451 101.014 26.185C100.674 25.1248 100.173 24.2046 99.5133 23.4244C98.8532 22.6443 98.043 22.0242 97.0828 21.5641C96.1227 21.104 95.0225 20.874 93.7822 20.874C92.542 20.874 91.4318 21.094 90.4516 21.5341C89.4715 21.9542 88.6413 22.5543 87.9612 23.3344C87.3011 24.1146 86.791 25.0447 86.4309 26.1249C86.0908 27.1851 85.9208 28.3553 85.9208 29.6356V29.8756C85.9208 31.1759 86.1209 32.3661 86.5209 33.4463C86.941 34.5065 87.5011 35.4266 88.2012 36.2068C88.9214 36.9669 89.7615 37.557 90.7217 37.9771C91.6819 38.3972 92.7221 38.6072 93.8423 38.6072ZM93.8423 40.7676C92.262 40.7676 90.8117 40.4876 89.4915 39.9275C88.1912 39.3473 87.071 38.5672 86.1309 37.587C85.2107 36.6068 84.4906 35.4566 83.9705 34.1364C83.4704 32.8162 83.2203 31.4059 83.2203 29.9056V29.6656C83.2203 28.1453 83.4704 26.7251 83.9705 25.4048C84.4906 24.0646 85.2107 22.9044 86.1309 21.9242C87.071 20.944 88.1812 20.1739 89.4615 19.6138C90.7617 19.0537 92.202 18.7736 93.7822 18.7736C95.3625 18.7736 96.7928 19.0537 98.073 19.6138C99.3533 20.1739 100.453 20.944 101.374 21.9242C102.294 22.9044 103.004 24.0546 103.504 25.3748C104.004 26.695 104.254 28.1053 104.254 29.6056V29.8456C104.254 31.3659 104.004 32.7862 103.504 34.1064C103.004 35.4266 102.294 36.5868 101.374 37.587C100.473 38.5672 99.3833 39.3473 98.103 39.9275C96.8228 40.4876 95.4025 40.7676 93.8423 40.7676ZM112.328 21.174H106.087V19.0437H121.18V21.174H114.939V40.4976H112.328V21.174ZM48.234 69.7676C46.6737 69.7676 45.2734 69.5176 44.0332 69.0175C42.813 68.4974 41.7628 67.7672 40.8826 66.8271C40.0225 65.8669 39.3623 64.7267 38.9023 63.4064C38.4422 62.0662 38.2121 60.5659 38.2121 58.9056V58.6656C38.2121 57.0853 38.4622 55.625 38.9623 54.2848C39.4624 52.9445 40.1625 51.7843 41.0627 50.8042C41.9628 49.824 43.023 49.0638 44.2432 48.5237C45.4835 47.9836 46.8337 47.7136 48.294 47.7136C49.4142 47.7136 50.4744 47.8636 51.4745 48.1637C52.4747 48.4637 53.3649 48.9038 54.145 49.4839C54.9252 50.064 55.5653 50.7942 56.0654 51.6743C56.5655 52.5545 56.8755 53.5747 56.9956 54.7349H54.4151C54.135 53.0946 53.5049 51.8643 52.5247 51.0442C51.5646 50.204 50.1643 49.784 48.324 49.784C47.2038 49.784 46.1836 49.994 45.2634 50.4141C44.3633 50.8342 43.5931 51.4243 42.953 52.1844C42.3129 52.9445 41.8128 53.8747 41.4527 54.9749C41.0927 56.0751 40.9126 57.2953 40.9126 58.6356V58.8756C40.9126 60.2359 41.0827 61.4661 41.4227 62.5663C41.7628 63.6465 42.2429 64.5667 42.863 65.3268C43.5031 66.0669 44.2732 66.637 45.1734 67.0371C46.0936 67.4372 47.1338 67.6372 48.294 67.6372C50.0543 67.6372 51.5046 67.2071 52.6448 66.347C53.785 65.4668 54.4951 64.1466 54.7751 62.3863H57.2056C56.8255 64.8667 55.8353 66.7171 54.2351 67.9373C52.6348 69.1575 50.6344 69.7676 48.234 69.7676ZM66.8535 48.0437H70.2741L77.5355 69.4976H74.955L72.8546 63.3164H64.003L61.9326 69.4976H59.4722L66.8535 48.0437ZM64.7231 61.2461H72.1645L68.4438 50.204L64.7231 61.2461ZM81.6626 48.0437H85.2933L91.9245 64.7567L98.3457 48.0437H101.946V69.4976H99.3358V51.4343L92.2245 69.4976H91.4144L84.0631 51.4343V69.4976H81.6626V48.0437ZM107.712 48.0437H113.803C114.824 48.0437 115.784 48.1637 116.684 48.4037C117.604 48.6238 118.404 48.9938 119.084 49.5139C119.764 50.014 120.305 50.6641 120.705 51.4643C121.105 52.2444 121.305 53.1946 121.305 54.3148V54.4348C121.305 55.575 121.105 56.5452 120.705 57.3453C120.305 58.1455 119.764 58.8056 119.084 59.3257C118.404 59.8258 117.604 60.1959 116.684 60.4359C115.784 60.6559 114.824 60.766 113.803 60.766H110.323V69.4976H107.712V48.0437ZM113.983 58.6956C115.524 58.6956 116.694 58.3355 117.494 57.6154C118.294 56.8753 118.694 55.8151 118.694 54.4348V54.3148C118.694 52.7945 118.274 51.7243 117.434 51.1042C116.594 50.4641 115.444 50.144 113.983 50.144H110.323V58.6956H113.983Z" fill="black"></path> <path d="M40.6981 19.0437V18.615H40.2695V19.0437H40.6981ZM52.1002 20.2439L51.8521 20.5935L51.8598 20.5988L52.1002 20.2439ZM53.5405 21.9542L53.1528 22.1372L53.1549 22.1415L53.5405 21.9542ZM53.3304 27.4152L52.9605 27.1986L52.9588 27.2015L53.3304 27.4152ZM50.81 29.2455L50.6704 28.8402L49.2883 29.316L50.7085 29.662L50.81 29.2455ZM54.1106 31.0458L53.7726 31.3096L53.7766 31.3146L54.1106 31.0458ZM54.5907 37.167L54.1994 36.9919L54.1972 36.9968L54.5907 37.167ZM53.1804 39.0273L53.4429 39.3663L53.4495 39.361L53.1804 39.0273ZM50.96 40.1375L51.0752 40.5505L51.084 40.5478L50.96 40.1375ZM40.6981 40.4976H40.2695V40.9262H40.6981V40.4976ZM51.4401 37.467L51.7254 37.7869L51.7301 37.7826L51.4401 37.467ZM51.3801 31.4059L51.1039 31.7338L51.1082 31.7373L51.3801 31.4059ZM43.2486 30.4457V30.0171H42.8199V30.4457H43.2486ZM43.2486 38.4572H42.8199V38.8858H43.2486V38.4572ZM50.5099 27.5052L50.2216 27.188L50.5099 27.5052ZM50.4199 21.8942L50.1627 22.2371L50.1689 22.2417L50.4199 21.8942ZM43.2486 21.084V20.6554H42.8199V21.084H43.2486ZM43.2486 28.4054H42.8199V28.834H43.2486V28.4054ZM40.6981 19.4723H47.1493V18.615H40.6981V19.4723ZM47.1493 19.4723C48.1241 19.4723 49.0137 19.5601 49.82 19.7328L49.9996 18.8946C49.1256 18.7073 48.1749 18.615 47.1493 18.615V19.4723ZM49.82 19.7328C50.6106 19.9022 51.2853 20.1912 51.8521 20.5934L52.3483 19.8943C51.6749 19.4164 50.8893 19.0852 49.9996 18.8946L49.82 19.7328ZM51.8598 20.5988C52.4123 20.973 52.8434 21.482 53.1529 22.1372L53.9281 21.7711C53.5574 20.9861 53.0284 20.3549 52.3406 19.889L51.8598 20.5988ZM53.1549 22.1415C53.4583 22.7661 53.6219 23.5771 53.6219 24.5947H54.4792C54.4792 23.4918 54.3028 22.5426 53.926 21.7669L53.1549 22.1415ZM53.6219 24.5947V24.7147H54.4792V24.5947H53.6219ZM53.6219 24.7147C53.6219 25.6212 53.4009 26.4463 52.9605 27.1986L53.7004 27.6317C54.2201 26.7438 54.4792 25.7685 54.4792 24.7147H53.6219ZM52.9588 27.2015C52.5677 27.8817 51.8315 28.4405 50.6704 28.8402L50.9495 29.6508C52.2289 29.2104 53.173 28.549 53.702 27.6288L52.9588 27.2015ZM50.7085 29.662C52.2232 30.031 53.2166 30.5971 53.7727 31.3096L54.4485 30.7821C53.7243 29.8543 52.5173 29.2202 50.9114 28.829L50.7085 29.662ZM53.7766 31.3146C54.3579 32.0367 54.6721 33.0416 54.6721 34.3764H55.5294C55.5294 32.9108 55.1835 31.6953 54.4445 30.7771L53.7766 31.3146ZM54.6721 34.3764V34.4965H55.5294V34.3764H54.6721ZM54.6721 34.4965C54.6721 35.4696 54.5099 36.2978 54.1994 36.9919L54.9819 37.342C55.3515 36.5159 55.5294 35.5637 55.5294 34.4965H54.6721ZM54.1972 36.9968C53.9044 37.674 53.4767 38.2377 52.9113 38.6936L53.4495 39.361C54.1244 38.8167 54.6368 38.1402 54.9841 37.3371L54.1972 36.9968ZM52.918 38.6883C52.3448 39.1321 51.6532 39.4801 50.836 39.7272L51.084 40.5478C51.9871 40.2748 52.7757 39.8827 53.4428 39.3662L52.918 38.6883ZM50.8448 39.7246C50.029 39.9523 49.0986 40.0689 48.0495 40.0689V40.9262C49.1608 40.9262 50.1707 40.8028 51.0752 40.5504L50.8448 39.7246ZM48.0495 40.0689H40.6981V40.9262H48.0495V40.0689ZM41.1268 40.4976V19.0437H40.2695V40.4976H41.1268ZM47.9895 38.8858C49.5975 38.8858 50.8724 38.5477 51.7254 37.7869L51.1548 37.1471C50.5275 37.7066 49.502 38.0285 47.9895 38.0285V38.8858ZM51.7301 37.7826C52.584 36.9979 52.9789 35.8671 52.9789 34.4665H52.1216C52.1216 35.7063 51.7764 36.5758 51.1501 37.1514L51.7301 37.7826ZM52.9789 34.4665V34.3464H52.1216V34.4665H52.9789ZM52.9789 34.3464C52.9789 32.9404 52.5601 31.8197 51.652 31.0745L51.1082 31.7373C51.7603 32.2724 52.1216 33.112 52.1216 34.3464H52.9789ZM51.6562 31.078C50.7789 30.3393 49.4022 30.0171 47.6294 30.0171V30.8744C49.3372 30.8744 50.461 31.1923 51.104 31.7338L51.6562 31.078ZM47.6294 30.0171H43.2486V30.8744H47.6294V30.0171ZM42.8199 30.4457V38.4572H43.6772V30.4457H42.8199ZM43.2486 38.8858H47.9895V38.0285H43.2486V38.8858ZM47.1493 28.834C48.7616 28.834 50.0175 28.5322 50.7983 27.8224L50.2216 27.188C49.6821 27.6784 48.6976 27.9767 47.1493 27.9767V28.834ZM50.7983 27.8224C51.5834 27.1086 51.9287 26.0072 51.9287 24.6247H51.0714C51.0714 25.8826 50.7567 26.7015 50.2216 27.188L50.7983 27.8224ZM51.9287 24.6247V24.5046H51.0714V24.6247H51.9287ZM51.9287 24.5046C51.9287 23.2023 51.5411 22.1751 50.6709 21.5467L50.1689 22.2417C50.739 22.6534 51.0714 23.3665 51.0714 24.5046H51.9287ZM50.6771 21.5513C49.8477 20.9292 48.626 20.6554 47.0893 20.6554V21.5127C48.5531 21.5127 49.5518 21.7789 50.1627 22.2371L50.6771 21.5513ZM47.0893 20.6554H43.2486V21.5127H47.0893V20.6554ZM42.8199 21.084V28.4054H43.6772V21.084H42.8199ZM43.2486 28.834H47.1493V27.9767H43.2486V28.834ZM72.3511 37.9771L72.526 38.3685L72.5297 38.3668L72.3511 37.9771ZM74.7815 36.1768L75.1052 36.4579L75.1087 36.4537L74.7815 36.1768ZM76.3118 33.3863L75.9052 33.2507L76.3118 33.3863ZM76.3118 26.185L75.9036 26.3159L75.9059 26.3228L76.3118 26.185ZM74.8115 23.4244L74.4843 23.7013V23.7013L74.8115 23.4244ZM72.3811 21.5641L72.1959 21.9507L72.3811 21.5641ZM65.7499 21.5341L65.9188 21.9282L65.9254 21.9251L65.7499 21.5341ZM63.2594 23.3344L62.9363 23.0527L62.9322 23.0575L63.2594 23.3344ZM61.7291 26.1249L61.3225 25.9894L61.321 25.994L61.7291 26.1249ZM61.8192 33.4463L61.4171 33.5952L61.4207 33.6042L61.8192 33.4463ZM63.4995 36.2068L63.1803 36.4932L63.1883 36.5016L63.4995 36.2068ZM66.0199 37.9771L66.1917 37.5844L66.0199 37.9771ZM64.7897 39.9275L64.615 40.319L64.6223 40.3221L64.7897 39.9275ZM61.4291 37.587L61.1166 37.8804L61.1197 37.8838L61.4291 37.587ZM59.2687 34.1364L58.8678 34.2883L58.8699 34.2935L59.2687 34.1364ZM59.2687 25.4048L58.8691 25.2497L58.8678 25.253L59.2687 25.4048ZM61.4291 21.9242L61.1197 21.6274L61.1166 21.6308L61.4291 21.9242ZM64.7597 19.6138L64.5901 19.2201L64.5879 19.221L64.7597 19.6138ZM73.3713 19.6138L73.5431 19.221V19.221L73.3713 19.6138ZM76.6719 21.9242L76.3594 22.2176V22.2176L76.6719 21.9242ZM78.8023 25.3748L79.2031 25.223L78.8023 25.3748ZM78.8023 34.1064L79.2031 34.2582L78.8023 34.1064ZM76.6719 37.587L76.3564 37.2968L76.3562 37.2971L76.6719 37.587ZM73.4013 39.9275L73.5731 40.3202L73.5782 40.3179L73.4013 39.9275ZM69.1405 39.0359C70.3911 39.0359 71.5224 38.8169 72.5259 38.3685L72.1762 37.5857C71.2994 37.9775 70.2903 38.1786 69.1405 38.1786V39.0359ZM72.5297 38.3668C73.5426 37.9025 74.403 37.2664 75.1052 36.4578L74.4579 35.8957C73.8398 36.6075 73.0799 37.1715 72.1725 37.5874L72.5297 38.3668ZM75.1087 36.4537C75.8079 35.6274 76.3431 34.6478 76.7185 33.5218L75.9052 33.2507C75.5604 34.2851 75.0754 35.1659 74.4543 35.8999L75.1087 36.4537ZM76.7185 33.5218C77.095 32.3922 77.2806 31.1555 77.2806 29.8156H76.4233C76.4233 31.0762 76.2487 32.2199 75.9052 33.2507L76.7185 33.5218ZM77.2806 29.8156V29.5756H76.4233V29.8156H77.2806ZM77.2806 29.5756C77.2806 28.3318 77.0939 27.1548 76.7177 26.0471L75.9059 26.3228C76.2499 27.3355 76.4233 28.4189 76.4233 29.5756H77.2806ZM76.72 26.054C76.3643 24.9452 75.8383 23.9743 75.1388 23.1476L74.4843 23.7013C75.105 24.4349 75.5792 25.3043 75.9036 26.3159L76.72 26.054ZM75.1388 23.1476C74.4379 22.3193 73.5787 21.6626 72.5663 21.1775L72.1959 21.9507C73.1038 22.3857 73.8649 22.9693 74.4843 23.7013L75.1388 23.1476ZM72.5663 21.1775C71.5395 20.6855 70.3743 20.4453 69.0805 20.4453V21.3026C70.2671 21.3026 71.3023 21.5225 72.1959 21.9507L72.5663 21.1775ZM69.0805 20.4453C67.789 20.4453 66.6176 20.6746 65.5743 21.1431L65.9254 21.9251C66.8425 21.5134 67.8915 21.3026 69.0805 21.3026V20.4453ZM65.581 21.1401C64.5435 21.5848 63.6601 22.2226 62.9363 23.0528L63.5825 23.6161C64.219 22.886 64.9959 22.3236 65.9187 21.9281L65.581 21.1401ZM62.9322 23.0575C62.2331 23.8838 61.6978 24.8634 61.3225 25.9894L62.1358 26.2605C62.4806 25.2261 62.9656 24.3453 63.5867 23.6113L62.9322 23.0575ZM61.321 25.994C60.9655 27.1023 60.7904 28.3174 60.7904 29.6356H61.6477C61.6477 28.3933 61.8127 27.2679 62.1373 26.2559L61.321 25.994ZM60.7904 29.6356V29.8756H61.6477V29.6356H60.7904ZM60.7904 29.8756C60.7904 31.2202 60.9974 32.4616 61.4172 33.5951L62.2211 33.2974C61.8408 32.2706 61.6477 31.1315 61.6477 29.8756H60.7904ZM61.4207 33.6042C61.8578 34.7074 62.4436 35.672 63.1805 36.4931L63.8185 35.9205C63.1551 35.1813 62.6207 34.3056 62.2177 33.2884L61.4207 33.6042ZM63.1883 36.5016C63.9479 37.3034 64.8355 37.9268 65.8481 38.3698L66.1917 37.5844C65.2841 37.1873 64.4913 36.6304 63.8106 35.912L63.1883 36.5016ZM65.8481 38.3698C66.8661 38.8152 67.9653 39.0359 69.1405 39.0359V38.1786C68.0753 38.1786 67.0941 37.9792 66.1917 37.5844L65.8481 38.3698ZM69.1405 40.339C67.6118 40.339 66.2192 40.0683 64.9571 39.5328L64.6223 40.3221C66.0007 40.9068 67.5086 41.1963 69.1405 41.1963V40.339ZM64.9644 39.536C63.7122 38.9774 62.6384 38.2286 61.7384 37.2903L61.1197 37.8838C62.1001 38.9058 63.2667 39.7173 64.6151 40.3189L64.9644 39.536ZM61.7416 37.2936C60.8606 36.3552 60.1688 35.2519 59.6675 33.9793L58.8699 34.2935C59.4087 35.6614 60.1572 36.8585 61.1166 37.8804L61.7416 37.2936ZM59.6696 33.9846C59.189 32.7158 58.9472 31.3573 58.9472 29.9056H58.0899C58.0899 31.4545 58.3482 32.9165 58.8678 34.2882L59.6696 33.9846ZM58.9472 29.9056V29.6656H58.0899V29.9056H58.9472ZM58.9472 29.6656C58.9472 28.1932 59.1892 26.8248 59.6696 25.5566L58.8678 25.253C58.348 26.6253 58.0899 28.0974 58.0899 29.6656H58.9472ZM59.6683 25.5599C60.1699 24.2673 60.8616 23.1549 61.7416 22.2176L61.1166 21.6308C60.1562 22.6538 59.4077 23.8618 58.8691 25.2497L59.6683 25.5599ZM61.7384 22.2209C62.6384 21.2826 63.7015 20.5446 64.9315 20.0065L64.5879 19.221C63.2575 19.8031 62.1001 20.6053 61.1197 21.6275L61.7384 22.2209ZM64.9293 20.0074C66.1701 19.4729 67.5517 19.2023 69.0805 19.2023V18.345C67.4487 18.345 65.9498 18.6344 64.5901 19.2201L64.9293 20.0074ZM69.0805 19.2023C70.6094 19.2023 71.9801 19.473 73.1995 20.0065L73.5431 19.221C72.202 18.6343 70.7122 18.345 69.0805 18.345V19.2023ZM73.1995 20.0065C74.4287 20.5443 75.4804 21.2813 76.3594 22.2176L76.9844 21.6308C76.023 20.6067 74.8743 19.8035 73.5431 19.221L73.1995 20.0065ZM76.3594 22.2176C77.2392 23.1548 77.9202 24.2562 78.4014 25.5266L79.2031 25.223C78.6841 23.8529 77.9449 22.6539 76.9844 21.6308L76.3594 22.2176ZM78.4014 25.5266C78.882 26.7954 79.1237 28.1539 79.1237 29.6056H79.981C79.981 28.0567 79.7227 26.5947 79.2031 25.223L78.4014 25.5266ZM79.1237 29.6056V29.8456H79.981V29.6056H79.1237ZM79.1237 29.8456C79.1237 31.318 78.8817 32.6864 78.4014 33.9546L79.2031 34.2582C79.7229 32.8859 79.981 31.4138 79.981 29.8456H79.1237ZM78.4014 33.9546C77.9199 35.2257 77.2381 36.3384 76.3564 37.2968L76.9873 37.8772C77.946 36.8353 78.6844 35.6276 79.2031 34.2582L78.4014 33.9546ZM76.3562 37.2971C75.4972 38.2324 74.455 38.9794 73.2244 39.537L73.5782 40.3179C74.908 39.7153 76.0462 38.902 76.9876 37.877L76.3562 37.2971ZM73.2295 39.5347C72.0094 40.0685 70.6486 40.339 69.1405 40.339V41.1963C70.753 41.1963 72.2327 40.9066 73.5731 40.3202L73.2295 39.5347ZM97.0528 37.9771L97.2277 38.3685L97.2314 38.3668L97.0528 37.9771ZM99.4833 36.1768L99.807 36.4579L99.8105 36.4537L99.4833 36.1768ZM101.014 33.3863L100.607 33.2507L101.014 33.3863ZM101.014 26.185L100.605 26.3159L100.608 26.3228L101.014 26.185ZM99.5133 23.4244L99.1861 23.7013V23.7013L99.5133 23.4244ZM97.0828 21.5641L96.8976 21.9507L97.0828 21.5641ZM90.4516 21.5341L90.6205 21.9282L90.6272 21.9251L90.4516 21.5341ZM87.9612 23.3344L87.6381 23.0527L87.634 23.0575L87.9612 23.3344ZM86.4309 26.1249L86.0242 25.9894L86.0227 25.994L86.4309 26.1249ZM86.5209 33.4463L86.1189 33.5952L86.1224 33.6042L86.5209 33.4463ZM88.2012 36.2068L87.8821 36.4932L87.8901 36.5016L88.2012 36.2068ZM90.7217 37.9771L90.8935 37.5844L90.7217 37.9771ZM89.4915 39.9275L89.3168 40.319L89.3241 40.3221L89.4915 39.9275ZM86.1309 37.587L85.8183 37.8804L85.8215 37.8838L86.1309 37.587ZM83.9705 34.1364L83.5696 34.2883L83.5716 34.2935L83.9705 34.1364ZM83.9705 25.4048L83.5708 25.2497L83.5696 25.253L83.9705 25.4048ZM86.1309 21.9242L85.8215 21.6274L85.8183 21.6308L86.1309 21.9242ZM89.4615 19.6138L89.2919 19.2201L89.2896 19.221L89.4615 19.6138ZM98.073 19.6138L98.2448 19.221V19.221L98.073 19.6138ZM101.374 21.9242L101.061 22.2176V22.2176L101.374 21.9242ZM103.504 25.3748L103.905 25.223L103.504 25.3748ZM103.504 34.1064L103.905 34.2582L103.504 34.1064ZM101.374 37.587L101.058 37.2968L101.058 37.2971L101.374 37.587ZM98.103 39.9275L98.2749 40.3202L98.28 40.3179L98.103 39.9275ZM93.8423 39.0359C95.0928 39.0359 96.2242 38.8169 97.2277 38.3685L96.878 37.5857C96.0012 37.9775 94.9921 38.1786 93.8423 38.1786V39.0359ZM97.2314 38.3668C98.2444 37.9025 99.1048 37.2664 99.8069 36.4578L99.1596 35.8957C98.5415 36.6075 97.7817 37.1715 96.8742 37.5874L97.2314 38.3668ZM99.8105 36.4537C100.51 35.6274 101.045 34.6478 101.42 33.5218L100.607 33.2507C100.262 34.2851 99.7772 35.1659 99.1561 35.8999L99.8105 36.4537ZM101.42 33.5218C101.797 32.3922 101.982 31.1555 101.982 29.8156H101.125C101.125 31.0762 100.951 32.2199 100.607 33.2507L101.42 33.5218ZM101.982 29.8156V29.5756H101.125V29.8156H101.982ZM101.982 29.5756C101.982 28.3318 101.796 27.1548 101.419 26.0471L100.608 26.3228C100.952 27.3355 101.125 28.4189 101.125 29.5756H101.982ZM101.422 26.054C101.066 24.9452 100.54 23.9743 99.8405 23.1476L99.1861 23.7013C99.8068 24.4349 100.281 25.3043 100.605 26.3159L101.422 26.054ZM99.8405 23.1476C99.1397 22.3193 98.2805 21.6626 97.2681 21.1775L96.8976 21.9507C97.8056 22.3857 98.5667 22.9693 99.1861 23.7013L99.8405 23.1476ZM97.2681 21.1775C96.2413 20.6855 95.0761 20.4453 93.7822 20.4453V21.3026C94.9689 21.3026 96.0041 21.5225 96.8976 21.9507L97.2681 21.1775ZM93.7822 20.4453C92.4908 20.4453 91.3193 20.6746 90.2761 21.1431L90.6272 21.9251C91.5443 21.5134 92.5933 21.3026 93.7822 21.3026V20.4453ZM90.2828 21.1401C89.2453 21.5848 88.3618 22.2226 87.6381 23.0528L88.2843 23.6161C88.9208 22.886 89.6977 22.3236 90.6205 21.9281L90.2828 21.1401ZM87.634 23.0575C86.9348 23.8838 86.3996 24.8634 86.0243 25.9894L86.8376 26.2605C87.1824 25.2261 87.6673 24.3453 88.2884 23.6113L87.634 23.0575ZM86.0227 25.994C85.6672 27.1023 85.4922 28.3174 85.4922 29.6356H86.3495C86.3495 28.3933 86.5144 27.2679 86.8391 26.2559L86.0227 25.994ZM85.4922 29.6356V29.8756H86.3495V29.6356H85.4922ZM85.4922 29.8756C85.4922 31.2202 85.6991 32.4616 86.119 33.5951L86.9229 33.2974C86.5426 32.2706 86.3495 31.1315 86.3495 29.8756H85.4922ZM86.1224 33.6042C86.5595 34.7074 87.1453 35.672 87.8822 36.4931L88.5203 35.9205C87.8569 35.1813 87.3225 34.3056 86.9194 33.2884L86.1224 33.6042ZM87.8901 36.5016C88.6497 37.3034 89.5372 37.9268 90.5499 38.3698L90.8935 37.5844C89.9858 37.1873 89.1931 36.6304 88.5124 35.912L87.8901 36.5016ZM90.5499 38.3698C91.5679 38.8152 92.6671 39.0359 93.8423 39.0359V38.1786C92.7771 38.1786 91.7958 37.9792 90.8935 37.5844L90.5499 38.3698ZM93.8423 40.339C92.3136 40.339 90.921 40.0683 89.6589 39.5328L89.3241 40.3221C90.7024 40.9068 92.2103 41.1963 93.8423 41.1963V40.339ZM89.6661 39.536C88.414 38.9774 87.3402 38.2286 86.4402 37.2903L85.8215 37.8838C86.8019 38.9058 87.9685 39.7173 89.3168 40.3189L89.6661 39.536ZM86.4434 37.2936C85.5624 36.3552 84.8706 35.2519 84.3693 33.9793L83.5716 34.2935C84.1105 35.6614 84.859 36.8585 85.8183 37.8804L86.4434 37.2936ZM84.3713 33.9846C83.8907 32.7158 83.649 31.3573 83.649 29.9056H82.7917C82.7917 31.4545 83.05 32.9165 83.5696 34.2882L84.3713 33.9846ZM83.649 29.9056V29.6656H82.7917V29.9056H83.649ZM83.649 29.6656C83.649 28.1932 83.891 26.8248 84.3713 25.5566L83.5696 25.253C83.0498 26.6253 82.7917 28.0974 82.7917 29.6656H83.649ZM84.3701 25.5599C84.8717 24.2673 85.5634 23.1549 86.4434 22.2176L85.8183 21.6308C84.858 22.6538 84.1094 23.8618 83.5708 25.2497L84.3701 25.5599ZM86.4402 22.2209C87.3402 21.2826 88.4032 20.5446 89.6333 20.0065L89.2896 19.221C87.9592 19.8031 86.8019 20.6053 85.8215 21.6275L86.4402 22.2209ZM89.631 20.0074C90.8718 19.4729 92.2535 19.2023 93.7822 19.2023V18.345C92.1504 18.345 90.6516 18.6344 89.2919 19.2201L89.631 20.0074ZM93.7822 19.2023C95.3111 19.2023 96.6818 19.473 97.9012 20.0065L98.2448 19.221C96.9038 18.6343 95.4139 18.345 93.7822 18.345V19.2023ZM97.9012 20.0065C99.1305 20.5443 100.182 21.2813 101.061 22.2176L101.686 21.6308C100.725 20.6067 99.5761 19.8035 98.2448 19.221L97.9012 20.0065ZM101.061 22.2176C101.941 23.1548 102.622 24.2562 103.103 25.5266L103.905 25.223C103.386 23.8529 102.647 22.6539 101.686 21.6308L101.061 22.2176ZM103.103 25.5266C103.584 26.7954 103.826 28.1539 103.826 29.6056H104.683C104.683 28.0567 104.424 26.5947 103.905 25.223L103.103 25.5266ZM103.826 29.6056V29.8456H104.683V29.6056H103.826ZM103.826 29.8456C103.826 31.318 103.584 32.6864 103.103 33.9546L103.905 34.2582C104.425 32.8859 104.683 31.4138 104.683 29.8456H103.826ZM103.103 33.9546C102.622 35.2257 101.94 36.3384 101.058 37.2968L101.689 37.8772C102.648 36.8353 103.386 35.6276 103.905 34.2582L103.103 33.9546ZM101.058 37.2971C100.199 38.2324 99.1568 38.9794 97.9261 39.537L98.28 40.3179C99.6097 39.7153 100.748 38.902 101.689 37.877L101.058 37.2971ZM97.9312 39.5347C96.7112 40.0685 95.3503 40.339 93.8423 40.339V41.1963C95.4548 41.1963 96.9344 40.9066 98.2748 40.3202L97.9312 39.5347ZM112.328 21.174H112.757V20.7454H112.328V21.174ZM106.087 21.174H105.658V21.6027H106.087V21.174ZM106.087 19.0437V18.615H105.658V19.0437H106.087ZM121.18 19.0437H121.608V18.615H121.18V19.0437ZM121.18 21.174V21.6027H121.608V21.174H121.18ZM114.939 21.174V20.7454H114.51V21.174H114.939ZM114.939 40.4976V40.9262H115.367V40.4976H114.939ZM112.328 40.4976H111.9V40.9262H112.328V40.4976ZM112.328 20.7454H106.087V21.6027H112.328V20.7454ZM106.516 21.174V19.0437H105.658V21.174H106.516ZM106.087 19.4723H121.18V18.615H106.087V19.4723ZM120.751 19.0437V21.174H121.608V19.0437H120.751ZM121.18 20.7454H114.939V21.6027H121.18V20.7454ZM114.51 21.174V40.4976H115.367V21.174H114.51ZM114.939 40.0689H112.328V40.9262H114.939V40.0689ZM112.757 40.4976V21.174H111.9V40.4976H112.757ZM44.0332 69.0175L43.8651 69.4119L43.8729 69.415L44.0332 69.0175ZM40.8826 66.8271L40.5633 67.1132L40.5697 67.12L40.8826 66.8271ZM38.9023 63.4064L38.4968 63.5456L38.4975 63.5475L38.9023 63.4064ZM38.9623 54.2848L38.5607 54.1349V54.1349L38.9623 54.2848ZM41.0627 50.8042L40.7469 50.5142L41.0627 50.8042ZM44.2432 48.5237L44.0721 48.1307L44.0697 48.1318L44.2432 48.5237ZM54.145 49.4839L54.4008 49.1399L54.145 49.4839ZM56.0654 51.6743L55.6927 51.8861V51.8861L56.0654 51.6743ZM56.9956 54.7349V55.1635H57.4708L57.4219 54.6908L56.9956 54.7349ZM54.4151 54.7349L53.9925 54.807L54.0534 55.1635H54.4151V54.7349ZM52.5247 51.0442L52.2424 51.3669L52.2497 51.3729L52.5247 51.0442ZM45.2634 50.4141L45.0854 50.0241L45.0821 50.0256L45.2634 50.4141ZM41.4527 54.9749L41.8601 55.1082L41.4527 54.9749ZM41.4227 62.5663L41.0132 62.6929L41.0138 62.695L41.4227 62.5663ZM42.863 65.3268L42.5307 65.5979L42.5388 65.6072L42.863 65.3268ZM45.1734 67.0371L44.9993 67.4288L45.0025 67.4302L45.1734 67.0371ZM52.6448 66.347L52.9029 66.6892L52.9067 66.6863L52.6448 66.347ZM54.7751 62.3863V61.9576H54.4093L54.3518 62.3189L54.7751 62.3863ZM57.2056 62.3863L57.6293 62.4512L57.7049 61.9576H57.2056V62.3863ZM54.2351 67.9373L54.495 68.2781L54.2351 67.9373ZM48.234 69.339C46.7196 69.339 45.375 69.0963 44.1935 68.6199L43.8729 69.415C45.1718 69.9388 46.6278 70.1963 48.234 70.1963V69.339ZM44.2013 68.6231C43.0342 68.1257 42.0338 67.4295 41.1955 66.5341L40.5697 67.12C41.4918 68.105 42.5918 68.8691 43.8651 69.4118L44.2013 68.6231ZM41.2019 66.5411C40.3826 65.6265 39.7501 64.5367 39.307 63.2654L38.4975 63.5475C38.9746 64.9167 39.6623 66.1073 40.5633 67.1131L41.2019 66.5411ZM39.3077 63.2673C38.8654 61.9788 38.6408 60.5265 38.6408 58.9056H37.7835C37.7835 60.6053 38.019 62.1536 38.4968 63.5456L39.3077 63.2673ZM38.6408 58.9056V58.6656H37.7835V58.9056H38.6408ZM38.6408 58.6656C38.6408 57.1311 38.8834 55.7222 39.3639 54.4346L38.5607 54.1349C38.0409 55.5279 37.7835 57.0395 37.7835 58.6656H38.6408ZM39.3639 54.4346C39.8461 53.1423 40.5183 52.0306 41.3784 51.0941L40.7469 50.5142C39.8067 51.5381 39.0786 52.7468 38.5607 54.1349L39.3639 54.4346ZM41.3784 51.0941C42.2385 50.1575 43.2503 49.432 44.4167 48.9157L44.0697 48.1318C42.7957 48.6957 41.6871 49.4905 40.7469 50.5142L41.3784 51.0941ZM44.4144 48.9167C45.5964 48.402 46.8879 48.1422 48.294 48.1422V47.2849C46.7795 47.2849 45.3705 47.5653 44.0721 48.1307L44.4144 48.9167ZM48.294 48.1422C49.3755 48.1422 50.394 48.287 51.3514 48.5742L51.5977 47.7531C50.5548 47.4402 49.4529 47.2849 48.294 47.2849V48.1422ZM51.3514 48.5742C52.3074 48.861 53.152 49.2797 53.8893 49.8279L54.4008 49.1399C53.5778 48.528 52.6421 48.0664 51.5977 47.7531L51.3514 48.5742ZM53.8893 49.8279C54.6197 50.371 55.2207 51.0554 55.6927 51.8861L56.4381 51.4626C55.9098 50.5329 55.2306 49.757 54.4008 49.1399L53.8893 49.8279ZM55.6927 51.8861C56.1594 52.7074 56.4543 53.6688 56.5692 54.779L57.4219 54.6908C57.2967 53.4805 56.9716 52.4016 56.4381 51.4626L55.6927 51.8861ZM56.9956 54.3062H54.4151V55.1635H56.9956V54.3062ZM54.8376 54.6627C54.5457 52.9529 53.8791 51.6185 52.7998 50.7155L52.2497 51.3729C53.1307 52.1102 53.7244 53.2362 53.9925 54.807L54.8376 54.6627ZM52.807 50.7216C51.7403 49.7882 50.2229 49.3553 48.324 49.3553V50.2126C50.1057 50.2126 51.3888 50.6198 52.2425 51.3668L52.807 50.7216ZM48.324 49.3553C47.149 49.3553 46.0672 49.5759 45.0854 50.0241L45.4414 50.804C46.3 50.4121 47.2585 50.2126 48.324 50.2126V49.3553ZM45.0821 50.0256C44.1255 50.4721 43.3053 51.1005 42.6251 51.9083L43.2809 52.4605C43.8809 51.748 44.601 51.1962 45.4447 50.8025L45.0821 50.0256ZM42.6251 51.9083C41.9443 52.7168 41.4197 53.6976 41.0453 54.8416L41.8601 55.1082C42.2059 54.0518 42.6815 53.1723 43.2809 52.4605L42.6251 51.9083ZM41.0453 54.8416C40.6692 55.991 40.484 57.257 40.484 58.6356H41.3413C41.3413 57.3336 41.5162 56.1592 41.8601 55.1082L41.0453 54.8416ZM40.484 58.6356V58.8756H41.3413V58.6356H40.484ZM40.484 58.8756C40.484 60.2712 40.6584 61.545 41.0132 62.6929L41.8322 62.4397C41.5069 61.3872 41.3413 60.2005 41.3413 58.8756H40.484ZM41.0138 62.695C41.3677 63.8191 41.8715 64.7895 42.5308 65.5978L43.1951 65.0558C42.6143 64.3438 42.1578 63.4738 41.8316 62.4376L41.0138 62.695ZM42.5388 65.6072C43.2204 66.3954 44.0419 67.0033 44.9993 67.4288L45.3475 66.6454C44.5045 66.2708 43.7858 65.7385 43.1872 65.0464L42.5388 65.6072ZM45.0025 67.4302C45.9844 67.8571 47.0841 68.0659 48.294 68.0659V67.2086C47.1834 67.2086 46.2028 67.0173 45.3443 66.644L45.0025 67.4302ZM48.294 68.0659C50.1253 68.0659 51.6724 67.6174 52.9029 66.6892L52.3866 66.0048C51.3367 66.7968 49.9832 67.2086 48.294 67.2086V68.0659ZM52.9067 66.6863C54.1528 65.7244 54.9055 64.2949 55.1985 62.4536L54.3518 62.3189C54.0847 63.9982 53.4171 65.2093 52.3828 66.0077L52.9067 66.6863ZM54.7751 62.8149H57.2056V61.9576H54.7751V62.8149ZM56.7819 62.3213C56.4143 64.7206 55.4666 66.4591 53.9751 67.5964L54.495 68.2781C56.204 66.975 57.2368 65.0129 57.6293 62.4512L56.7819 62.3213ZM53.9751 67.5964C52.4631 68.7493 50.5592 69.339 48.234 69.339V70.1963C50.7096 70.1963 52.8064 69.5657 54.495 68.2781L53.9751 67.5964ZM66.8535 48.0436V47.615H66.5477L66.4482 47.9042L66.8535 48.0436ZM70.2741 48.0436L70.6802 47.9062L70.5816 47.615H70.2741V48.0436ZM77.5355 69.4976V69.9262H78.1331L77.9415 69.3601L77.5355 69.4976ZM74.955 69.4976L74.5491 69.6355L74.6479 69.9262H74.955V69.4976ZM72.8546 63.3164L73.2605 63.1785L73.1617 62.8878H72.8546V63.3164ZM64.003 63.3164V62.8878H63.6945L63.5965 63.1803L64.003 63.3164ZM61.9326 69.4976V69.9262H62.2411L62.3391 69.6337L61.9326 69.4976ZM59.4722 69.4976L59.0668 69.3581L58.8714 69.9262H59.4722V69.4976ZM64.7231 61.2461L64.3169 61.1092L64.1264 61.6747H64.7231V61.2461ZM72.1645 61.2461V61.6747H72.7613L72.5707 61.1092L72.1645 61.2461ZM68.4438 50.204L68.85 50.0672L68.4438 48.8616L68.0376 50.0672L68.4438 50.204ZM66.8535 48.4723H70.2741V47.615H66.8535V48.4723ZM69.8681 48.1811L77.1294 69.635L77.9415 69.3601L70.6802 47.9062L69.8681 48.1811ZM77.5355 69.0689H74.955V69.9262H77.5355V69.0689ZM75.3609 69.3596L73.2605 63.1785L72.4488 63.4543L74.5491 69.6355L75.3609 69.3596ZM72.8546 62.8878H64.003V63.7451H72.8546V62.8878ZM63.5965 63.1803L61.5262 69.3614L62.3391 69.6337L64.4095 63.4526L63.5965 63.1803ZM61.9326 69.0689H59.4722V69.9262H61.9326V69.0689ZM59.8775 69.637L67.2589 48.1831L66.4482 47.9042L59.0668 69.3581L59.8775 69.637ZM64.7231 61.6747H72.1645V60.8174H64.7231V61.6747ZM72.5707 61.1092L68.85 50.0672L68.0376 50.3409L71.7583 61.3829L72.5707 61.1092ZM68.0376 50.0672L64.3169 61.1092L65.1293 61.3829L68.85 50.3409L68.0376 50.0672ZM81.6626 48.0436V47.615H81.234V48.0436H81.6626ZM85.2933 48.0436L85.6917 47.8856L85.5844 47.615H85.2933V48.0436ZM91.9245 64.7567L91.5261 64.9148L91.9309 65.9352L92.3246 64.9104L91.9245 64.7567ZM98.3457 48.0436V47.615H98.0511L97.9455 47.8899L98.3457 48.0436ZM101.946 48.0436H102.375V47.615H101.946V48.0436ZM101.946 69.4976V69.9262H102.375V69.4976H101.946ZM99.3358 69.4976H98.9072V69.9262H99.3358V69.4976ZM99.3358 51.4343H99.7645L98.937 51.2772L99.3358 51.4343ZM92.2245 69.4976V69.9262H92.5165L92.6234 69.6546L92.2245 69.4976ZM91.4144 69.4976L91.0174 69.6591L91.1261 69.9262H91.4144V69.4976ZM84.0631 51.4343L84.4601 51.2727L83.6344 51.4343H84.0631ZM84.0631 69.4976V69.9262H84.4917V69.4976H84.0631ZM81.6626 69.4976H81.234V69.9262H81.6626V69.4976ZM81.6626 48.4723H85.2933V47.615H81.6626V48.4723ZM84.8948 48.2017L91.5261 64.9148L92.3229 64.5986L85.6917 47.8856L84.8948 48.2017ZM92.3246 64.9104L98.7458 48.1974L97.9455 47.8899L91.5244 64.603L92.3246 64.9104ZM98.3457 48.4723H101.946V47.615H98.3457V48.4723ZM101.518 48.0436V69.4976H102.375V48.0436H101.518ZM101.946 69.0689H99.3358V69.9262H101.946V69.0689ZM99.7645 69.4976V51.4343H98.9072V69.4976H99.7645ZM98.937 51.2772L91.8257 69.3405L92.6234 69.6546L99.7347 51.5913L98.937 51.2772ZM92.2245 69.0689H91.4144V69.9262H92.2245V69.0689ZM91.8114 69.336L84.4601 51.2727L83.666 51.5958L91.0174 69.6591L91.8114 69.336ZM83.6344 51.4343V69.4976H84.4917V51.4343H83.6344ZM84.0631 69.0689H81.6626V69.9262H84.0631V69.0689ZM82.0913 69.4976V48.0436H81.234V69.4976H82.0913ZM107.712 48.0436V47.615H107.284V48.0436H107.712ZM116.684 48.4037L116.573 48.818L116.584 48.8206L116.684 48.4037ZM119.084 49.5139L118.824 49.8545L118.83 49.8593L119.084 49.5139ZM120.705 51.4643L120.321 51.656L120.323 51.6599L120.705 51.4643ZM120.705 57.3453L121.088 57.537L120.705 57.3453ZM119.084 59.3257L119.338 59.6711L119.345 59.6662L119.084 59.3257ZM116.684 60.4359L116.786 60.8523L116.792 60.8507L116.684 60.4359ZM110.323 60.766V60.3373H109.894V60.766H110.323ZM110.323 69.4976V69.9262H110.751V69.4976H110.323ZM107.712 69.4976H107.284V69.9262H107.712V69.4976ZM117.494 57.6154L117.781 57.934L117.785 57.9301L117.494 57.6154ZM117.434 51.1042L117.174 51.4452L117.18 51.4491L117.434 51.1042ZM110.323 50.144V49.7154H109.894V50.144H110.323ZM110.323 58.6956H109.894V59.1242H110.323V58.6956ZM107.712 48.4723H113.803V47.615H107.712V48.4723ZM113.803 48.4723C114.79 48.4723 115.713 48.5883 116.573 48.8179L116.794 47.9895C115.855 47.739 114.857 47.615 113.803 47.615V48.4723ZM116.584 48.8206C117.452 49.0282 118.196 49.3744 118.824 49.8544L119.345 49.1734C118.612 48.6132 117.756 48.2193 116.784 47.9868L116.584 48.8206ZM118.83 49.8593C119.453 50.3167 119.95 50.9128 120.321 51.656L121.088 51.2726C120.659 50.4154 120.076 49.7113 119.338 49.1686L118.83 49.8593ZM120.323 51.6599C120.685 52.365 120.876 53.2443 120.876 54.3148H121.733C121.733 53.1449 121.525 52.1238 121.086 51.2687L120.323 51.6599ZM120.876 54.3148V54.4348H121.733V54.3148H120.876ZM120.876 54.4348C120.876 55.5262 120.685 56.4271 120.321 57.1536L121.088 57.537C121.525 56.6633 121.733 55.6238 121.733 54.4348H120.876ZM120.321 57.1536C119.949 57.8982 119.45 58.5065 118.824 58.9852L119.345 59.6662C120.079 59.1047 120.66 58.3928 121.088 57.537L120.321 57.1536ZM118.83 58.9804C118.199 59.4445 117.45 59.7931 116.576 60.0211L116.792 60.8507C117.758 60.5987 118.609 60.2071 119.338 59.671L118.83 58.9804ZM116.582 60.0195C115.718 60.2306 114.793 60.3373 113.803 60.3373V61.1946C114.854 61.1946 115.849 61.0813 116.786 60.8523L116.582 60.0195ZM113.803 60.3373H110.323V61.1946H113.803V60.3373ZM109.894 60.766V69.4976H110.751V60.766H109.894ZM110.323 69.0689H107.712V69.9262H110.323V69.0689ZM108.141 69.4976V48.0436H107.284V69.4976H108.141ZM113.983 59.1242C115.584 59.1242 116.874 58.7503 117.781 57.934L117.207 57.2968C116.514 57.9207 115.463 58.2669 113.983 58.2669V59.1242ZM117.785 57.9301C118.695 57.0883 119.123 55.9007 119.123 54.4348H118.266C118.266 55.7295 117.893 56.6622 117.203 57.3007L117.785 57.9301ZM119.123 54.4348V54.3148H118.266V54.4348H119.123ZM119.123 54.3148C119.123 52.7237 118.682 51.4924 117.689 50.7593L117.18 51.4491C117.867 51.9562 118.266 52.8653 118.266 54.3148H119.123ZM117.694 50.7632C116.755 50.048 115.502 49.7154 113.983 49.7154V50.5727C115.385 50.5727 116.433 50.8801 117.174 51.4452L117.694 50.7632ZM113.983 49.7154H110.323V50.5727H113.983V49.7154ZM109.894 50.144V58.6956H110.751V50.144H109.894ZM110.323 59.1242H113.983V58.2669H110.323V59.1242Z" fill="#81F3AC"></path> <path d="M38.6981 18.0437H45.1493C46.1495 18.0437 47.0697 18.1337 47.9098 18.3137C48.75 18.4937 49.4801 18.8038 50.1002 19.2439C50.7203 19.6639 51.2004 20.234 51.5405 20.9542C51.8805 21.6543 52.0506 22.5345 52.0506 23.5947V23.7147C52.0506 24.6949 51.8105 25.595 51.3304 26.4152C50.8703 27.2153 50.0302 27.8254 48.81 28.2455C50.3703 28.6256 51.4705 29.2257 52.1106 30.0458C52.7707 30.866 53.1008 31.9762 53.1008 33.3764V33.4965C53.1008 34.5167 52.9307 35.4068 52.5907 36.167C52.2706 36.9071 51.8005 37.5272 51.1804 38.0273C50.5603 38.5074 49.8202 38.8774 48.96 39.1375C48.0998 39.3775 47.1297 39.4976 46.0495 39.4976H38.6981V18.0437ZM45.9895 37.4572C47.5497 37.4572 48.7 37.1271 49.4401 36.467C50.1802 35.7869 50.5503 34.7867 50.5503 33.4665V33.3464C50.5503 32.0262 50.1602 31.046 49.3801 30.4059C48.6199 29.7658 47.3697 29.4457 45.6294 29.4457H41.2486V37.4572H45.9895ZM45.1493 27.4054C46.7296 27.4054 47.8498 27.1053 48.5099 26.5052C49.17 25.9051 49.5001 24.9449 49.5001 23.6247V23.5046C49.5001 22.2844 49.14 21.4143 48.4199 20.8942C47.6998 20.3541 46.5896 20.084 45.0893 20.084H41.2486V27.4054H45.1493ZM67.1405 37.6072C68.3407 37.6072 69.4109 37.3972 70.3511 36.9771C71.3113 36.537 72.1214 35.9369 72.7815 35.1768C73.4416 34.3966 73.9517 33.4665 74.3118 32.3863C74.6719 31.3061 74.8519 30.1158 74.8519 28.8156V28.5756C74.8519 27.3754 74.6719 26.2451 74.3118 25.185C73.9717 24.1248 73.4717 23.2046 72.8115 22.4244C72.1514 21.6443 71.3413 21.0242 70.3811 20.5641C69.4209 20.104 68.3207 19.874 67.0805 19.874C65.8403 19.874 64.7301 20.094 63.7499 20.5341C62.7697 20.9542 61.9395 21.5543 61.2594 22.3344C60.5993 23.1146 60.0892 24.0447 59.7291 25.1249C59.3891 26.1851 59.2191 27.3553 59.2191 28.6356V28.8756C59.2191 30.1759 59.4191 31.3661 59.8192 32.4463C60.2392 33.5065 60.7993 34.4266 61.4995 35.2068C62.2196 35.9669 63.0598 36.557 64.0199 36.9771C64.9801 37.3972 66.0203 37.6072 67.1405 37.6072ZM67.1405 39.7676C65.5602 39.7676 64.1099 39.4876 62.7897 38.9275C61.4895 38.3473 60.3693 37.5672 59.4291 36.587C58.5089 35.6068 57.7888 34.4566 57.2687 33.1364C56.7686 31.8162 56.5186 30.4059 56.5186 28.9056V28.6656C56.5186 27.1453 56.7686 25.7251 57.2687 24.4048C57.7888 23.0646 58.5089 21.9044 59.4291 20.9242C60.3693 19.944 61.4795 19.1739 62.7597 18.6138C64.0599 18.0537 65.5002 17.7736 67.0805 17.7736C68.6608 17.7736 70.091 18.0537 71.3713 18.6138C72.6515 19.1739 73.7517 19.944 74.6719 20.9242C75.592 21.9044 76.3022 23.0546 76.8023 24.3748C77.3023 25.695 77.5524 27.1053 77.5524 28.6056V28.8456C77.5524 30.3659 77.3023 31.7862 76.8023 33.1064C76.3022 34.4266 75.592 35.5868 74.6719 36.587C73.7717 37.5672 72.6815 38.3473 71.4013 38.9275C70.121 39.4876 68.7008 39.7676 67.1405 39.7676ZM91.8423 37.6072C93.0425 37.6072 94.1127 37.3972 95.0528 36.9771C96.013 36.537 96.8232 35.9369 97.4833 35.1768C98.1434 34.3966 98.6535 33.4665 99.0136 32.3863C99.3736 31.3061 99.5537 30.1158 99.5537 28.8156V28.5756C99.5537 27.3754 99.3736 26.2451 99.0136 25.185C98.6735 24.1248 98.1734 23.2046 97.5133 22.4244C96.8532 21.6443 96.043 21.0242 95.0828 20.5641C94.1227 20.104 93.0225 19.874 91.7822 19.874C90.542 19.874 89.4318 20.094 88.4516 20.5341C87.4715 20.9542 86.6413 21.5543 85.9612 22.3344C85.3011 23.1146 84.791 24.0447 84.4309 25.1249C84.0908 26.1851 83.9208 27.3553 83.9208 28.6356V28.8756C83.9208 30.1759 84.1209 31.3661 84.5209 32.4463C84.941 33.5065 85.5011 34.4266 86.2012 35.2068C86.9214 35.9669 87.7615 36.557 88.7217 36.9771C89.6819 37.3972 90.7221 37.6072 91.8423 37.6072ZM91.8423 39.7676C90.262 39.7676 88.8117 39.4876 87.4915 38.9275C86.1912 38.3473 85.071 37.5672 84.1309 36.587C83.2107 35.6068 82.4906 34.4566 81.9705 33.1364C81.4704 31.8162 81.2203 30.4059 81.2203 28.9056V28.6656C81.2203 27.1453 81.4704 25.7251 81.9705 24.4048C82.4906 23.0646 83.2107 21.9044 84.1309 20.9242C85.071 19.944 86.1812 19.1739 87.4615 18.6138C88.7617 18.0537 90.202 17.7736 91.7822 17.7736C93.3625 17.7736 94.7928 18.0537 96.073 18.6138C97.3533 19.1739 98.4535 19.944 99.3736 20.9242C100.294 21.9044 101.004 23.0546 101.504 24.3748C102.004 25.695 102.254 27.1053 102.254 28.6056V28.8456C102.254 30.3659 102.004 31.7862 101.504 33.1064C101.004 34.4266 100.294 35.5868 99.3736 36.587C98.4735 37.5672 97.3833 38.3473 96.103 38.9275C94.8228 39.4876 93.4025 39.7676 91.8423 39.7676ZM110.328 20.174H104.087V18.0437H119.18V20.174H112.939V39.4976H110.328V20.174ZM46.234 68.7676C44.6737 68.7676 43.2734 68.5176 42.0332 68.0175C40.813 67.4974 39.7628 66.7672 38.8826 65.8271C38.0225 64.8669 37.3623 63.7267 36.9023 62.4064C36.4422 61.0662 36.2121 59.5659 36.2121 57.9056V57.6656C36.2121 56.0853 36.4622 54.625 36.9623 53.2848C37.4624 51.9445 38.1625 50.7843 39.0627 49.8042C39.9628 48.824 41.023 48.0638 42.2432 47.5237C43.4835 46.9836 44.8337 46.7136 46.294 46.7136C47.4142 46.7136 48.4744 46.8636 49.4745 47.1637C50.4747 47.4637 51.3649 47.9038 52.145 48.4839C52.9252 49.064 53.5653 49.7942 54.0654 50.6743C54.5655 51.5545 54.8755 52.5747 54.9956 53.7349H52.4151C52.135 52.0946 51.5049 50.8643 50.5247 50.0442C49.5646 49.204 48.1643 48.784 46.324 48.784C45.2038 48.784 44.1836 48.994 43.2634 49.4141C42.3633 49.8342 41.5931 50.4243 40.953 51.1844C40.3129 51.9445 39.8128 52.8747 39.4527 53.9749C39.0927 55.0751 38.9126 56.2953 38.9126 57.6356V57.8756C38.9126 59.2359 39.0827 60.4661 39.4227 61.5663C39.7628 62.6465 40.2429 63.5667 40.863 64.3268C41.5031 65.0669 42.2732 65.637 43.1734 66.0371C44.0936 66.4372 45.1338 66.6372 46.294 66.6372C48.0543 66.6372 49.5046 66.2071 50.6448 65.347C51.785 64.4668 52.4951 63.1466 52.7751 61.3863H55.2056C54.8255 63.8667 53.8353 65.7171 52.2351 66.9373C50.6348 68.1575 48.6344 68.7676 46.234 68.7676ZM64.8535 47.0437H68.2741L75.5355 68.4976H72.955L70.8546 62.3164H62.003L59.9326 68.4976H57.4722L64.8535 47.0437ZM62.7231 60.2461H70.1645L66.4438 49.204L62.7231 60.2461ZM79.6626 47.0437H83.2933L89.9245 63.7567L96.3457 47.0437H99.9463V68.4976H97.3358V50.4343L90.2245 68.4976H89.4144L82.0631 50.4343V68.4976H79.6626V47.0437ZM105.712 47.0437H111.803C112.824 47.0437 113.784 47.1637 114.684 47.4037C115.604 47.6238 116.404 47.9938 117.084 48.5139C117.764 49.014 118.305 49.6641 118.705 50.4643C119.105 51.2444 119.305 52.1946 119.305 53.3148V53.4348C119.305 54.575 119.105 55.5452 118.705 56.3453C118.305 57.1455 117.764 57.8056 117.084 58.3257C116.404 58.8258 115.604 59.1959 114.684 59.4359C113.784 59.6559 112.824 59.766 111.803 59.766H108.323V68.4976H105.712V47.0437ZM111.983 57.6956C113.524 57.6956 114.694 57.3355 115.494 56.6154C116.294 55.8753 116.694 54.8151 116.694 53.4348V53.3148C116.694 51.7945 116.274 50.7243 115.434 50.1042C114.594 49.4641 113.444 49.144 111.983 49.144H108.323V57.6956H111.983Z" fill="#81F3AC"></path> </svg> 