<?xml version="1.0" encoding="UTF-8"?> <svg xmlns="http://www.w3.org/2000/svg" width="87" height="85" viewBox="0 0 87 85" fill="none"> <path d="M73.303 40.9959C74.7565 41.4759 75.808 43.1266 76.191 45.6745C76.5692 48.1912 76.2617 51.4306 75.1524 54.7833C74.0431 58.1361 72.3575 60.9203 70.5525 62.7159C68.725 64.5338 66.896 65.2331 65.4425 64.7531C63.989 64.273 62.9375 62.6223 62.5545 60.0744C62.1763 57.5578 62.4838 54.3184 63.5931 50.9656C64.7024 47.6129 66.388 44.8286 68.1931 43.033C70.0205 41.2151 71.8496 40.5158 73.303 40.9959Z" stroke="#71A8FF"></path> <path d="M64.6003 28.4611C67.1156 29.2918 68.8471 32.11 69.4711 36.262C70.0905 40.3829 69.5852 45.663 67.782 51.1129C65.9788 56.5628 63.2346 61.1036 60.279 64.0437C57.301 67.0061 54.2294 68.238 51.7142 67.4073C49.1989 66.5765 47.4674 63.7583 46.8433 59.6063C46.224 55.4855 46.7293 50.2053 48.5325 44.7554C50.3357 39.3055 53.0799 34.7648 56.0355 31.8246C59.0135 28.8622 62.085 27.6303 64.6003 28.4611Z" stroke="#71A8FF"></path> <path d="M53.2213 15.8472C56.7984 17.0286 59.2099 21.0143 60.0751 26.7705C60.9355 32.4954 60.2324 39.8164 57.7353 47.3634C55.2382 54.9105 51.4355 61.2077 47.3293 65.2924C43.2008 69.3993 38.8867 71.1637 35.3096 69.9823C31.7325 68.801 29.321 64.8152 28.4559 59.059C27.5954 53.3341 28.2986 46.0131 30.7957 38.4661C33.2928 30.919 37.0955 24.6218 41.2016 20.5371C45.3302 16.4302 49.6443 14.6658 53.2213 15.8472Z" stroke="#71A8FF"></path> <path d="M37.1829 6.32708C41.2908 7.68382 44.0424 12.2533 45.0281 18.8116C46.009 25.3386 45.207 33.6799 42.363 42.2755C39.5189 50.8712 35.1869 58.0467 30.5055 62.7036C25.8017 67.3828 20.8663 69.4135 16.7583 68.0568C12.6504 66.7 9.89885 62.1305 8.91317 55.5723C7.93219 49.0452 8.73422 40.7039 11.5783 32.1083C14.4223 23.5127 18.7543 16.3372 23.4358 11.6803C28.1396 7.00108 33.0749 4.97035 37.1829 6.32708Z" stroke="#71A8FF"></path> </svg> 