<?xml version="1.0" encoding="UTF-8"?> <svg xmlns="http://www.w3.org/2000/svg" width="102" height="41" viewBox="0 0 102 41" fill="none"> <path d="M21.743 26.162C21.059 26.162 20.441 26.06 19.889 25.856C19.349 25.652 18.887 25.376 18.503 25.028C18.119 24.668 17.819 24.248 17.603 23.768C17.387 23.288 17.267 22.766 17.243 22.202H18.683C18.719 22.586 18.803 22.946 18.935 23.282C19.079 23.606 19.277 23.888 19.529 24.128C19.781 24.368 20.093 24.56 20.465 24.704C20.837 24.836 21.275 24.902 21.779 24.902C22.799 24.902 23.543 24.68 24.011 24.236C24.479 23.78 24.713 23.174 24.713 22.418C24.713 20.75 23.807 19.916 21.995 19.916H21.023V18.602H21.923C22.763 18.602 23.375 18.416 23.759 18.044C24.143 17.66 24.335 17.114 24.335 16.406C24.335 15.794 24.143 15.284 23.759 14.876C23.375 14.456 22.787 14.246 21.995 14.246C21.191 14.246 20.537 14.468 20.033 14.912C19.529 15.356 19.235 15.944 19.151 16.676H17.783C17.807 16.172 17.921 15.698 18.125 15.254C18.341 14.798 18.635 14.402 19.007 14.066C19.379 13.73 19.817 13.466 20.321 13.274C20.825 13.07 21.383 12.968 21.995 12.968C22.607 12.968 23.153 13.064 23.633 13.256C24.113 13.436 24.515 13.688 24.839 14.012C25.175 14.324 25.427 14.684 25.595 15.092C25.775 15.5 25.865 15.926 25.865 16.37C25.865 17.102 25.673 17.696 25.289 18.152C24.905 18.596 24.419 18.938 23.831 19.178C24.587 19.382 25.187 19.748 25.631 20.276C26.087 20.804 26.315 21.518 26.315 22.418C26.315 23.006 26.201 23.534 25.973 24.002C25.745 24.458 25.427 24.848 25.019 25.172C24.623 25.496 24.143 25.742 23.579 25.91C23.015 26.078 22.403 26.162 21.743 26.162ZM35.0425 18.062V26H33.8005V16.586H35.9065L38.5885 23.66L41.3425 16.586H43.3945V26H41.9185V18.062L38.8045 26H38.1205L35.0425 18.062ZM50.3988 26.162C49.7268 26.162 49.1148 26.048 48.5628 25.82C48.0108 25.592 47.5308 25.274 47.1228 24.866C46.7148 24.446 46.3968 23.942 46.1688 23.354C45.9528 22.766 45.8448 22.112 45.8448 21.392V21.248C45.8448 20.54 45.9528 19.892 46.1688 19.304C46.3848 18.704 46.6848 18.194 47.0688 17.774C47.4648 17.342 47.9328 17.012 48.4728 16.784C49.0128 16.544 49.6068 16.424 50.2548 16.424C50.7948 16.424 51.3168 16.514 51.8208 16.694C52.3368 16.862 52.7928 17.132 53.1888 17.504C53.5848 17.876 53.8968 18.362 54.1248 18.962C54.3648 19.55 54.4848 20.264 54.4848 21.104V21.59H47.3928C47.4288 22.67 47.6988 23.498 48.2028 24.074C48.7068 24.638 49.4448 24.92 50.4168 24.92C51.8928 24.92 52.7268 24.374 52.9188 23.282H54.4128C54.2448 24.23 53.8008 24.95 53.0808 25.442C52.3608 25.922 51.4668 26.162 50.3988 26.162ZM52.9548 20.384C52.8828 19.412 52.6068 18.716 52.1268 18.296C51.6588 17.876 51.0348 17.666 50.2548 17.666C49.4868 17.666 48.8568 17.912 48.3648 18.404C47.8848 18.884 47.5788 19.544 47.4468 20.384H52.9548ZM60.6832 26.162C60.0232 26.162 59.4112 26.054 58.8472 25.838C58.2952 25.61 57.8092 25.292 57.3892 24.884C56.9812 24.464 56.6572 23.96 56.4172 23.372C56.1892 22.784 56.0752 22.124 56.0752 21.392V21.248C56.0752 20.528 56.1952 19.874 56.4352 19.286C56.6752 18.686 56.9992 18.176 57.4072 17.756C57.8272 17.336 58.3132 17.012 58.8652 16.784C59.4172 16.544 60.0112 16.424 60.6472 16.424C61.1392 16.424 61.6132 16.484 62.0692 16.604C62.5372 16.724 62.9512 16.916 63.3112 17.18C63.6832 17.432 63.9952 17.768 64.2472 18.188C64.4992 18.608 64.6612 19.118 64.7332 19.718H63.2572C63.1372 18.974 62.8312 18.446 62.3392 18.134C61.8592 17.822 61.2952 17.666 60.6472 17.666C60.2152 17.666 59.8132 17.75 59.4412 17.918C59.0812 18.086 58.7632 18.326 58.4872 18.638C58.2232 18.938 58.0132 19.31 57.8572 19.754C57.7012 20.198 57.6232 20.696 57.6232 21.248V21.392C57.6232 22.556 57.9052 23.438 58.4692 24.038C59.0452 24.626 59.7892 24.92 60.7012 24.92C61.0372 24.92 61.3552 24.872 61.6552 24.776C61.9672 24.68 62.2432 24.536 62.4832 24.344C62.7352 24.152 62.9392 23.912 63.0952 23.624C63.2632 23.336 63.3652 23 63.4012 22.616H64.7872C64.7392 23.12 64.6012 23.594 64.3732 24.038C64.1572 24.47 63.8692 24.842 63.5092 25.154C63.1492 25.466 62.7292 25.712 62.2492 25.892C61.7692 26.072 61.2472 26.162 60.6832 26.162ZM70.0669 17.774C69.3589 17.774 68.8429 17.924 68.5189 18.224C68.2069 18.512 68.0509 18.932 68.0509 19.484V19.538C68.0509 20.054 68.2009 20.456 68.5009 20.744C68.8009 21.032 69.3229 21.176 70.0669 21.176H71.8309V17.774H70.0669ZM67.5829 26H65.8729L68.7349 22.058C68.4469 21.998 68.1709 21.908 67.9069 21.788C67.6429 21.668 67.4089 21.506 67.2049 21.302C67.0129 21.098 66.8569 20.852 66.7369 20.564C66.6169 20.276 66.5569 19.934 66.5569 19.538V19.484C66.5569 18.968 66.6529 18.53 66.8449 18.17C67.0369 17.798 67.2949 17.498 67.6189 17.27C67.9429 17.03 68.3209 16.856 68.7529 16.748C69.1969 16.64 69.6649 16.586 70.1569 16.586H73.3249V26H71.8309V22.31H70.2109L67.5829 26ZM84.0247 28.286L83.9167 26H76.3567V16.586H77.8507V24.74H82.2967V16.586H83.7907V24.74H85.2307V28.286H84.0247Z" fill="black"></path> <path d="M101.5 20.5C101.5 23.1496 100.166 25.7237 97.6477 28.1171C95.1281 30.5116 91.4555 32.691 86.876 34.5318C77.7195 38.2123 65.0357 40.5 51 40.5C36.9643 40.5 24.2805 38.2123 15.124 34.5318C10.5445 32.691 6.87186 30.5116 4.35227 28.1171C1.83384 25.7237 0.5 23.1496 0.5 20.5C0.5 17.8504 1.83384 15.2763 4.35227 12.8829C6.87186 10.4884 10.5445 8.30904 15.124 6.46824C24.2805 2.7877 36.9643 0.5 51 0.5C65.0357 0.5 77.7195 2.7877 86.876 6.46824C91.4555 8.30904 95.1281 10.4884 97.6477 12.8829C100.166 15.2763 101.5 17.8504 101.5 20.5Z" stroke="black"></path> </svg> 