<?xml version="1.0" encoding="UTF-8"?> <svg xmlns="http://www.w3.org/2000/svg" width="606" height="404" viewBox="0 0 606 404" fill="none"> <rect x="0.956726" y="0.25" width="67.5715" height="67.5715" stroke="#81F3AC" stroke-width="0.5"></rect> <rect x="0.956726" y="134.393" width="67.5715" height="67.5715" stroke="#81F3AC" stroke-width="0.5"></rect> <rect x="0.956726" y="67.3218" width="67.5715" height="67.5715" stroke="#81F3AC" stroke-width="0.5"></rect> <rect x="0.956726" y="201.465" width="67.5715" height="67.5715" stroke="#81F3AC" stroke-width="0.5"></rect> <rect x="0.956726" y="268.536" width="67.5715" height="67.5715" stroke="#81F3AC" stroke-width="0.5"></rect> <rect x="0.956726" y="335.608" width="67.5715" height="67.5715" stroke="#81F3AC" stroke-width="0.5"></rect> <rect x="68.029" y="0.25" width="67.5715" height="67.5715" stroke="#81F3AC" stroke-width="0.5"></rect> <rect x="68.029" y="134.393" width="67.5715" height="67.5715" stroke="#81F3AC" stroke-width="0.5"></rect> <rect x="68.029" y="67.3218" width="67.5715" height="67.5715" stroke="#81F3AC" stroke-width="0.5"></rect> <rect x="68.029" y="201.465" width="67.5715" height="67.5715" stroke="#81F3AC" stroke-width="0.5"></rect> <rect x="68.029" y="268.536" width="67.5715" height="67.5715" stroke="#81F3AC" stroke-width="0.5"></rect> <rect x="68.029" y="335.608" width="67.5715" height="67.5715" stroke="#81F3AC" stroke-width="0.5"></rect> <rect x="135.101" y="0.25" width="67.5715" height="67.5715" stroke="#81F3AC" stroke-width="0.5"></rect> <rect x="135.101" y="134.393" width="67.5715" height="67.5715" stroke="#81F3AC" stroke-width="0.5"></rect> <rect x="135.101" y="67.3218" width="67.5715" height="67.5715" stroke="#81F3AC" stroke-width="0.5"></rect> <rect x="135.101" y="201.465" width="67.5715" height="67.5715" stroke="#81F3AC" stroke-width="0.5"></rect> <rect x="135.101" y="268.536" width="67.5715" height="67.5715" stroke="#81F3AC" stroke-width="0.5"></rect> <rect x="135.101" y="335.608" width="67.5715" height="67.5715" stroke="#81F3AC" stroke-width="0.5"></rect> <rect x="202.174" y="0.25" width="68.0758" height="67.5715" stroke="#81F3AC" stroke-width="0.5"></rect> <rect x="202.174" y="134.393" width="68.0758" height="67.5715" stroke="#81F3AC" stroke-width="0.5"></rect> <rect x="202.174" y="67.3218" width="68.0758" height="67.5715" stroke="#81F3AC" stroke-width="0.5"></rect> <rect x="202.174" y="201.465" width="68.0758" height="67.5715" stroke="#81F3AC" stroke-width="0.5"></rect> <rect x="202.174" y="268.536" width="68.0758" height="67.5715" stroke="#81F3AC" stroke-width="0.5"></rect> <rect x="202.174" y="335.608" width="68.0758" height="67.5715" stroke="#81F3AC" stroke-width="0.5"></rect> <rect x="269.75" y="0.25" width="67.5715" height="67.5715" stroke="#81F3AC" stroke-width="0.5"></rect> <rect x="269.75" y="134.393" width="67.5715" height="67.5715" stroke="#81F3AC" stroke-width="0.5"></rect> <rect x="269.75" y="67.3218" width="67.5715" height="67.5715" stroke="#81F3AC" stroke-width="0.5"></rect> <rect x="269.75" y="201.465" width="67.5715" height="67.5715" stroke="#81F3AC" stroke-width="0.5"></rect> <rect x="269.75" y="268.536" width="67.5715" height="67.5715" stroke="#81F3AC" stroke-width="0.5"></rect> <rect x="269.75" y="335.608" width="67.5715" height="67.5715" stroke="#81F3AC" stroke-width="0.5"></rect> <rect x="336.822" y="0.25" width="67.5715" height="67.5715" stroke="#81F3AC" stroke-width="0.5"></rect> <rect x="403.894" y="0.25" width="67.5715" height="67.5715" stroke="#81F3AC" stroke-width="0.5"></rect> <rect x="470.966" y="0.25" width="67.5715" height="67.5715" stroke="#81F3AC" stroke-width="0.5"></rect> <rect x="538.039" y="0.25" width="67.5715" height="67.5715" stroke="#81F3AC" stroke-width="0.5"></rect> <rect x="336.822" y="134.393" width="67.5715" height="67.5715" stroke="#81F3AC" stroke-width="0.5"></rect> <rect x="403.894" y="134.393" width="67.5715" height="67.5715" stroke="#81F3AC" stroke-width="0.5"></rect> <rect x="470.966" y="134.393" width="67.5715" height="67.5715" stroke="#81F3AC" stroke-width="0.5"></rect> <rect x="538.039" y="134.393" width="67.5715" height="67.5715" stroke="#81F3AC" stroke-width="0.5"></rect> <rect x="336.822" y="67.3218" width="67.5715" height="67.5715" stroke="#81F3AC" stroke-width="0.5"></rect> <rect x="403.894" y="67.3218" width="67.5715" height="67.5715" stroke="#81F3AC" stroke-width="0.5"></rect> <rect x="470.966" y="67.3218" width="67.5715" height="67.5715" stroke="#81F3AC" stroke-width="0.5"></rect> <rect x="538.039" y="67.3218" width="67.5715" height="67.5715" stroke="#81F3AC" stroke-width="0.5"></rect> <rect x="336.822" y="201.465" width="67.5715" height="67.5715" stroke="#81F3AC" stroke-width="0.5"></rect> <rect x="403.894" y="201.465" width="67.5715" height="67.5715" stroke="#81F3AC" stroke-width="0.5"></rect> <rect x="470.966" y="201.465" width="67.5715" height="67.5715" stroke="#81F3AC" stroke-width="0.5"></rect> <rect x="538.039" y="201.465" width="67.5715" height="67.5715" stroke="#81F3AC" stroke-width="0.5"></rect> <rect x="336.822" y="268.536" width="67.5715" height="67.5715" stroke="#81F3AC" stroke-width="0.5"></rect> <rect x="403.894" y="268.536" width="67.5715" height="67.5715" stroke="#81F3AC" stroke-width="0.5"></rect> <rect x="470.966" y="268.536" width="67.5715" height="67.5715" stroke="#81F3AC" stroke-width="0.5"></rect> <rect x="538.039" y="268.536" width="67.5715" height="67.5715" stroke="#81F3AC" stroke-width="0.5"></rect> <rect x="470.966" y="335.608" width="67.5715" height="67.5715" stroke="#81F3AC" stroke-width="0.5"></rect> <rect x="538.039" y="335.608" width="67.5715" height="67.5715" stroke="#81F3AC" stroke-width="0.5"></rect> <rect x="336.822" y="335.608" width="67.5715" height="67.5715" stroke="#81F3AC" stroke-width="0.5"></rect> <rect x="403.894" y="335.608" width="67.5715" height="67.5715" stroke="#81F3AC" stroke-width="0.5"></rect> </svg> 