<?xml version="1.0" encoding="UTF-8"?> <svg xmlns="http://www.w3.org/2000/svg" width="108" height="25" viewBox="0 0 108 25" fill="none"> <path fill-rule="evenodd" clip-rule="evenodd" d="M108 23.3979H105.06L100.044 17.4073L95.0533 23.3979H92.1325L98.5804 15.6581L92.4657 8.35746H95.406L100.045 13.8984L104.662 8.35746H107.583L101.51 15.6476L108 23.3979ZM63.6155 23.7739C58.9987 23.7739 57.6119 22.6459 57.6119 22.6459V0.837249H59.8633V8.76506C60.6963 8.35295 61.897 7.98145 63.6155 7.98145C68.1752 7.98145 71.8704 11.3084 71.8704 15.8777C71.8704 20.447 68.1752 23.7739 63.6155 23.7739ZM63.6155 10.2375C62.0531 10.2375 60.7713 10.8376 59.8633 11.4558V20.7658C59.8633 20.7658 61.0715 21.5178 63.6155 21.5178C66.931 21.5178 69.6191 19.2001 69.6191 15.8777C69.6191 12.5552 66.931 10.2375 63.6155 10.2375ZM50.1074 0.837249H52.3588V23.3979H50.1074V0.837249ZM44.8543 0.837249V23.3979H42.6029V0.837249H44.8543ZM36.1776 4.22134C35.1405 4.22134 34.3015 3.37908 34.3015 2.34129C34.3015 1.3035 35.1405 0.461239 36.1776 0.461239C37.2132 0.461239 38.0537 1.3035 38.0537 2.34129C38.0537 3.37908 37.2132 4.22134 36.1776 4.22134ZM28.7197 23.3979L20.8399 15.5017L27.9692 8.35746H31.1526L24.0233 15.5017L31.9031 23.3979H28.7197ZM18.5886 23.3979V0.837249H20.8399V15.5017V23.3979H18.5886ZM15.0225 17.2614C15.0225 21.0305 12.0252 23.7664 7.26584 23.7664C4.186 23.7664 1.78907 22.2413 0 20.4966L1.59245 18.7338C3.08134 20.1552 4.83439 21.5374 7.23432 21.5374C9.90141 21.5374 12.7771 20.0394 12.7771 17.3471C12.7771 15.1136 11.0031 13.6562 7.27935 12.5056C3.03481 11.2031 0.879526 9.44037 0.879526 6.12546C0.879526 2.84364 3.65168 0.149902 7.60054 0.149902C10.5498 0.149902 12.3974 1.41029 14.1925 3.02112L12.6285 4.7613C11.0526 3.36254 9.5517 2.41499 7.7101 2.41499C5.42574 2.41499 3.1759 3.89045 3.1759 6.01567C3.1759 7.94234 4.27906 9.16814 8.17538 10.3639C11.7445 11.4663 15.0225 13.1734 15.0225 17.2614ZM37.3498 23.3979H35.0985V8.35746H37.3498V23.3979ZM82.7519 24.1499C78.1922 24.1499 74.497 20.447 74.497 15.8777C74.497 11.3084 78.1922 7.60544 82.7519 7.60544C87.3116 7.60544 91.0069 11.3084 91.0069 15.8777C91.0069 20.447 87.3116 24.1499 82.7519 24.1499ZM82.7519 9.8615C79.4364 9.8615 76.7483 12.5552 76.7483 15.8777C76.7483 19.2001 79.4364 21.8938 82.7519 21.8938C86.0674 21.8938 88.7555 19.2001 88.7555 15.8777C88.7555 12.5552 86.0674 9.8615 82.7519 9.8615Z" fill="black"></path> </svg> 