<?xml version="1.0" encoding="UTF-8"?> <svg xmlns="http://www.w3.org/2000/svg" width="172" height="46" viewBox="0 0 172 46" fill="none"> <path d="M22.3447 0.568563C22.7207 0.242352 23.2793 0.242352 23.6553 0.568563L27.6329 4.01947C27.8649 4.22075 28.1765 4.30425 28.4781 4.24594L33.6482 3.24614C34.1369 3.15163 34.6207 3.43097 34.7833 3.90147L36.5025 8.87882C36.6027 9.16914 36.8309 9.39727 37.1212 9.49754L42.0985 11.2167C42.569 11.3793 42.8484 11.8631 42.7539 12.3518L41.7541 17.5219C41.6957 17.8235 41.7792 18.1351 41.9805 18.3671L45.4314 22.3447C45.7576 22.7207 45.7576 23.2793 45.4314 23.6553L41.9805 27.6329C41.7792 27.8649 41.6957 28.1765 41.7541 28.4781L42.7539 33.6482C42.8484 34.1369 42.569 34.6207 42.0985 34.7833L37.1212 36.5025C36.8309 36.6027 36.6027 36.8309 36.5025 37.1212L34.7833 42.0985C34.6207 42.569 34.1369 42.8484 33.6482 42.7539L28.4781 41.7541C28.1765 41.6957 27.8649 41.7792 27.6329 41.9805L23.6553 45.4314C23.2793 45.7576 22.7207 45.7576 22.3447 45.4314L18.3671 41.9805C18.1351 41.7792 17.8235 41.6957 17.5219 41.7541L12.3518 42.7539C11.8631 42.8484 11.3793 42.569 11.2167 42.0985L9.49754 37.1212C9.39727 36.8309 9.16914 36.6027 8.87882 36.5025L3.90147 34.7833C3.43097 34.6207 3.15163 34.1369 3.24614 33.6482L4.24594 28.4781C4.30425 28.1765 4.22075 27.8649 4.01947 27.6329L0.568563 23.6553C0.242352 23.2793 0.242352 22.7207 0.568563 22.3447L4.01947 18.3671C4.22075 18.1351 4.30425 17.8235 4.24594 17.5219L3.24614 12.3518C3.15163 11.8631 3.43097 11.3793 3.90147 11.2167L8.87882 9.49754C9.16913 9.39727 9.39727 9.16914 9.49754 8.87882L11.2167 3.90147C11.3793 3.43097 11.8631 3.15163 12.3518 3.24614L17.5219 4.24594C17.8235 4.30425 18.1351 4.22075 18.3671 4.01947L22.3447 0.568563Z" fill="white"></path> <path d="M28 28.5994C27.1897 28.5994 26.6724 28.0461 26.6724 26.9914C26.6724 25.9539 27.1897 25.3833 28 25.3833C28.8103 25.3833 29.3103 25.9712 29.3103 26.9914C29.3103 28.0288 28.8103 28.5994 28 28.5994ZM27.9828 30C29.6897 30 31 28.7205 31 26.9741C31 25.245 29.6552 24 28 24C26.3448 24 25 25.2795 25 27.0086C25 28.7205 26.2759 30 27.9828 30Z" fill="#232323"></path> <path d="M18 20.5994C17.1897 20.5994 16.6724 20.0461 16.6724 18.9914C16.6724 17.9539 17.1897 17.3833 18 17.3833C18.8103 17.3833 19.3103 17.9712 19.3103 18.9914C19.3103 20.0288 18.8103 20.5994 18 20.5994ZM17.9828 22C19.6897 22 21 20.7205 21 18.9741C21 17.245 19.6552 16 18 16C16.3448 16 15 17.2795 15 19.0086C15 20.7205 16.2759 22 17.9828 22Z" fill="#232323"></path> <path d="M27.1312 16L17 30H18.891L29 16H27.1312Z" fill="#232323"></path> <g clip-path="url(#clip0)"> <path d="M63.526 28.162C62.866 28.162 62.254 28.054 61.69 27.838C61.138 27.61 60.652 27.292 60.232 26.884C59.824 26.464 59.5 25.96 59.26 25.372C59.032 24.784 58.918 24.124 58.918 23.392V23.248C58.918 22.528 59.038 21.874 59.278 21.286C59.518 20.686 59.842 20.176 60.25 19.756C60.67 19.336 61.156 19.012 61.708 18.784C62.26 18.544 62.854 18.424 63.49 18.424C63.982 18.424 64.456 18.484 64.912 18.604C65.38 18.724 65.794 18.916 66.154 19.18C66.526 19.432 66.838 19.768 67.09 20.188C67.342 20.608 67.504 21.118 67.576 21.718H66.1C65.98 20.974 65.674 20.446 65.182 20.134C64.702 19.822 64.138 19.666 63.49 19.666C63.058 19.666 62.656 19.75 62.284 19.918C61.924 20.086 61.606 20.326 61.33 20.638C61.066 20.938 60.856 21.31 60.7 21.754C60.544 22.198 60.466 22.696 60.466 23.248V23.392C60.466 24.556 60.748 25.438 61.312 26.038C61.888 26.626 62.632 26.92 63.544 26.92C63.88 26.92 64.198 26.872 64.498 26.776C64.81 26.68 65.086 26.536 65.326 26.344C65.578 26.152 65.782 25.912 65.938 25.624C66.106 25.336 66.208 25 66.244 24.616H67.63C67.582 25.12 67.444 25.594 67.216 26.038C67 26.47 66.712 26.842 66.352 27.154C65.992 27.466 65.572 27.712 65.092 27.892C64.612 28.072 64.09 28.162 63.526 28.162ZM71.2716 23.194V28H69.7776V18.586H71.2716V22.978L75.1776 18.586H76.9236L72.8916 23.014L77.2656 28H75.4476L71.2716 23.194ZM79.0589 28V18.586H80.5529V25.84L85.3589 18.586H86.8529V28H85.3589V20.746L80.5529 28H79.0589ZM91.5296 24.364C91.4696 24.916 91.3916 25.384 91.2956 25.768C91.1996 26.152 91.0736 26.476 90.9176 26.74H95.3276V19.81H91.8716C91.8596 20.122 91.8416 20.47 91.8176 20.854C91.7936 21.226 91.7636 21.616 91.7276 22.024C91.7036 22.432 91.6736 22.84 91.6376 23.248C91.6016 23.644 91.5656 24.016 91.5296 24.364ZM89.6576 30.286H88.4516V26.74H89.1176C89.3096 26.692 89.4596 26.596 89.5676 26.452C89.6876 26.296 89.7836 26.11 89.8556 25.894C89.9276 25.666 89.9876 25.414 90.0356 25.138C90.0836 24.862 90.1256 24.574 90.1616 24.274C90.2216 23.722 90.2756 23.116 90.3236 22.456C90.3836 21.796 90.4316 21.178 90.4676 20.602C90.5156 19.93 90.5516 19.258 90.5756 18.586H96.7856V26.74H98.2256V30.286H97.0196L96.9116 28H89.7656L89.6576 30.286ZM101.594 23.194V28H100.1V18.586H101.594V22.978L105.5 18.586H107.246L103.214 23.014L107.588 28H105.77L101.594 23.194ZM111.759 28.162C111.327 28.162 110.919 28.108 110.535 28C110.151 27.892 109.815 27.724 109.527 27.496C109.251 27.268 109.029 26.98 108.861 26.632C108.705 26.284 108.627 25.87 108.627 25.39C108.627 24.85 108.759 24.394 109.023 24.022C109.287 23.65 109.635 23.35 110.067 23.122C110.511 22.894 111.015 22.732 111.579 22.636C112.155 22.528 112.743 22.474 113.343 22.474H114.693V21.79C114.693 21.034 114.537 20.494 114.225 20.17C113.913 19.834 113.397 19.666 112.677 19.666C111.381 19.666 110.661 20.23 110.517 21.358H109.023C109.071 20.818 109.203 20.362 109.419 19.99C109.647 19.618 109.929 19.318 110.265 19.09C110.613 18.85 110.997 18.682 111.417 18.586C111.849 18.478 112.293 18.424 112.749 18.424C113.193 18.424 113.625 18.478 114.045 18.586C114.465 18.682 114.831 18.862 115.143 19.126C115.455 19.378 115.707 19.72 115.899 20.152C116.091 20.584 116.187 21.13 116.187 21.79V28H114.693V26.812C114.345 27.256 113.943 27.592 113.487 27.82C113.031 28.048 112.455 28.162 111.759 28.162ZM111.903 26.974C112.299 26.974 112.665 26.926 113.001 26.83C113.349 26.722 113.643 26.572 113.883 26.38C114.135 26.188 114.333 25.954 114.477 25.678C114.621 25.39 114.693 25.066 114.693 24.706V23.536H113.397C112.929 23.536 112.491 23.572 112.083 23.644C111.687 23.704 111.339 23.806 111.039 23.95C110.751 24.094 110.523 24.286 110.355 24.526C110.199 24.754 110.121 25.042 110.121 25.39C110.121 25.882 110.253 26.272 110.517 26.56C110.781 26.836 111.243 26.974 111.903 26.974Z" fill="white"></path> <path d="M129.93 26.39H123.558V25.544L129.246 16.13H132.252V24.608H133.98V26.39H132.252V29H129.93V26.39ZM129.966 24.608V17.948L126.114 24.608H129.966ZM140.886 27.272C141.882 27.272 142.62 26.9 143.1 26.156C143.58 25.412 143.82 24.308 143.82 22.844V22.214C143.82 20.834 143.568 19.76 143.064 18.992C142.56 18.212 141.822 17.822 140.85 17.822C139.878 17.822 139.134 18.2 138.618 18.956C138.102 19.7 137.844 20.792 137.844 22.232V22.88C137.844 24.344 138.108 25.442 138.636 26.174C139.164 26.906 139.914 27.272 140.886 27.272ZM140.832 29.18C140.016 29.18 139.272 29.036 138.6 28.748C137.94 28.448 137.376 28.028 136.908 27.488C136.44 26.948 136.074 26.294 135.81 25.526C135.558 24.746 135.432 23.87 135.432 22.898V22.25C135.432 21.278 135.558 20.402 135.81 19.622C136.074 18.842 136.44 18.182 136.908 17.642C137.388 17.09 137.958 16.67 138.618 16.382C139.278 16.094 140.016 15.95 140.832 15.95C141.648 15.95 142.386 16.094 143.046 16.382C143.706 16.67 144.27 17.084 144.738 17.624C145.206 18.164 145.566 18.818 145.818 19.586C146.082 20.354 146.214 21.224 146.214 22.196V22.844C146.214 23.816 146.088 24.692 145.836 25.472C145.596 26.252 145.242 26.918 144.774 27.47C144.318 28.01 143.754 28.43 143.082 28.73C142.422 29.03 141.672 29.18 140.832 29.18ZM150.807 20.792C151.227 20.792 151.557 20.648 151.797 20.36C152.049 20.072 152.175 19.658 152.175 19.118C152.175 18.59 152.049 18.182 151.797 17.894C151.557 17.594 151.227 17.444 150.807 17.444C150.387 17.444 150.051 17.588 149.799 17.876C149.547 18.164 149.421 18.578 149.421 19.118C149.421 19.67 149.547 20.09 149.799 20.378C150.051 20.654 150.387 20.792 150.807 20.792ZM150.789 22.25C150.345 22.25 149.931 22.172 149.547 22.016C149.175 21.86 148.845 21.644 148.557 21.368C148.281 21.08 148.059 20.75 147.891 20.378C147.735 19.994 147.657 19.58 147.657 19.136C147.657 18.692 147.741 18.278 147.909 17.894C148.077 17.51 148.299 17.18 148.575 16.904C148.863 16.616 149.199 16.394 149.583 16.238C149.967 16.082 150.375 16.004 150.807 16.004C151.239 16.004 151.641 16.082 152.013 16.238C152.397 16.394 152.727 16.61 153.003 16.886C153.291 17.15 153.513 17.474 153.669 17.858C153.837 18.242 153.921 18.656 153.921 19.1C153.921 19.556 153.837 19.976 153.669 20.36C153.513 20.744 153.291 21.08 153.003 21.368C152.727 21.644 152.397 21.86 152.013 22.016C151.641 22.172 151.233 22.25 150.789 22.25ZM157.719 16.13H159.231L150.951 29H149.421L157.719 16.13ZM157.863 27.722C158.283 27.722 158.613 27.578 158.853 27.29C159.105 27.002 159.231 26.588 159.231 26.048C159.231 25.52 159.105 25.112 158.853 24.824C158.613 24.524 158.283 24.374 157.863 24.374C157.443 24.374 157.107 24.518 156.855 24.806C156.603 25.094 156.477 25.508 156.477 26.048C156.477 26.6 156.603 27.02 156.855 27.308C157.107 27.584 157.443 27.722 157.863 27.722ZM157.845 29.18C157.401 29.18 156.987 29.102 156.603 28.946C156.231 28.79 155.901 28.574 155.613 28.298C155.337 28.01 155.121 27.68 154.965 27.308C154.809 26.924 154.731 26.51 154.731 26.066C154.731 25.622 154.809 25.208 154.965 24.824C155.133 24.44 155.361 24.11 155.649 23.834C155.937 23.546 156.267 23.324 156.639 23.168C157.023 23.012 157.431 22.934 157.863 22.934C158.295 22.934 158.697 23.012 159.069 23.168C159.453 23.324 159.789 23.54 160.077 23.816C160.365 24.08 160.587 24.404 160.743 24.788C160.911 25.172 160.995 25.586 160.995 26.03C160.995 26.486 160.911 26.906 160.743 27.29C160.587 27.674 160.365 28.01 160.077 28.298C159.801 28.574 159.471 28.79 159.087 28.946C158.703 29.102 158.289 29.18 157.845 29.18Z" fill="white"></path> </g> <defs> <clipPath id="clip0"> <rect width="114" height="28" fill="white" transform="translate(58 9)"></rect> </clipPath> </defs> </svg> 