<?xml version="1.0" encoding="UTF-8"?> <svg xmlns="http://www.w3.org/2000/svg" width="97" height="174" viewBox="0 0 97 174" fill="none"> <path d="M1.81008 0.00454527C1.26031 -0.048052 0.771986 0.35499 0.719389 0.904764C0.666792 1.45454 1.06983 1.94286 1.61961 1.99545L1.81008 0.00454527ZM61.376 172.641C61.4227 173.192 61.9067 173.6 62.457 173.553L71.4247 172.791C71.975 172.744 72.3832 172.26 72.3365 171.71C72.2897 171.16 71.8057 170.751 71.2554 170.798L63.2841 171.475L62.6067 163.504C62.56 162.954 62.076 162.546 61.5257 162.592C60.9754 162.639 60.5672 163.123 60.6139 163.674L61.376 172.641ZM6.47809 2.53341C7.02604 2.6025 7.52625 2.21432 7.59534 1.66637C7.66444 1.11843 7.27625 0.618217 6.7283 0.549123L6.47809 2.53341ZM16.3969 2.08005C15.8546 1.97588 15.3304 2.33111 15.2263 2.87348C15.1221 3.41586 15.4773 3.93998 16.0197 4.04415L16.3969 2.08005ZM25.4242 6.19484C25.9578 6.33743 26.5059 6.02049 26.6485 5.48693C26.7911 4.95337 26.4741 4.40524 25.9406 4.26265L25.4242 6.19484ZM35.2898 7.15504C34.7692 6.97072 34.1977 7.24335 34.0134 7.76397C33.8291 8.28459 34.1017 8.85606 34.6223 9.04038L35.2898 7.15504ZM43.57 12.6496C44.0725 12.8789 44.6657 12.6573 44.8949 12.1549C45.1241 11.6524 44.9026 11.0593 44.4002 10.83L43.57 12.6496ZM53.145 15.3327C52.6669 15.0562 52.0552 15.2196 51.7786 15.6976C51.5021 16.1757 51.6655 16.7874 52.1436 17.064L53.145 15.3327ZM60.2027 22.2978C60.6493 22.6227 61.2747 22.524 61.5996 22.0774C61.9245 21.6307 61.8258 21.0053 61.3792 20.6804L60.2027 22.2978ZM69.0027 26.8998C68.5952 26.5271 67.9627 26.5553 67.5899 26.9628C67.2172 27.3704 67.2454 28.0029 67.6529 28.3757L69.0027 26.8998ZM74.353 35.2633C74.714 35.6813 75.3455 35.7274 75.7634 35.3664C76.1814 35.0054 76.2275 34.3739 75.8665 33.956L74.353 35.2633ZM81.8399 41.7765C81.5318 41.3182 80.9105 41.1964 80.4521 41.5045C79.9938 41.8126 79.8719 42.4339 80.18 42.8922L81.8399 41.7765ZM85.0451 51.1739C85.2956 51.6662 85.8976 51.8622 86.3898 51.6118C86.8821 51.3614 87.0781 50.7593 86.8277 50.2671L85.0451 51.1739ZM90.7586 59.2909C90.5684 58.7723 89.9939 58.5062 89.4754 58.6964C88.9569 58.8866 88.6907 59.4611 88.8809 59.9796L90.7586 59.2909ZM91.6629 69.178C91.7924 69.7149 92.3326 70.0451 92.8695 69.9156C93.4064 69.7862 93.7367 69.2459 93.6072 68.7091L91.6629 69.178ZM95.3826 78.3844C95.3125 77.8366 94.8116 77.4493 94.2638 77.5194C93.716 77.5895 93.3287 78.0905 93.3988 78.6383L95.3826 78.3844ZM94.1214 88.2316C94.1348 88.7837 94.5932 89.2205 95.1453 89.2072C95.6974 89.1938 96.1342 88.7354 96.1209 88.1833L94.1214 88.2316ZM95.8768 98.0124C95.917 97.4615 95.503 96.9825 94.9522 96.9423C94.4014 96.9022 93.9223 97.3161 93.8821 97.867L95.8768 98.0124ZM92.743 107.427C92.6532 107.972 93.0221 108.486 93.567 108.576C94.1119 108.666 94.6265 108.297 94.7164 107.752L92.743 107.427ZM92.7027 117.365C92.8386 116.83 92.5148 116.286 91.9795 116.15C91.4442 116.014 90.9001 116.338 90.7642 116.873L92.7027 117.365ZM88.0141 126.119C87.8358 126.642 88.115 127.21 88.6377 127.389C89.1605 127.567 89.7287 127.288 89.907 126.765L88.0141 126.119ZM86.393 135.911C86.6103 135.403 86.3747 134.816 85.8669 134.598C85.3591 134.381 84.7714 134.617 84.5542 135.125L86.393 135.911ZM80.4354 143.866C80.1825 144.357 80.3754 144.96 80.8663 145.213C81.3573 145.466 81.9603 145.273 82.2133 144.782L80.4354 143.866ZM77.4237 153.343C77.7095 152.871 77.558 152.256 77.0854 151.97C76.6128 151.684 75.998 151.836 75.7122 152.308L77.4237 153.343ZM70.4513 160.401C70.1355 160.854 70.2469 161.477 70.7001 161.793C71.1532 162.109 71.7765 161.998 72.0922 161.544L70.4513 160.401ZM66.25 169.395C66.5932 168.963 66.5206 168.334 66.0878 167.99C65.6551 167.647 65.0261 167.72 64.683 168.153L66.25 169.395ZM1.61961 1.99545C3.26149 2.15253 4.88097 2.33202 6.47809 2.53341L6.7283 0.549123C5.11102 0.345188 3.47162 0.163506 1.81008 0.00454527L1.61961 1.99545ZM16.0197 4.04415C19.2575 4.66601 22.3922 5.38454 25.4242 6.19484L25.9406 4.26265C22.8613 3.43972 19.6801 2.71064 16.3969 2.08005L16.0197 4.04415ZM34.6223 9.04038C37.729 10.1402 40.7114 11.3455 43.57 12.6496L44.4002 10.83C41.4869 9.50101 38.4502 8.27393 35.2898 7.15504L34.6223 9.04038ZM52.1436 17.064C54.9755 18.7021 57.6616 20.4495 60.2027 22.2978L61.3792 20.6804C58.7808 18.7904 56.0361 17.0051 53.145 15.3327L52.1436 17.064ZM67.6529 28.3757C70.0508 30.5687 72.2839 32.868 74.353 35.2633L75.8665 33.956C73.7458 31.5009 71.4581 29.1455 69.0027 26.8998L67.6529 28.3757ZM80.18 42.8922C81.9758 45.5639 83.5973 48.3281 85.0451 51.1739L86.8277 50.2671C85.3435 47.3497 83.6811 44.5157 81.8399 41.7765L80.18 42.8922ZM88.8809 59.9796C89.9808 62.9783 90.908 66.0481 91.6629 69.178L93.6072 68.7091C92.8346 65.506 91.8854 62.3628 90.7586 59.2909L88.8809 59.9796ZM93.3988 78.6383C93.8025 81.7925 94.0432 84.9937 94.1214 88.2316L96.1209 88.1833C96.041 84.8782 95.7952 81.6083 95.3826 78.3844L93.3988 78.6383ZM93.8821 97.867C93.6514 101.032 93.2716 104.222 92.743 107.427L94.7164 107.752C95.2546 104.489 95.6416 101.239 95.8768 98.0124L93.8821 97.867ZM90.7642 116.873C89.9824 119.952 89.0656 123.037 88.0141 126.119L89.907 126.765C90.9755 123.633 91.9076 120.497 92.7027 117.365L90.7642 116.873ZM84.5542 135.125C83.303 138.05 81.9299 140.966 80.4354 143.866L82.2133 144.782C83.7294 141.84 85.1228 138.881 86.393 135.911L84.5542 135.125ZM75.7122 152.308C74.0678 155.028 72.314 157.728 70.4513 160.401L72.0922 161.544C73.9793 158.836 75.7566 156.1 77.4237 153.343L75.7122 152.308ZM64.683 168.153C63.6832 169.413 62.6581 170.667 61.6079 171.912L63.1368 173.201C64.1999 171.941 65.2377 170.672 66.25 169.395L64.683 168.153Z" fill="#3382FF"></path> </svg> 