<?xml version="1.0" encoding="UTF-8"?> <svg xmlns="http://www.w3.org/2000/svg" width="119" height="156" viewBox="0 0 119 156" fill="none"> <path d="M1.34177 2.60342C0.796445 2.6908 0.425211 3.20372 0.512597 3.74905C0.599984 4.29438 1.1129 4.66561 1.65823 4.57822L1.34177 2.60342ZM102.418 154.706C102.602 155.226 103.173 155.5 103.694 155.316L112.181 152.323C112.702 152.139 112.976 151.568 112.792 151.047C112.608 150.526 112.037 150.253 111.516 150.437L103.972 153.097L101.311 145.553C101.127 145.032 100.556 144.759 100.035 144.942C99.5145 145.126 99.2412 145.697 99.4249 146.218L102.418 154.706ZM6.49581 3.87675C7.04352 3.80579 7.43 3.30427 7.35904 2.75656C7.28808 2.20885 6.78655 1.82237 6.23884 1.89333L6.49581 3.87675ZM15.9817 0.942942C15.4305 0.978553 15.0126 1.4542 15.0482 2.00534C15.0838 2.55648 15.5595 2.97439 16.1106 2.93878L15.9817 0.942942ZM25.7537 2.65466C26.306 2.65845 26.7568 2.21383 26.7606 1.66155C26.7644 1.10928 26.3198 0.658501 25.7675 0.654708L25.7537 2.65466ZM35.5437 1.10235C34.9934 1.05492 34.5089 1.46253 34.4615 2.01277C34.414 2.56302 34.8217 3.04753 35.3719 3.09496L35.5437 1.10235ZM44.9398 4.33741C45.4837 4.43287 46.0021 4.06928 46.0976 3.52531C46.193 2.98134 45.8295 2.46297 45.2855 2.36751L44.9398 4.33741ZM54.8817 4.52572C54.3495 4.37833 53.7985 4.69034 53.6511 5.22259C53.5038 5.75485 53.8158 6.30581 54.348 6.45319L54.8817 4.52572ZM63.4646 9.49152C63.9785 9.6936 64.559 9.44075 64.7611 8.92677C64.9632 8.41278 64.7104 7.8323 64.1964 7.63021L63.4646 9.49152ZM73.1393 11.7319C72.6511 11.4737 72.046 11.6601 71.7877 12.1483C71.5295 12.6365 71.7159 13.2416 72.2041 13.4999L73.1393 11.7319ZM80.4212 18.4807C80.8758 18.7944 81.4986 18.6802 81.8123 18.2257C82.126 17.7711 82.0118 17.1483 81.5572 16.8346L80.4212 18.4807ZM89.3058 22.9012C88.8923 22.535 88.2603 22.5735 87.8942 22.9869C87.5281 23.4004 87.5665 24.0324 87.98 24.3986L89.3058 22.9012ZM94.7718 31.1902C95.138 31.6036 95.77 31.6419 96.1835 31.2757C96.5969 30.9095 96.6352 30.2775 96.269 29.864L94.7718 31.1902ZM102.343 37.6089C102.029 37.1549 101.406 37.0418 100.952 37.3563C100.498 37.6708 100.385 38.2938 100.699 38.7478L102.343 37.6089ZM105.706 46.9506C105.966 47.4377 106.572 47.6214 107.059 47.3611C107.546 47.1007 107.73 46.4948 107.469 46.0077L105.706 46.9506ZM111.622 54.9253C111.416 54.4128 110.834 54.164 110.321 54.3696C109.809 54.5753 109.56 55.1575 109.765 55.6701L111.622 54.9253ZM112.878 64.7732C113.03 65.3042 113.583 65.6116 114.114 65.4598C114.645 65.308 114.953 64.7545 114.801 64.2235L112.878 64.7732ZM117.037 73.7979C116.938 73.2547 116.416 72.8951 115.873 72.9948C115.33 73.0945 114.97 73.6157 115.07 74.1589L117.037 73.7979ZM116.372 83.698C116.422 84.248 116.909 84.6533 117.459 84.6032C118.009 84.5531 118.414 84.0666 118.364 83.5166L116.372 83.698ZM118.833 93.3269C118.83 92.7746 118.38 92.3294 117.828 92.3325C117.275 92.3356 116.83 92.7858 116.833 93.3381L118.833 93.3269ZM116.497 102.979C116.456 103.53 116.87 104.009 117.42 104.051C117.971 104.092 118.451 103.678 118.492 103.128L116.497 102.979ZM117.392 112.864C117.474 112.318 117.098 111.808 116.552 111.726C116.006 111.643 115.497 112.019 115.414 112.565L117.392 112.864ZM113.627 122.062C113.505 122.6 113.844 123.136 114.383 123.257C114.921 123.378 115.456 123.04 115.578 122.501L113.627 122.062ZM113.096 131.991C113.253 131.462 112.952 130.905 112.423 130.748C111.894 130.59 111.337 130.891 111.179 131.42L113.096 131.991ZM108.123 140.576C107.931 141.094 108.196 141.669 108.714 141.861C109.232 142.053 109.807 141.788 109.999 141.27L108.123 140.576ZM106.319 150.338C106.542 149.833 106.314 149.242 105.809 149.019C105.304 148.796 104.713 149.024 104.49 149.529L106.319 150.338ZM1.65823 4.57822C3.28683 4.31725 4.89938 4.08358 6.49581 3.87675L6.23884 1.89333C4.62226 2.10277 2.98987 2.33932 1.34177 2.60342L1.65823 4.57822ZM16.1106 2.93878C19.4007 2.7262 22.6154 2.6331 25.7537 2.65466L25.7675 0.654708C22.5802 0.632813 19.3179 0.727377 15.9817 0.942942L16.1106 2.93878ZM35.3719 3.09496C38.6554 3.37799 41.845 3.79429 44.9398 4.33741L45.2855 2.36751C42.1316 1.81403 38.8839 1.39027 35.5437 1.10235L35.3719 3.09496ZM54.348 6.45319C57.501 7.32624 60.5403 8.34178 63.4646 9.49152L64.1964 7.63021C61.2061 6.45452 58.1006 5.41702 54.8817 4.52572L54.348 6.45319ZM72.2041 13.4999C75.0765 15.0192 77.8161 16.6828 80.4212 18.4807L81.5572 16.8346C78.8872 14.992 76.0805 13.2878 73.1393 11.7319L72.2041 13.4999ZM87.98 24.3986C90.3901 26.5325 92.6547 28.8 94.7718 31.1902L96.269 29.864C94.0987 27.4138 91.7769 25.0891 89.3058 22.9012L87.98 24.3986ZM100.699 38.7478C102.518 41.3734 104.188 44.1112 105.706 46.9506L107.469 46.0077C105.916 43.102 104.207 40.2986 102.343 37.6089L100.699 38.7478ZM109.765 55.6701C110.95 58.6214 111.988 61.6591 112.878 64.7732L114.801 64.2235C113.892 61.0447 112.832 57.9418 111.622 54.9253L109.765 55.6701ZM115.07 74.1589C115.643 77.2803 116.078 80.463 116.372 83.698L118.364 83.5166C118.064 80.2226 117.621 76.98 117.037 73.7979L115.07 74.1589ZM116.833 93.3381C116.851 96.5146 116.74 99.7308 116.497 102.979L118.492 103.128C118.738 99.8272 118.851 96.5577 118.833 93.3269L116.833 93.3381ZM115.414 112.565C114.939 115.711 114.344 118.878 113.627 122.062L115.578 122.501C116.305 119.272 116.909 116.057 117.392 112.864L115.414 112.565ZM111.179 131.42C110.271 134.466 109.253 137.52 108.123 140.576L109.999 141.27C111.144 138.174 112.176 135.079 113.096 131.991L111.179 131.42ZM104.49 149.529C103.839 151.001 103.162 152.472 102.459 153.941L104.263 154.805C104.975 153.317 105.66 151.828 106.319 150.338L104.49 149.529Z" fill="#3382FF"></path> </svg> 