<?xml version="1.0" encoding="UTF-8"?> <svg xmlns="http://www.w3.org/2000/svg" width="170" height="171" viewBox="0 0 170 171" fill="none"> <path d="M146.562 3.65099C147.112 3.60773 147.524 3.12632 147.48 2.57573C147.437 2.02514 146.956 1.61387 146.405 1.65714L146.562 3.65099ZM30.9113 169.16C31.4023 169.413 32.0053 169.22 32.2583 168.729L36.3811 160.729C36.6341 160.238 36.4412 159.635 35.9503 159.382C35.4593 159.129 34.8563 159.322 34.6033 159.813L30.9386 166.924L23.8273 163.259C23.3364 163.006 22.7333 163.199 22.4803 163.69C22.2273 164.181 22.4202 164.784 22.9112 165.037L30.9113 169.16ZM30.8753 163.211C30.7221 162.68 30.1677 162.374 29.6371 162.528C29.1065 162.681 28.8006 163.235 28.9538 163.766L30.8753 163.211ZM26.434 154.017C26.5571 154.555 27.0933 154.892 27.6317 154.769C28.1701 154.646 28.5068 154.109 28.3837 153.571L26.434 154.017ZM26.4389 143.792C26.3467 143.248 25.8306 142.881 25.2861 142.973C24.7415 143.065 24.3748 143.582 24.4669 144.126L26.4389 143.792ZM23.0785 134.153C23.1383 134.702 23.6319 135.098 24.1809 135.038C24.73 134.978 25.1266 134.485 25.0667 133.936L23.0785 134.153ZM24.2943 124.008C24.2689 123.456 23.801 123.029 23.2493 123.055C22.6976 123.08 22.271 123.548 22.2965 124.1L24.2943 124.008ZM22.1647 114.019C22.1532 114.571 22.5916 115.028 23.1437 115.039C23.6959 115.051 24.1528 114.612 24.1643 114.06L22.1647 114.019ZM24.7247 104.131C24.776 103.581 24.3718 103.094 23.8219 103.043C23.272 102.991 22.7846 103.395 22.7333 103.945L24.7247 104.131ZM24.0585 93.9393C23.9643 94.4835 24.3291 95.001 24.8733 95.0952C25.4175 95.1894 25.935 94.8247 26.0292 94.2805L24.0585 93.9393ZM28.1326 84.576C28.2727 84.0418 27.9533 83.4951 27.4191 83.3549C26.8849 83.2148 26.3382 83.5342 26.1981 84.0684L28.1326 84.576ZM29.2041 74.421C29.0154 74.94 29.2833 75.5138 29.8023 75.7024C30.3214 75.8911 30.8951 75.6232 31.0838 75.1041L29.2041 74.421ZM34.9197 65.9606C35.1584 65.4625 34.948 64.8653 34.45 64.6266C33.9519 64.388 33.3547 64.5983 33.1161 65.0964L34.9197 65.9606ZM37.9457 56.2129C37.6572 56.6838 37.805 57.2994 38.2759 57.588C38.7468 57.8766 39.3625 57.7287 39.651 57.2578L37.9457 56.2129ZM45.2685 49.09C45.6051 48.6521 45.523 48.0243 45.0852 47.6877C44.6473 47.3511 44.0195 47.4332 43.6829 47.871L45.2685 49.09ZM50.2538 40.1969C49.8731 40.597 49.8888 41.23 50.2889 41.6107C50.689 41.9914 51.322 41.9757 51.7027 41.5756L50.2538 40.1969ZM58.9031 34.7504C59.3227 34.3913 59.3718 33.7601 59.0127 33.3404C58.6536 32.9208 58.0223 32.8718 57.6027 33.2308L58.9031 34.7504ZM65.592 27.0447C65.1397 27.3615 65.0298 27.9851 65.3466 28.4374C65.6635 28.8898 66.287 28.9996 66.7394 28.6828L65.592 27.0447ZM75.1023 23.3748C75.5812 23.0998 75.7464 22.4885 75.4713 22.0096C75.1963 21.5307 74.585 21.3655 74.1061 21.6406L75.1023 23.3748ZM83.0597 16.9819C82.5599 17.2169 82.3452 17.8125 82.5802 18.3123C82.8152 18.8121 83.4109 19.0268 83.9107 18.7918L83.0597 16.9819ZM93.0649 14.9011C93.5807 14.7037 93.8387 14.1255 93.6413 13.6097C93.4438 13.0939 92.8656 12.8359 92.3499 13.0333L93.0649 14.9011ZM101.887 9.74654C101.359 9.90943 101.064 10.4693 101.227 10.997C101.39 11.5247 101.949 11.8205 102.477 11.6576L101.887 9.74654ZM112.075 9.00884C112.611 8.87741 112.94 8.33601 112.808 7.79959C112.677 7.26318 112.136 6.93487 111.599 7.0663L112.075 9.00884ZM121.431 4.93552C120.888 5.0385 120.532 5.56185 120.635 6.10445C120.738 6.64705 121.261 7.00343 121.804 6.90045L121.431 4.93552ZM131.624 5.27961C132.171 5.20229 132.552 4.69631 132.474 4.14946C132.397 3.60262 131.891 3.22199 131.344 3.29931L131.624 5.27961ZM141.316 2.10731C140.767 2.16147 140.365 2.65094 140.419 3.20056C140.474 3.75018 140.963 4.15183 141.513 4.09767L141.316 2.10731ZM32.3219 167.966C31.822 166.403 31.3392 164.818 30.8753 163.211L28.9538 163.766C29.423 165.391 29.9113 166.995 30.4169 168.576L32.3219 167.966ZM28.3837 153.571C27.6513 150.367 26.9992 147.103 26.4389 143.792L24.4669 144.126C25.0337 147.475 25.6933 150.777 26.434 154.017L28.3837 153.571ZM25.0667 133.936C24.7089 130.652 24.4479 127.338 24.2943 124.008L22.2965 124.1C22.4521 127.474 22.7163 130.829 23.0785 134.153L25.0667 133.936ZM24.1643 114.06C24.233 110.75 24.4165 107.436 24.7247 104.131L22.7333 103.945C22.4204 107.3 22.2344 110.662 22.1647 114.019L24.1643 114.06ZM26.0292 94.2805C26.5936 91.0203 27.2915 87.7814 28.1326 84.576L26.1981 84.0684C25.342 87.331 24.6322 90.6255 24.0585 93.9393L26.0292 94.2805ZM31.0838 75.1041C32.2092 72.0076 33.4846 68.9558 34.9197 65.9606L33.1161 65.0964C31.6517 68.1526 30.3511 71.265 29.2041 74.421L31.0838 75.1041ZM39.651 57.2578C41.3608 54.4676 43.2303 51.7414 45.2685 49.09L43.6829 47.871C41.601 50.5793 39.6916 53.3637 37.9457 56.2129L39.651 57.2578ZM51.7027 41.5756C53.9421 39.2221 56.3397 36.944 58.9031 34.7504L57.6027 33.2308C54.9876 35.4687 52.5404 37.7938 50.2538 40.1969L51.7027 41.5756ZM66.7394 28.6828C69.38 26.8333 72.1656 25.0616 75.1023 23.3748L74.1061 21.6406C71.1186 23.3566 68.2824 25.1603 65.592 27.0447L66.7394 28.6828ZM83.9107 18.7918C86.8323 17.4181 89.8822 16.1195 93.0649 14.9011L92.3499 13.0333C89.1224 14.2688 86.0271 15.5867 83.0597 16.9819L83.9107 18.7918ZM102.477 11.6576C105.565 10.7045 108.763 9.82028 112.075 9.00884L111.599 7.0663C108.25 7.88683 105.014 8.78148 101.887 9.74654L102.477 11.6576ZM121.804 6.90045C124.982 6.29723 128.255 5.75601 131.624 5.27961L131.344 3.29931C127.945 3.77997 124.641 4.32628 121.431 4.93552L121.804 6.90045ZM141.513 4.09767C143.174 3.93394 144.857 3.78495 146.562 3.65099L146.405 1.65714C144.687 1.79211 142.991 1.94226 141.316 2.10731L141.513 4.09767Z" fill="#3382FF"></path> </svg> 