<svg width="20" height="20" viewBox="0 0 20 20" xmlns="http://www.w3.org/2000/svg"><g id="phone_outline_20__Icons" stroke="none" stroke-width="1" fill="none" fill-rule="evenodd"><g id="phone_outline_20__Icons-20/phone_outline_20"><g id="phone_outline_20__phone_outline_20"><path opacity=".1" d="M0 0h20v20H0z"></path><path d="m7.78 2.7.7.83a4.13 4.13 0 0 1-.3 5.58l-.3.3c.23.38.64.88 1.23 1.48.53.53.99.9 1.35 1.14l.13.09.3-.3a4.14 4.14 0 0 1 5.58-.3l.83.7a3.45 3.45 0 0 1 .34 4.9c-.6.69-1.43 1.15-2.29 1.28l-.5.06c-3 .3-6.04-1.16-9.1-4.21-3.05-3.06-4.5-6.1-4.22-9.03l.06-.51a3.83 3.83 0 0 1 1.3-2.36l.17-.13a3.44 3.44 0 0 1 4.72.48Zm-3.91.79a2.38 2.38 0 0 0-.81 1.58c-.35 2.55.9 5.25 3.76 8.12 2.86 2.86 5.56 4.1 8.12 3.75.6-.05 1.17-.35 1.57-.8.72-.85.64-2.09-.18-2.77l-.83-.7-.14-.12a2.64 2.64 0 0 0-3.41.33l-.6.6-.09.07a.9.9 0 0 1-.86.14 7.26 7.26 0 0 1-2.35-1.74A7.23 7.23 0 0 1 6.31 9.6a.9.9 0 0 1 .21-.95l.6-.6.13-.13c.86-1 .9-2.44.08-3.42l-.7-.83-.11-.13c-.7-.7-1.85-.73-2.65-.05Z" id="phone_outline_20__Icon-Color" fill="currentColor" fill-rule="nonzero"></path></g></g></g></svg>
