<svg xmlns="http://www.w3.org/2000/svg" width="20" height="20" fill="none" viewBox="0 0 20 20"><path fill="currentColor" fill-rule="evenodd" d="M7.2 1.5a.85.85 0 0 1 .9.8l.25 3.8a.85.85 0 0 1-1.7.1L6.4 2.4a.85.85 0 0 1 .8-.9Zm5.89.18a.85.85 0 0 1 .58 1.06l-1.35 4.65a.85.85 0 0 1-1.64-.48l1.35-4.65a.85.85 0 0 1 1.06-.58Zm.59 7.08a.75.75 0 0 1 1.05-.08 5.14 5.14 0 0 1 1.77 4.07c0 2.68-2.3 5.75-6.5 5.75-3.12 0-6.5-2.22-6.5-5.75 0-.68.21-1.59.77-2.35C4.85 9.6 5.8 9 7.14 9c.39 0 1.9.13 2.79 1.91a.75.75 0 1 1-1.35.68c-.53-1.08-1.35-1.09-1.44-1.09-.83 0-1.34.35-1.66.79A2.62 2.62 0 0 0 5 12.75C5 15.18 7.4 17 10 17c3.36 0 5-2.4 5-4.25 0-.95-.22-2.06-1.24-2.93a.75.75 0 0 1-.08-1.06Z" clip-rule="evenodd"></path></svg>
