<svg fill="none" height="20" viewBox="0 0 20 20" width="20" xmlns="http://www.w3.org/2000/svg"><path clip-rule="evenodd" d="M17.2 6.78a2 2 0 0 1 .24.58c.06.23.06.48.06.97v2.97c0 2.52 0 3.78-.49 4.74a4.5 4.5 0 0 1-1.97 1.97c-.96.49-2.22.49-4.74.49h-.6c-2.52 0-3.78 0-4.74-.49a4.5 4.5 0 0 1-1.97-1.97c-.49-.96-.49-2.22-.49-4.74V8.7c0-2.52 0-3.78.49-4.74a4.5 4.5 0 0 1 1.97-1.97c.96-.49 2.22-.49 4.74-.49h.97c.5 0 .74 0 .97.06.2.04.4.13.58.23.2.13.37.3.72.65l3.62 3.62c.35.35.52.52.65.72zM10.3 17h-.6c-1.28 0-2.16 0-2.83-.06-.66-.05-1-.15-1.23-.27a3 3 0 0 1-1.31-1.3 3.24 3.24 0 0 1-.27-1.24C4 13.46 4 12.58 4 11.3V8.7c0-1.28 0-2.16.06-2.83.05-.66.15-1 .27-1.23a3 3 0 0 1 1.3-1.31c.24-.12.58-.22 1.24-.27C7.54 3 8.42 3 9.7 3h.3v1.28c0 .67 0 1.23.04 1.67.03.47.12.88.31 1.28.32.6.81 1.1 1.42 1.42.4.2.81.28 1.28.31.44.04 1 .04 1.67.04H16v2.3c0 1.28 0 2.16-.06 2.83-.05.66-.15 1-.27 1.23a3 3 0 0 1-1.3 1.31c-.24.12-.58.22-1.24.27-.67.06-1.55.06-2.83.06zm5.57-9.5h-1.12c-.71 0-1.2 0-1.58-.03a1.88 1.88 0 0 1-.71-.16c-.33-.17-.6-.44-.77-.77a1.88 1.88 0 0 1-.16-.7 21.6 21.6 0 0 1-.03-1.59V3.13l.01.01.37.36 3.62 3.62.36.37.01.01z" fill="currentColor" fill-rule="evenodd"></path></svg>
