<svg fill="none" height="20" viewBox="0 0 20 20" width="20" xmlns="http://www.w3.org/2000/svg"><path clip-rule="evenodd" d="M11.5 4h-3c-2.32 0-4.25.43-5.58 1.76S1.02 9.15 1 12c0 .8.05 1.99.46 3 .2.5.5 1.01.98 1.4.48.39 1.09.61 1.81.61.8 0 1.37-.33 1.81-.77.31-.31.58-.72.8-1.07l.17-.24c.28-.42.55-.76.91-1 .35-.24.82-.42 1.56-.42h1c.74 0 1.21.18 1.56.42.36.24.63.58.91 1l.16.24c.23.35.5.76.8 1.07.45.44 1.02.77 1.82.77a2.8 2.8 0 0 0 1.81-.61c.47-.39.78-.9.98-1.4.4-1.01.47-2.2.46-3-.02-2.84-.6-4.9-1.92-6.23C15.75 4.43 13.82 4 11.5 4zm-1 8h-1c-1.01 0-1.79.26-2.4.68-.6.4-1 .94-1.31 1.4l-.23.34c-.21.32-.37.56-.57.76a.95.95 0 0 1-.74.32c-.4 0-.67-.12-.87-.28a1.9 1.9 0 0 1-.53-.79 6.82 6.82 0 0 1-.35-2.42c.02-2.71.57-4.28 1.48-5.19.91-.9 2.34-1.32 4.52-1.32h3c2.18 0 3.61.42 4.52 1.32.9.91 1.46 2.48 1.48 5.19 0 .75-.06 1.7-.35 2.42a1.9 1.9 0 0 1-.53.8c-.2.15-.47.27-.87.27a.95.95 0 0 1-.74-.32c-.2-.2-.36-.44-.57-.76l-.23-.34c-.3-.46-.7-1-1.3-1.4A4.13 4.13 0 0 0 10.5 12zM7.25 7.5a.75.75 0 0 0-1.5 0v.75H5a.75.75 0 0 0 0 1.5h.75v.75a.75.75 0 0 0 1.5 0v-.75H8a.75.75 0 0 0 0-1.5h-.75zm5.25.75a.75.75 0 0 0 0 1.5h2a.75.75 0 0 0 0-1.5z" fill="currentColor" fill-rule="evenodd"></path></svg>
