<svg fill="none" height="20" viewBox="0 0 20 20" width="20" xmlns="http://www.w3.org/2000/svg"><path clip-rule="evenodd" d="M4.25 8.75a5.75 5.75 0 0 1 8.4-5.1.75.75 0 1 0 .7-1.33 7.25 7.25 0 0 0-10.6 6.43c0 2.06.94 3.48 1.92 4.54.34.38.71.73 1.04 1.04l.33.31c.37.37.61.64.75.87l.1.48c.06.33.11.6.18.84.07.24.16.48.31.7.24.35.57.62.95.78.25.11.5.15.76.17.24.02.52.02.85.02h.12c.33 0 .61 0 .85-.02.26-.02.51-.06.76-.17.38-.16.7-.43.95-.77.15-.23.24-.47.31-.71.07-.23.12-.51.19-.84l.1-.48c.09-.17.25-.36.48-.6.18-.19.38-.37.6-.58l.34-.33a9.08 9.08 0 0 0 2.05-2.69.75.75 0 1 0-1.36-.62 7.63 7.63 0 0 1-1.73 2.23l-.3.3c-.24.21-.48.44-.68.65-.19.2-.38.4-.54.63h-1.33v-1.64l.97-.77a.75.75 0 0 0-.94-1.18l-.78.63-.78-.63a.75.75 0 0 0-.94 1.18l.97.77v1.64H7.92a7.15 7.15 0 0 0-.84-.93l-.37-.36c-.32-.3-.63-.6-.94-.93-.84-.92-1.52-2-1.52-3.53zm4.26 7.67a6.68 6.68 0 0 1-.1-.42h3.17c-.03.18-.06.31-.1.42a.83.83 0 0 1-.1.26.75.75 0 0 1-.3.26.82.82 0 0 1-.28.05l-.77.01h-.06l-.77-.01a.82.82 0 0 1-.27-.05.75.75 0 0 1-.32-.26.82.82 0 0 1-.1-.26zm6.63-13.16a.38.38 0 0 1 .72 0l.4 1.18c.12.38.42.68.8.8l1.18.4c.35.11.35.6 0 .72l-1.18.4c-.38.12-.68.42-.8.8l-.4 1.18a.38.38 0 0 1-.72 0l-.4-1.18a1.28 1.28 0 0 0-.8-.8l-1.18-.4a.38.38 0 0 1 0-.72l1.18-.4c.38-.12.68-.42.8-.8z" fill="currentColor" fill-rule="evenodd"></path></svg>
