<svg xmlns="http://www.w3.org/2000/svg" width="20" height="20" fill="currentColor" viewBox="0 0 20 20"><path d="M10 1.5a8.5 8.5 0 1 1 0 17 8.5 8.5 0 0 1 0-17ZM10 3a7 7 0 1 0 0 14 7 7 0 0 0 0-14Zm3.07 9.06c.3.28.3.76.02 1.06a4.06 4.06 0 0 1-.85.65 4.36 4.36 0 0 1-2.24.63 4.36 4.36 0 0 1-2.24-.63 4.06 4.06 0 0 1-.85-.65.75.75 0 0 1 1-1.11l.2.18a3.16 3.16 0 0 0 1.89.71 2.88 2.88 0 0 0 1.9-.71l.1-.1a.75.75 0 0 1 1.07-.03ZM7.62 7.25a1.13 1.13 0 1 1 0 2.25 1.13 1.13 0 0 1 0-2.25Zm4.75 0a1.13 1.13 0 1 1 0 2.25 1.13 1.13 0 0 1 0-2.25Z"></path></svg>
