<svg xmlns="http://www.w3.org/2000/svg" width="24" height="24" fill="none" viewBox="0 0 24 24"><path fill="currentColor" fill-rule="evenodd" d="M12 7a.9.9 0 0 1 .9.9v3.2h3.2a.9.9 0 0 1 .9.9.9.9 0 0 1-.9.9h-3.2v3.2a.9.9 0 0 1-.9.9.9.9 0 0 1-.9-.9v-3.2H7.9A.9.9 0 0 1 7 12a.9.9 0 0 1 .9-.9h3.2V7.9A.9.9 0 0 1 12 7ZM9.46 3h5.08c.95 0 1.71 0 2.33.05.64.05 1.2.16 1.73.43a4.4 4.4 0 0 1 1.92 1.92c.27.52.38 1.09.43 1.73.05.62.05 1.38.05 2.33v5.08c0 .95 0 1.71-.05 2.33-.05.64-.16 1.2-.43 1.73a4.4 4.4 0 0 1-1.92 1.92 4.5 4.5 0 0 1-1.73.43c-.62.05-1.38.05-2.33.05H9.46c-.95 0-1.71 0-2.33-.05a4.5 4.5 0 0 1-1.73-.43 4.4 4.4 0 0 1-1.92-1.92 4.5 4.5 0 0 1-.43-1.73C3 16.25 3 15.5 3 14.54V9.46c0-.95 0-1.71.05-2.33.05-.64.16-1.2.43-1.73A4.4 4.4 0 0 1 5.4 3.48a4.51 4.51 0 0 1 1.73-.43C7.75 3 8.5 3 9.46 3ZM7.27 4.84c-.52.05-.82.13-1.05.24a2.6 2.6 0 0 0-1.14 1.14c-.11.23-.2.53-.24 1.05-.04.54-.04 1.24-.04 2.23v5c0 1 0 1.69.04 2.23.05.52.13.82.24 1.05a2.6 2.6 0 0 0 1.14 1.14c.23.11.53.2 1.05.24.54.04 1.24.04 2.23.04h5c1 0 1.69 0 2.23-.04.52-.05.82-.13 1.05-.24a2.6 2.6 0 0 0 1.14-1.14c.11-.23.2-.53.24-1.05.04-.54.04-1.24.04-2.23v-5c0-1 0-1.69-.04-2.23a2.77 2.77 0 0 0-.24-1.05 2.6 2.6 0 0 0-1.14-1.14c-.23-.11-.53-.2-1.05-.24-.54-.04-1.24-.04-2.23-.04h-5c-1 0-1.69 0-2.23.04Z" clip-rule="evenodd"></path></svg>
