<svg xmlns="http://www.w3.org/2000/svg" width="20" height="20" fill="none" viewBox="0 0 20 20"><path fill="currentColor" fill-rule="evenodd" d="M9.32 1.5h1.36c.96 0 1.72 0 2.33.05.63.05 1.17.16 1.67.41a4.25 4.25 0 0 1 1.86 1.86c.25.5.36 1.04.41 1.67.05.61.05 1.38.05 2.33v6.57c0 .77 0 1.4-.04 1.9-.05.48-.14.98-.46 1.37a2.25 2.25 0 0 1-1.77.84c-.5 0-.94-.25-1.34-.52-.41-.27-.9-.68-1.5-1.17l-.85-.69c-.27-.22-.45-.37-.6-.47a.82.82 0 0 0-.24-.13.75.75 0 0 0-.4 0 .82.82 0 0 0-.24.13c-.15.1-.33.25-.6.47l-.85.7c-.6.48-1.09.89-1.5 1.16-.4.27-.84.51-1.34.52a2.25 2.25 0 0 1-1.77-.84c-.32-.4-.41-.89-.46-1.37-.04-.5-.04-1.13-.04-1.9V7.82c0-.96 0-1.72.05-2.33.05-.63.16-1.17.41-1.67a4.25 4.25 0 0 1 1.86-1.86c.5-.25 1.04-.36 1.67-.41.61-.05 1.38-.05 2.33-.05Zm-2.2 1.55c-.54.04-.87.12-1.12.25a2.75 2.75 0 0 0-1.2 1.2c-.13.25-.21.58-.25 1.11-.05.55-.05 1.25-.05 2.24v6.5c0 .82 0 1.39.04 1.8.04.43.1.54.13.57a.75.75 0 0 0 .59.28c.03 0 .16-.02.51-.26.35-.23.79-.6 1.42-1.11l.84-.68c.25-.21.47-.4.67-.53.2-.15.43-.27.7-.35a2.25 2.25 0 0 1 1.2 0c.27.08.5.2.7.35.2.14.42.32.67.53l.84.68c.63.52 1.07.88 1.42 1.1.35.25.48.27.51.27a.75.75 0 0 0 .6-.28c.01-.03.08-.14.12-.57.04-.41.04-.98.04-1.8v-6.5c0-1 0-1.7-.05-2.24a2.91 2.91 0 0 0-.25-1.1A2.75 2.75 0 0 0 14 3.3a2.91 2.91 0 0 0-1.11-.25C12.34 3 11.64 3 10.65 3h-1.3c-1 0-1.7 0-2.24.05Z" clip-rule="evenodd"></path></svg>
