<svg width="20" height="20" viewBox="0 0 20 20" fill="none" xmlns="http://www.w3.org/2000/svg"><path d="M17.25 14.5c.42 0 .75.34.75.75v.1a.75.75 0 0 1-.75.65H4.75a.75.75 0 1 1 0-1.5h12.5Zm0-5a.75.75 0 1 1 0 1.5h-8.5a.75.75 0 0 1-.75-.75v-.1a.75.75 0 0 1 .75-.65h8.5Zm-9-6.5c.4 0 .75.34.75.75v.1a.75.75 0 0 1-.75.65h-2.5v5.75a.75.75 0 0 1-1.5 0V4.5h-2.5a.76.76 0 0 1-.74-.65L1 3.75c0-.42.34-.75.75-.75h6.5Zm9 1.5a.75.75 0 0 1 0 1.5h-5.5a.75.75 0 0 1-.75-.75v-.1a.75.75 0 0 1 .75-.65h5.5Z" fill="currentColor"></path></svg>
