<svg fill="none" height="20" viewBox="0 0 20 20" width="20" xmlns="http://www.w3.org/2000/svg"><g clip-rule="evenodd" fill="currentColor" fill-rule="evenodd"><path d="M5.7 7.97a1.48 1.48 0 0 1 1.95-1.13c1.25.45 2.39 1.15 3.35 2.03.67.6.67 1.66 0 2.26-.96.88-2.1 1.58-3.34 2.03a1.48 1.48 0 0 1-1.96-1.13 10.49 10.49 0 0 1 0-4.06zm1.47.29A8.54 8.54 0 0 1 10 10.02h-.01a8.54 8.54 0 0 1-2.82 1.72 8.99 8.99 0 0 1 0-3.48z"></path><path d="M7.08 18h5.84c1.77 0 2.42-.18 3.07-.53A3.57 3.57 0 0 0 17.47 16c.35-.65.53-1.3.53-3.07V7.08c0-1.77-.18-2.42-.53-3.07A3.57 3.57 0 0 0 16 2.53c-.65-.35-1.3-.53-3.07-.53H7.08c-1.77 0-2.42.18-3.07.53-.64.34-1.14.84-1.48 1.48-.35.65-.53 1.3-.53 3.07v5.84c0 1.77.18 2.42.53 3.07.34.64.84 1.14 1.48 1.48.65.35 1.3.53 3.07.53zm4.04-14.46c-.5-.04-1.15-.04-2.07-.04H7.08c-1.66 0-2.02.17-2.36.35-.38.2-.67.5-.87.87-.18.34-.35.7-.35 2.36v5.84c0 1.66.17 2.02.35 2.36.2.38.5.67.87.87.34.18.7.35 2.36.35h1.97c.92 0 1.57 0 2.07-.04.5-.04.8-.12 1.01-.23a2.5 2.5 0 0 0 1.1-1.1c.11-.22.19-.51.23-1 .04-.51.04-1.16.04-2.08v-4.1c0-.92 0-1.57-.04-2.07-.04-.5-.12-.8-.23-1.01a2.5 2.5 0 0 0-1.1-1.1 2.65 2.65 0 0 0-1-.23zm4.16 12.61c-.23.12-.47.24-1.12.3a4 4 0 0 0 .4-.63c.24-.47.35-.99.4-1.57.04-.58.04-1.28.04-2.17V7.92c0-.88 0-1.6-.05-2.17a4.1 4.1 0 0 0-.39-1.57 4 4 0 0 0-.4-.63c.65.06.89.18 1.12.3.38.2.67.5.87.87.18.34.35.7.35 2.36v5.84c0 1.66-.17 2.02-.35 2.36-.2.38-.5.67-.87.87z"></path></g></svg>
