<?xml version="1.0" encoding="UTF-8"?> <svg xmlns="http://www.w3.org/2000/svg" width="31" height="31" viewBox="0 0 31 31" fill="none"> <path d="M15.5 25.8333C18.2406 25.8333 20.8689 24.7446 22.8068 22.8067C24.7447 20.8688 25.8334 18.2405 25.8334 15.4999C25.8334 12.7594 24.7447 10.131 22.8068 8.19315C20.8689 6.25527 18.2406 5.16659 15.5 5.16659C12.7595 5.16659 10.1311 6.25527 8.19327 8.19315C6.2554 10.131 5.16671 12.7594 5.16671 15.4999C5.16671 18.2405 6.2554 20.8688 8.19327 22.8067C10.1311 24.7446 12.7595 25.8333 15.5 25.8333ZM15.5 28.4166C8.36617 28.4166 2.58337 22.6338 2.58337 15.4999C2.58337 8.36605 8.36617 2.58325 15.5 2.58325C22.6339 2.58325 28.4167 8.36605 28.4167 15.4999C28.4167 22.6338 22.6339 28.4166 15.5 28.4166ZM15.5 20.6666C16.8703 20.6666 18.1845 20.1222 19.1534 19.1533C20.1224 18.1844 20.6667 16.8702 20.6667 15.4999C20.6667 14.1296 20.1224 12.8155 19.1534 11.8465C18.1845 10.8776 16.8703 10.3333 15.5 10.3333C14.1298 10.3333 12.8156 10.8776 11.8467 11.8465C10.8777 12.8155 10.3334 14.1296 10.3334 15.4999C10.3334 16.8702 10.8777 18.1844 11.8467 19.1533C12.8156 20.1222 14.1298 20.6666 15.5 20.6666ZM15.5 23.2499C13.4446 23.2499 11.4734 22.4334 10.02 20.98C8.56656 19.5266 7.75004 17.5554 7.75004 15.4999C7.75004 13.4445 8.56656 11.4733 10.02 10.0198C11.4734 8.56644 13.4446 7.74992 15.5 7.74992C17.5555 7.74992 19.5267 8.56644 20.9801 10.0198C22.4335 11.4733 23.25 13.4445 23.25 15.4999C23.25 17.5554 22.4335 19.5266 20.9801 20.98C19.5267 22.4334 17.5555 23.2499 15.5 23.2499ZM15.5 18.0833C14.8149 18.0833 14.1578 17.8111 13.6734 17.3266C13.1889 16.8421 12.9167 16.1851 12.9167 15.4999C12.9167 14.8148 13.1889 14.1577 13.6734 13.6732C14.1578 13.1888 14.8149 12.9166 15.5 12.9166C16.1852 12.9166 16.8423 13.1888 17.3267 13.6732C17.8112 14.1577 18.0834 14.8148 18.0834 15.4999C18.0834 16.1851 17.8112 16.8421 17.3267 17.3266C16.8423 17.8111 16.1852 18.0833 15.5 18.0833Z" fill="white"></path> </svg> 