<?xml version="1.0" encoding="UTF-8"?> <svg xmlns="http://www.w3.org/2000/svg" width="31" height="31" viewBox="0 0 31 31" fill="none"> <path d="M9.26387 3.56122L13.4515 7.75009H17.5473L21.7362 3.56251C21.9786 3.32014 22.3073 3.18398 22.6501 3.18398C22.9928 3.18398 23.3215 3.32014 23.5639 3.56251C23.8063 3.80488 23.9424 4.1336 23.9424 4.47636C23.9424 4.81913 23.8063 5.14785 23.5639 5.39022L21.2015 7.75009H23.8959C25.0949 7.75009 26.2448 8.22639 27.0926 9.07422C27.9404 9.92204 28.4167 11.0719 28.4167 12.2709V22.6043C28.4167 23.8033 27.9404 24.9532 27.0926 25.801C26.2448 26.6488 25.0949 27.1251 23.8959 27.1251H7.10421C5.90521 27.1251 4.75532 26.6488 3.9075 25.801C3.05967 24.9532 2.58337 23.8033 2.58337 22.6043V12.2709C2.58337 11.0719 3.05967 9.92204 3.9075 9.07422C4.75532 8.22639 5.90521 7.75009 7.10421 7.75009H9.79733L7.43617 5.38764C7.1938 5.14527 7.05764 4.81654 7.05764 4.47378C7.05764 4.13102 7.1938 3.8023 7.43617 3.55993C7.67853 3.31756 8.00726 3.1814 8.35002 3.1814C8.69278 3.1814 9.02151 3.31756 9.26387 3.55993V3.56122ZM23.8959 10.3334H7.10421C6.62257 10.3334 6.1582 10.5129 5.80167 10.8367C5.44513 11.1605 5.22199 11.6055 5.17575 12.0849L5.16671 12.2709V22.6043C5.16673 23.0859 5.34615 23.5503 5.66997 23.9068C5.99379 24.2633 6.43879 24.4865 6.91821 24.5327L7.10421 24.5418H23.8959C24.3775 24.5417 24.8419 24.3623 25.1984 24.0385C25.555 23.7147 25.7781 23.2697 25.8243 22.7903L25.8334 22.6043V12.2709C25.8334 11.7571 25.6292 11.2643 25.2659 10.9009C24.9025 10.5376 24.4097 10.3334 23.8959 10.3334ZM10.3334 14.2084C10.6759 14.2084 11.0045 14.3445 11.2467 14.5867C11.489 14.829 11.625 15.1575 11.625 15.5001V18.0834C11.625 18.426 11.489 18.7545 11.2467 18.9968C11.0045 19.239 10.6759 19.3751 10.3334 19.3751C9.9908 19.3751 9.66226 19.239 9.42003 18.9968C9.17779 18.7545 9.04171 18.426 9.04171 18.0834V15.5001C9.04171 15.1575 9.17779 14.829 9.42003 14.5867C9.66226 14.3445 9.9908 14.2084 10.3334 14.2084ZM20.6667 14.2084C21.0093 14.2084 21.3378 14.3445 21.5801 14.5867C21.8223 14.829 21.9584 15.1575 21.9584 15.5001V18.0834C21.9584 18.426 21.8223 18.7545 21.5801 18.9968C21.3378 19.239 21.0093 19.3751 20.6667 19.3751C20.3241 19.3751 19.9956 19.239 19.7534 18.9968C19.5111 18.7545 19.375 18.426 19.375 18.0834V15.5001C19.375 15.1575 19.5111 14.829 19.7534 14.5867C19.9956 14.3445 20.3241 14.2084 20.6667 14.2084Z" fill="white"></path> </svg> 