<?xml version="1.0" encoding="UTF-8"?> <svg xmlns="http://www.w3.org/2000/svg" width="260" height="120" viewBox="0 0 260 120" fill="none"> <path d="M125.526 84.5073H118.982C118.047 84.5073 117.379 83.8395 117.379 82.9046C117.379 81.9697 118.047 81.3019 118.982 81.3019H125.526V84.5073Z" fill="white"></path> <path fill-rule="evenodd" clip-rule="evenodd" d="M170 20H90V100H170V20ZM94.9415 70.2168H113.105L110.701 74.4906H105.893V88.6475H101.352V74.4906H94.9415V70.2168ZM137.279 75.2922C137.279 74.758 137.679 74.4908 138.214 74.4908V74.3573H146.227L148.765 70.0835H138.214C134.875 70.0835 132.738 72.2204 132.738 75.2922V83.4391C132.738 86.5109 134.875 88.5142 138.214 88.5142H147.563V84.2404H138.214C137.679 84.2404 137.279 83.9733 137.279 83.4391V75.2922ZM124.591 70.2168H116.043L113.506 74.4906H124.457C124.992 74.4906 125.259 74.7577 125.259 75.2919V77.2953H118.18C114.975 77.2953 112.571 79.6993 112.571 82.9046C112.571 86.1099 114.975 88.514 118.18 88.514H130.067V75.1584C130.067 72.2201 127.93 70.2168 124.591 70.2168ZM154.107 75.2922C154.107 74.758 154.507 74.4908 155.042 74.4908V74.3573H163.055L165.593 70.0835H155.042C151.703 70.0835 149.566 72.2204 149.566 75.2922V83.4391C149.566 86.5109 151.703 88.5142 155.042 88.5142H164.391V84.2404H155.042C154.507 84.2404 154.107 83.9733 154.107 83.4391V75.2922Z" fill="white"></path> </svg> 