<?xml version="1.0" encoding="UTF-8"?> <svg xmlns="http://www.w3.org/2000/svg" width="260" height="120" viewBox="0 0 260 120" fill="none"> <g clip-path="url(#clip0)"> <path d="M129.461 20.0181C134.827 19.8986 140.241 21.4537 144.655 24.5239C149.374 27.7426 152.96 32.5875 154.646 38.045C156.36 43.514 156.181 49.558 154.128 54.9092C151.846 60.9465 147.188 66.0469 141.376 68.8498C136.444 71.2961 130.708 72.0456 125.307 71.0155C119.393 69.9247 113.917 66.648 110.145 61.9723C106.424 57.4348 104.316 51.579 104.391 45.7062C104.336 40.3837 106.067 35.078 109.166 30.7605C113.757 24.2598 121.502 20.1564 129.461 20.0181ZM122.835 26.3019C118.669 27.8544 115.02 30.7753 112.623 34.5221C109.894 38.6846 108.819 43.8422 109.478 48.7645C111.346 44.7019 113.707 40.7994 116.932 37.6652C119.917 34.5714 123.643 32.2872 127.571 30.5933C126.816 29.9489 126.063 29.3044 125.325 28.6453C129.542 27.8812 134.004 28.2204 137.991 29.8376C135.39 32.6002 132.718 35.333 130.609 38.5029C130.313 37.1429 130.041 35.7749 129.742 34.4161C126.499 36.5958 124.202 39.9677 122.887 43.6113C121.057 48.7198 120.732 54.3332 121.771 59.6494C123.705 59.3508 125.626 58.888 127.428 58.1148C131.667 56.3659 135.012 52.9445 137.223 48.984C135.794 49.0225 134.367 49.1568 132.938 49.2185C135.761 46.1691 138.304 42.8269 140.211 39.124C142.402 42.6889 144.181 46.4884 145.721 50.3759C144.573 50.021 143.421 49.6728 142.262 49.3587C142.408 54.1725 142.007 59.0198 140.682 63.6661C146.061 60.5284 149.843 54.8458 150.689 48.6801C151.31 44.362 150.507 39.8505 148.437 36.0135C145.885 31.1595 141.315 27.4331 136.064 25.8719C131.76 24.5677 127.041 24.726 122.835 26.3019V26.3019ZM91.9249 85.8993C92.8473 84.2613 94.6994 83.3125 96.5449 83.2421C98.6484 83.1428 100.754 83.2244 102.861 83.1986C102.861 84.3939 102.861 85.5889 102.858 86.7871C101.05 86.7901 99.2398 86.7808 97.4295 86.7841C96.6037 86.775 95.6922 86.9916 95.1827 87.6973C94.6267 88.4181 94.7374 89.3816 94.7255 90.2367C94.7607 91.5939 94.6787 92.95 94.758 94.3064C94.8161 95.2169 95.3849 96.1549 96.3277 96.3627C97.3943 96.5587 98.4894 96.4423 99.5681 96.3947C99.5646 95.3667 99.5646 94.3378 99.5681 93.3104C98.8821 93.3048 98.1967 93.3022 97.511 93.299C97.5141 92.2537 97.514 91.2047 97.514 90.1586C99.3947 90.1557 101.272 90.1557 103.15 90.1557C103.135 93.0877 103.194 96.02 103.121 98.9494C101.205 100.349 98.7584 99.9043 96.5475 99.972C94.4938 100.016 92.5048 98.7535 91.6589 96.881C90.8382 95.1768 91.1139 93.243 91.0697 91.415C91.0636 89.5574 90.9497 87.5627 91.9249 85.8993V85.8993ZM158.903 85.5443C159.87 84.0913 161.604 83.3155 163.317 83.2395C165.423 83.1428 167.535 83.2245 169.648 83.1983C169.648 84.3936 169.648 85.5886 169.644 86.7868C167.738 86.7982 165.83 86.7633 163.924 86.795C163.001 86.8041 161.967 87.2464 161.672 88.1924C161.252 89.6108 161.522 91.1103 161.44 92.5688C161.425 93.8316 161.352 95.4832 162.635 96.1921C163.804 96.6782 165.125 96.4181 166.358 96.3804C166.349 95.3553 166.352 94.3329 166.355 93.3104C165.67 93.3048 164.984 93.3017 164.298 93.299C164.301 92.2537 164.301 91.2047 164.301 90.1586C166.182 90.1557 168.06 90.1557 169.937 90.1586C169.949 93.0558 169.926 95.9525 169.952 98.8527C168.077 100.37 165.585 99.9043 163.364 99.9747C161.296 100.036 159.272 98.7821 158.426 96.8959C157.57 95.1879 157.931 93.2371 157.858 91.4064C157.834 89.423 157.69 87.2464 158.903 85.5443V85.5443ZM43.0435 83.4149C44.3997 83.4208 45.7561 83.4179 47.1147 83.4179C47.95 86.8832 48.7108 90.3664 49.5751 93.8248C50.0672 90.3485 50.6938 86.8914 51.2299 83.42C52.7679 83.4136 54.3028 83.4169 55.8407 83.42C56.4 86.8853 56.9656 90.3537 57.5279 93.8189C58.3305 90.3507 59.1454 86.8823 59.9593 83.4169C61.3159 83.4169 62.675 83.42 64.0309 83.4136C62.525 88.9061 60.9931 94.3929 59.5022 99.8911C58.1109 99.8944 56.7223 99.8974 55.3307 99.888C54.742 96.4462 54.1006 93.0104 53.5436 89.5621C52.9548 93.0104 52.3453 96.4521 51.7334 99.8944H47.5736C46.0813 94.3969 44.5491 88.9105 43.0435 83.4149ZM62.6871 99.8954C64.1902 94.3995 65.7132 88.9105 67.2213 83.4179H71.4045C72.9071 88.9134 74.4333 94.3995 75.933 99.8919C74.6681 99.8954 73.4018 99.8919 72.1334 99.8983C71.8816 98.7734 71.6442 97.6486 71.3807 96.5267C70.0192 96.5232 68.6565 96.5267 67.2914 96.5232C67.0454 97.6453 66.7903 98.7644 66.5472 99.8862C65.2622 99.901 63.9733 99.8954 62.6871 99.8954V99.8954ZM68.0246 93.5974C68.918 93.5939 69.812 93.5974 70.7049 93.6053C70.2686 91.6223 69.8079 89.648 69.3663 87.6709C68.918 89.6457 68.4671 91.6198 68.0246 93.5974ZM77.8144 83.3447C80.4542 83.3527 83.0906 83.3239 85.7299 83.3559C87.2941 83.3262 88.9223 84.4605 89.0136 86.1041C89.0285 87.5744 89.0285 89.045 89.0108 90.5158C88.9756 91.6815 88.0553 92.5727 87.0509 93.0199C88.0119 95.2875 88.9784 97.5525 89.9421 99.8226H85.7476C84.9975 97.7719 84.2892 95.7068 83.5211 93.6647C82.7887 93.6681 82.0596 93.6711 81.3302 93.6711C81.3272 95.7216 81.3364 97.7749 81.3242 99.8256C80.1554 99.8198 78.9866 99.8198 77.8177 99.8256C77.8083 94.3295 77.8144 88.8371 77.8144 83.3447V83.3447ZM81.3297 86.6403C81.3297 87.9113 81.3266 89.1797 81.3328 90.4512C82.3929 90.4249 83.4532 90.4981 84.511 90.4222C85.185 90.3688 85.5777 89.6862 85.5043 89.0569C85.4808 88.2828 85.7444 87.106 84.8394 86.7399C83.6877 86.5141 82.4986 86.6955 81.3297 86.6403V86.6403ZM108.669 83.4208C110.06 83.4143 111.452 83.4238 112.846 83.412C114.37 88.9015 115.887 94.3939 117.38 99.8958H113.581C113.332 98.7676 113.095 97.6396 112.822 96.5183C111.466 96.5329 110.106 96.5271 108.748 96.5248C108.507 97.6496 108.243 98.7682 108.006 99.8963H104.146C105.637 94.3994 107.178 88.9162 108.669 83.4208V83.4208ZM109.478 93.6001C110.371 93.5974 111.267 93.5974 112.16 93.5974C111.721 91.6166 111.258 89.6425 110.824 87.6627C110.365 89.6394 109.925 91.6198 109.478 93.6001ZM118.974 83.4179C120.473 83.421 121.973 83.409 123.473 83.4293C124.507 87.437 125.588 91.4315 126.637 95.4361C127.762 91.441 128.793 87.4222 129.891 83.4202C131.376 83.4172 132.861 83.4172 134.35 83.4172V99.8947H130.981C131.007 96.7633 130.923 93.6345 130.864 90.5053C130 93.6164 129.25 96.7628 128.456 99.8947C127.241 99.8914 126.024 99.9091 124.812 99.8739C124.039 96.6637 123.219 93.4646 122.419 90.2627C122.404 93.4735 122.416 96.6803 122.412 99.8944H118.971C118.971 94.4029 118.968 88.9105 118.974 83.4179V83.4179ZM137.209 83.4208C138.4 83.4178 139.595 83.4178 140.794 83.4178V99.8953H137.205C137.206 94.4029 137.206 88.9105 137.209 83.4208ZM143.653 83.4208C144.822 83.4178 145.99 83.4143 147.16 83.4208C148.897 86.6137 150.621 89.8098 152.374 92.9935C152.353 89.801 152.367 86.611 152.367 83.4208C153.513 83.4178 154.658 83.4178 155.803 83.4208C155.806 88.9103 155.806 94.4027 155.806 99.8924C154.635 99.8954 153.466 99.8954 152.3 99.8924C150.55 96.6547 148.831 93.404 147.08 90.1697C147.103 93.4124 147.086 96.6523 147.092 99.8955H143.65C143.651 94.4029 143.651 88.9105 143.653 83.4208V83.4208ZM178.582 83.4179C179.748 83.4179 180.917 83.421 182.083 83.4149C183.864 86.628 185.583 89.8737 187.364 93.0873C187.379 89.8623 187.364 86.6401 187.371 83.4178C188.492 83.4178 189.614 83.4178 190.736 83.4208C190.739 88.9103 190.739 94.4027 190.739 99.8953C189.561 99.8918 188.384 99.9067 187.209 99.8769C185.51 96.6109 183.729 93.389 182.015 90.1312C182.036 93.3826 182.015 96.6367 182.027 99.8912C180.879 99.8976 179.731 99.8945 178.582 99.8945C178.582 94.4029 178.58 88.9105 178.582 83.4179V83.4179ZM193.378 83.4208C196.89 83.4178 200.405 83.4178 203.921 83.4178C203.918 84.4901 203.918 85.5614 203.924 86.6338C201.603 86.6481 199.284 86.6338 196.963 86.6401C196.96 87.6653 196.96 88.6907 196.963 89.7158H203.258C203.261 90.7881 203.261 91.8631 203.258 92.9344C201.161 92.9379 199.064 92.9379 196.966 92.9379C196.96 94.1564 196.96 95.3779 196.966 96.5995H203.917C203.92 97.698 203.92 98.7963 203.917 99.8953H193.375C193.375 94.4029 193.372 88.9105 193.378 83.4208V83.4208ZM205.605 83.4208C209.39 83.4143 213.171 83.4208 216.956 83.4178V86.6401H213.151C213.145 91.0341 213.151 95.428 213.145 99.8218H209.563C209.56 95.4307 209.557 91.0395 209.563 86.6478C208.244 86.6364 206.923 86.6364 205.605 86.6398V83.4208ZM172.431 96.5267C173.576 96.5267 174.722 96.5267 175.867 96.5232C175.873 97.6453 175.873 98.7673 175.875 99.8892C174.727 99.898 173.579 99.8957 172.43 99.8957C172.431 98.7705 172.428 97.6486 172.431 96.5267Z" fill="white"></path> </g> <defs> <clipPath id="clip0"> <rect width="173.913" height="80" fill="white" transform="translate(43.0435 20)"></rect> </clipPath> </defs> </svg> 