<?xml version="1.0" encoding="UTF-8"?> <svg xmlns="http://www.w3.org/2000/svg" width="260" height="120" viewBox="0 0 260 120" fill="none"> <path fill-rule="evenodd" clip-rule="evenodd" d="M90 45.4402L115.437 20H170V100H90V45.4402ZM123.234 53.0337C126.39 51.2334 130.069 50.7417 133.663 50.6814C145.343 50.6814 154.202 57.9711 154.202 68.7918C153.392 84.378 142.933 89.5933 129.743 89.1715C118.522 88.9394 108.58 84.4461 106.811 72.0938H122.758C123.172 76.0333 125.819 78.2464 129.82 78.3523C135.545 78.3523 137.816 74.2011 137.816 69.969C137.816 65.1097 135.15 61.5816 129.585 61.5816C125.296 61.5816 124.002 63.5245 123.065 64.9319C123.044 64.9625 123.024 64.9929 123.004 65.0229H109.574V43.389L118.723 34.2162H150.082V45.4402L123.237 45.4351L123.234 53.0337Z" fill="white"></path> </svg> 