<?xml version="1.0" encoding="UTF-8"?> <svg xmlns="http://www.w3.org/2000/svg" width="150" height="30" viewBox="0 0 150 30" fill="none"> <path d="M23.0389 16.9311V20.7934C23.0389 24.1617 24.9251 26.4072 29.012 26.4072C32.3353 26.4072 34.0868 25.015 35.0748 23.1737C35.2096 22.9491 35.2096 22.7695 34.9401 22.6796L34.5808 22.4102C34.3563 22.2754 34.2216 22.3204 34.0868 22.5449C33.1886 24.2066 31.7066 25.3293 29.0569 25.3293C25.8683 25.3293 24.2964 23.5778 24.2964 20.8832V18.9521H34.7156C35.1647 18.9521 35.3892 18.7275 35.3892 18.3234V16.8862C35.3892 13.3832 33.3683 11.003 29.2365 11.003C25.1497 11.003 23.0389 13.2934 23.0389 16.9311ZM34.1317 16.8413V17.9641H24.2964V16.8413C24.2964 13.9222 25.9132 12.0808 29.2365 12.0808C32.515 12.0808 34.1317 13.9222 34.1317 16.8413ZM21.4671 11.4072H21.018C20.6138 11.4072 20.524 11.4521 20.4341 11.7216L15.9431 22.4551C15.5838 23.2635 15.3593 24.1617 15.1796 24.6108H15.1347C14.9551 24.1168 14.6407 23.2635 14.3263 22.4102L9.79042 11.7665C9.65569 11.497 9.61078 11.4072 9.20659 11.4072H8.75748C8.44311 11.4072 8.35329 11.497 8.48802 11.7665L14.4162 25.7335C14.5509 26.003 14.6407 26.0928 14.9102 26.0928H15.2695C15.5389 26.0928 15.6287 26.003 15.7635 25.7335L21.6916 11.7665C21.8263 11.497 21.7365 11.4072 21.4671 11.4072ZM5.20958 11.4072H4.62575C4.4012 11.4072 4.31138 11.497 4.31138 11.7216V25.6437C4.31138 25.9132 4.4012 26.003 4.62575 26.003H5.20958C5.47904 26.003 5.56886 25.9132 5.56886 25.6437V11.7216C5.52395 11.497 5.43413 11.4072 5.20958 11.4072ZM4.98503 6.33234H4.8503C4.26647 6.33234 4.13174 6.51198 4.13174 7.0509V7.23054C4.13174 7.81437 4.31138 7.9491 4.8503 7.9491H4.98503C5.52395 7.9491 5.70359 7.76946 5.70359 7.23054V7.0509C5.70359 6.51198 5.52395 6.33234 4.98503 6.33234ZM1.21257 25.6437V5.2994C1.21257 5.02994 1.12275 4.94012 0.898204 4.94012H0.314371C0.0449102 4.94012 0 5.02994 0 5.2994V25.6886C0 25.9581 0.0449102 26.0479 0.314371 26.0479H0.898204C1.12275 26.003 1.21257 25.9132 1.21257 25.6437ZM135.898 15.3144C135.898 18.997 138.862 19.6257 141.647 19.8952C143.937 20.1198 145.06 20.3892 145.06 21.7365C145.06 22.8593 144.072 23.3982 142.051 23.3982C140.299 23.3982 139.311 22.9491 138.817 21.8263C138.548 21.1527 138.234 21.1078 137.65 21.2874L136.347 21.6916C135.674 21.9162 135.539 22.2754 135.763 22.9042C136.617 25.1048 138.772 26.3623 142.096 26.3623C146.138 26.3623 148.248 24.3862 148.248 21.6018C148.248 18.1437 145.823 17.3802 142.455 17.021C140.254 16.8413 139.132 16.5719 139.132 15.2695C139.132 14.2365 139.94 13.7425 141.826 13.7425C143.668 13.7425 144.431 14.3713 144.88 15.2246C145.24 15.8084 145.464 15.8982 146.093 15.6287L147.395 15.1347C148.024 14.8653 148.204 14.506 147.844 13.8323C146.946 11.991 145.06 10.7784 141.737 10.7784C137.829 10.7335 135.898 12.6198 135.898 15.3144ZM130.554 16.4371V17.0659H123.997V16.4371C123.997 14.5958 125.165 13.518 127.32 13.518C129.431 13.518 130.554 14.5958 130.554 16.4371ZM120.674 16.8862V20.2545C120.674 23.7575 122.56 26.3623 127.231 26.3623C130.464 26.3623 132.35 25.3293 133.383 23.6228C133.787 22.994 133.698 22.5 133.024 22.1856L132.036 21.6467C131.362 21.2874 131.048 21.3772 130.599 22.006C130.015 22.9491 128.937 23.5329 127.231 23.5329C125.165 23.5329 123.997 22.5449 123.997 20.7036V19.6707H132.575C133.563 19.6707 133.877 19.1766 133.877 18.4581V16.6168C133.877 13.3383 131.811 10.7335 127.32 10.7335C122.964 10.7335 120.674 12.9341 120.674 16.8862ZM106.257 15.3144C106.257 18.997 109.222 19.6257 112.006 19.8952C114.296 20.1198 115.419 20.3892 115.419 21.7365C115.419 22.8593 114.431 23.3982 112.41 23.3982C110.659 23.3982 109.671 22.9491 109.177 21.8263C108.907 21.1527 108.593 21.1078 108.009 21.2874L106.707 21.6916C106.033 21.9162 105.898 22.2754 106.123 22.9042C106.976 25.1048 109.132 26.3623 112.455 26.3623C116.497 26.3623 118.608 24.3862 118.608 21.6018C118.608 18.1437 116.183 17.3802 112.814 17.021C110.614 16.8413 109.491 16.5719 109.491 15.2695C109.491 14.2365 110.299 13.7425 112.186 13.7425C114.027 13.7425 114.79 14.3713 115.24 15.2246C115.599 15.8084 115.823 15.8982 116.452 15.6287L117.754 15.1347C118.383 14.8653 118.563 14.506 118.204 13.8323C117.305 11.991 115.419 10.7784 112.096 10.7784C108.189 10.7335 106.257 12.6198 106.257 15.3144ZM91.9311 15.3144C91.9311 18.997 94.8952 19.6257 97.6796 19.8952C99.9701 20.1198 101.093 20.3892 101.093 21.7365C101.093 22.8593 100.105 23.3982 98.0838 23.3982C96.3323 23.3982 95.3443 22.9491 94.8503 21.8263C94.5808 21.1527 94.2665 21.1078 93.6826 21.2874L92.3802 21.6916C91.7066 21.9162 91.5719 22.2754 91.7964 22.9042C92.6497 25.1048 94.8054 26.3623 98.1287 26.3623C102.171 26.3623 104.281 24.3862 104.281 21.6018C104.281 18.1437 101.856 17.3802 98.488 17.021C96.2874 16.8413 95.1647 16.5719 95.1647 15.2695C95.1647 14.2365 95.973 13.7425 97.8593 13.7425C99.7006 13.7425 100.464 14.3713 100.913 15.2246C101.272 15.8084 101.497 15.8982 102.126 15.6287L103.428 15.1347C104.057 14.8653 104.237 14.506 103.877 13.8323C102.979 11.991 101.093 10.7784 97.7695 10.7784C93.8623 10.7335 91.9311 12.6198 91.9311 15.3144ZM86.1377 19.985V22.994C86.1377 23.2635 86.0479 23.3084 85.8233 23.3982C85.3293 23.5329 84.4311 23.6228 82.994 23.6228C80.7934 23.6228 80.2994 22.9042 80.2994 21.7365C80.2994 20.5689 80.8832 19.8952 83.0389 19.8952C84.1617 19.8503 85.5539 19.9401 86.1377 19.985ZM77.4701 13.6976C77.1108 14.3713 77.3353 14.6856 77.9641 15L79.0868 15.494C79.7605 15.7635 79.8952 15.6737 80.2994 15.0449C80.8832 14.1467 81.8713 13.6976 83.3084 13.6976C85.4641 13.6976 86.1377 14.7305 86.1377 16.5269V17.3353C85.6437 17.2904 84.521 17.2006 83.3982 17.2006C78.8623 17.2006 76.9311 18.3683 76.9311 21.7814C76.9311 24.7455 78.2335 26.4072 83.2635 26.4072C85.5988 26.4072 87.3503 26.1377 88.3832 25.6886C89.1916 25.3293 89.4162 25.0599 89.4162 24.0719V16.6168C89.4162 13.2485 87.979 10.7335 83.3084 10.7335C80.3892 10.7335 78.4132 11.8563 77.4701 13.6976ZM74.3263 25.015V5.70359C74.3263 5.02994 74.1018 4.80539 73.4281 4.80539H71.9012C71.2275 4.80539 71.003 5.02994 71.003 5.70359V25.015C71.003 25.6886 71.1826 25.9132 71.9012 25.9132H73.4281C74.1018 25.9132 74.3263 25.6886 74.3263 25.015ZM55.7335 16.5719V20.479C55.7335 24.0719 57.7096 26.3174 62.021 26.3174C65.479 26.3174 67.4102 24.9701 68.3533 22.5449C68.6227 21.8263 68.3982 21.512 67.7695 21.2425L66.4671 20.8832C65.7934 20.6587 65.479 20.7485 65.2096 21.4671C64.7605 22.6796 63.7725 23.4431 62.1108 23.4431C60.0449 23.4431 59.012 22.4102 59.012 20.6587V16.4371C59.012 14.6407 60.0449 13.6527 62.1108 13.6527C63.7725 13.6527 64.7605 14.3713 65.2096 15.5389C65.479 16.2126 65.7934 16.4371 66.4671 16.1228L67.7245 15.7186C68.3982 15.4491 68.5778 15.1347 68.3533 14.4162C67.6347 12.2605 65.6587 10.6886 62.2455 10.6886C57.7994 10.7335 55.7335 12.9341 55.7335 16.5719ZM44.6856 0H46.0329V30H44.6856V0Z" fill="white"></path> </svg> 