<?xml version="1.0" encoding="UTF-8"?> <svg xmlns="http://www.w3.org/2000/svg" width="260" height="120" viewBox="0 0 260 120" fill="none"> <path d="M103.528 37.7849V53.2505L116.728 60.7854L103.528 37.7849Z" fill="white"></path> <path d="M116.728 30.25L103.528 37.7849H129.928L116.728 30.25Z" fill="white"></path> <path d="M129.928 53.2505V37.7849L116.728 60.7854L129.928 53.2505Z" fill="white"></path> <path d="M129.928 37.7849V53.2505L143.128 30.25L129.928 37.7849Z" fill="white"></path> <path d="M143.128 60.7854L156.329 53.2505H129.928L143.128 60.7854Z" fill="white"></path> <path d="M156.329 53.2505V37.7849L143.128 30.25L156.329 53.2505Z" fill="white"></path> <path d="M64.6977 67.1152L54.7907 89.4408H61.7674L70.6977 84.4176H63.1628L67.7625 72.6491L73.907 89.4408H80.6047L70.8372 67.1152H64.6977Z" fill="white"></path> <path d="M109.628 67.1152V89.4408H115.209V71.8594H119.954C123.861 71.8594 123.302 79.1152 119.954 79.1152H117.302L119.674 83.3013C130.558 83.3013 131.256 67.1152 119.954 67.1152H109.628Z" fill="white"></path> <path d="M195.302 67.0684L205.209 89.3939H198.233L189.302 84.3707H196.837L192.233 72.6498L186.093 89.3939H179.395L189.302 67.0684H195.302Z" fill="white"></path> <path d="M91.7675 67.1152L81.8606 89.4408H88.8373L94.8373 72.6966L100.977 89.4408H107.675L98.6048 67.1152H91.7675Z" fill="white"></path> <path fill-rule="evenodd" clip-rule="evenodd" d="M142.837 90.0005C149.773 90.0005 155.395 84.7528 155.395 78.2795C155.395 71.8062 149.773 66.5586 142.837 66.5586C135.902 66.5586 130.279 71.8062 130.279 78.2795C130.279 84.7528 135.902 90.0005 142.837 90.0005ZM142.837 85.5353C146.69 85.5353 149.814 82.3493 149.814 78.4191C149.814 74.4888 146.69 71.3028 142.837 71.3028C138.984 71.3028 135.86 74.4888 135.86 78.4191C135.86 82.3493 138.984 85.5353 142.837 85.5353Z" fill="white"></path> <path d="M177.713 87.6624C175.616 89.1306 173.01 90.0005 170.186 90.0005C163.25 90.0005 157.628 84.7528 157.628 78.2795C157.628 71.8062 163.25 66.5586 170.186 66.5586C173.064 66.5586 175.717 67.4624 177.835 68.9825L175.628 73.1167C174.093 71.7214 172.287 71.3028 170.186 71.3028C166.333 71.3028 163.209 74.4888 163.209 78.4191C163.209 82.3493 166.333 85.5353 170.186 85.5353C172.244 85.5353 174.093 84.9772 175.628 83.7214L177.713 87.6624Z" fill="white"></path> </svg> 