<?xml version="1.0" encoding="UTF-8"?> <svg xmlns="http://www.w3.org/2000/svg" width="260" height="120" viewBox="0 0 260 120" fill="none"> <path d="M54.487 12.2129C69.1151 17.7496 99.0988 32.8402 99.0558 55.5397C99.0271 70.6715 84.9768 79.4982 62.5181 73.8284C58.9686 72.9324 56.3592 70.2992 56.794 67.0593C57.1047 64.7447 59.208 61.5204 65.5436 63.2783C76.7909 66.399 85.9155 63.3495 85.8125 53.042C85.6521 36.9851 65.6413 27.0012 56.177 22.4245C50.9098 19.8773 53.134 15.2371 54.487 12.2129Z" fill="white"></path> <path d="M79.6639 108.206C65.034 102.674 35.0454 87.5933 35.0811 64.8937C35.1049 49.7619 49.1524 40.9306 71.6129 46.5932C75.1627 47.4881 77.7729 50.1204 77.3391 53.3604C77.0292 55.6752 74.927 58.9001 68.5908 57.1443C57.3425 54.0272 48.2189 57.0796 48.3252 67.3872C48.4907 83.444 68.5048 93.4214 77.9706 97.9951C83.2386 100.541 81.0159 105.182 79.6639 108.206Z" fill="white"></path> <path d="M106.398 61.8785V66.5577C107.788 67.3415 109.105 67.908 110.349 68.2571C111.593 68.6062 112.956 68.7774 114.439 68.7709C117.079 68.7373 119.278 68.1932 121.038 67.1385C122.797 66.0838 124.117 64.7201 124.997 63.0471C125.877 61.3742 126.317 59.5936 126.317 57.7051C126.31 55.7563 125.828 53.942 124.871 52.2624C123.914 50.5829 122.52 49.223 120.69 48.1828C118.859 47.1426 116.632 46.607 114.006 46.5762C112.606 46.5762 111.278 46.7343 110.024 47.0504C108.77 47.3666 107.644 47.8408 106.645 48.4732V53.2788C107.756 52.6057 108.89 52.0708 110.047 51.6743C111.205 51.2778 112.401 51.0749 113.635 51.0657C115.003 51.0736 116.212 51.3265 117.262 51.8245C118.312 52.3224 119.209 52.9788 119.821 53.9112C120.165 54.4341 120.439 55.029 120.644 55.6488H111.005V59.5389H120.625C120.379 60.926 119.743 62.0563 118.716 62.9297C117.688 63.8031 116.263 64.2537 114.439 64.2813C114.342 64.2787 114.228 64.2682 114.099 64.2497C113.97 64.2313 113.857 64.2207 113.759 64.2181C112.501 64.2115 111.321 64.0034 110.218 63.5937C109.114 63.184 107.841 62.6123 106.398 61.8785V61.8785Z" fill="white"></path> <path d="M137.046 55.516H135.125V46.8923H130.156V68.4546H135.125V59.5465H137.09C138.624 59.5465 139.684 60.8311 140.39 62.4554C141.096 64.0797 141.986 66.0794 143.06 68.4546H148.885C147.521 65.5248 147.018 64.4208 146.132 62.4395C145.02 59.8451 144.059 58.6447 142.28 57.5597C142.868 56.6459 143.656 55.8792 144.103 54.7944C144.898 52.868 145.447 50.7392 147.796 50.7102L148.08 46.8923C145.555 46.4203 143.754 46.9118 142.527 48.2288C140.133 50.7968 139.512 55.516 137.046 55.516V55.516Z" fill="white"></path> <path d="M170.921 61.8785C169.489 62.6123 168.218 63.184 167.109 63.5937C166 64.0034 164.805 64.2115 163.523 64.2181C161.348 64.1852 159.592 63.5713 158.252 62.3765C156.912 61.1816 156.223 59.6034 156.184 57.6419C156.22 55.6804 156.915 54.1022 158.267 52.9074C159.619 51.7126 161.411 51.0987 163.643 51.0657C164.902 51.0749 166.113 51.2778 167.275 51.6743C168.436 52.0709 169.572 52.6057 170.681 53.2788V48.4732C169.681 47.8408 168.553 47.3666 167.297 47.0504C166.042 46.7343 164.703 46.5762 163.282 46.5762C160.649 46.607 158.416 47.1426 156.583 48.1828C154.75 49.223 153.354 50.5829 152.397 52.2624C151.439 53.942 150.957 55.7563 150.951 57.7051C150.951 59.5936 151.392 61.3742 152.274 63.0471C153.156 64.7201 154.48 66.0838 156.244 67.1385C158.009 68.1932 160.214 68.7373 162.861 68.7709C164.362 68.7774 165.736 68.6062 166.981 68.2571C168.227 67.908 169.54 67.3415 170.921 66.5577V61.8785Z" fill="white"></path> <path d="M186.205 54.8599L179.664 46.8926H175.263V68.4549H180.318V54.9864L185.789 61.7522H186.562L192.033 54.9864V68.4549H197.087V46.8926H192.687L186.205 54.8599Z" fill="white"></path> <path d="M224.534 57.6419C224.533 55.8729 224.095 54.1485 223.219 52.4685C222.343 50.7886 221.037 49.3967 219.3 48.2928C217.563 47.189 215.403 46.6168 212.818 46.5762C210.252 46.6168 208.1 47.189 206.362 48.2928C204.624 49.3967 203.314 50.7886 202.43 52.4685C201.547 54.1485 201.104 55.8729 201.102 57.6419C201.107 59.5112 201.563 61.2879 202.47 62.9722C203.377 64.6564 204.701 66.0351 206.442 67.1081C208.184 68.1811 210.309 68.7353 212.818 68.7709C215.289 68.7365 217.396 68.1869 219.14 67.1221C220.883 66.0573 222.216 64.6834 223.139 63.0003C224.061 61.3172 224.526 59.5311 224.534 57.6419V57.6419ZM219.307 57.6419C219.281 59.6588 218.687 61.2528 217.527 62.4239C216.367 63.595 214.797 64.1931 212.818 64.2181C210.839 64.1931 209.269 63.595 208.109 62.4239C206.948 61.2528 206.355 59.6588 206.329 57.6419C206.355 55.6527 206.948 54.0666 208.109 52.8836C209.269 51.7007 210.839 51.0947 212.818 51.0657C214.797 51.0947 216.367 51.7007 217.527 52.8836C218.687 54.0666 219.281 55.6527 219.307 57.6419Z" fill="white"></path> </svg> 