<?xml version="1.0" encoding="UTF-8"?> <svg xmlns="http://www.w3.org/2000/svg" width="260" height="120" viewBox="0 0 260 120" fill="none"> <g clip-path="url(#clip0)"> <path d="M98.2566 51.9003H91.0546V65.4378C91.0546 68.4009 92.0014 71.3733 94.0184 73.5944C96.6109 76.4526 100.875 77.788 104.653 77.788C108.174 77.788 112.111 76.6372 114.712 74.1863C117.11 71.93 118.26 68.6839 118.26 65.4371V51.9003H111.058V65.4371C111.058 69.3908 108.572 71.6829 104.653 71.6829C100.742 71.6829 98.2566 69.3908 98.2566 65.4371V51.9003Z" fill="white"></path> <path fill-rule="evenodd" clip-rule="evenodd" d="M69.6708 42.0527H62.8043V65.6569C62.8043 73.0183 68.3081 77.9374 75.5359 77.9374C78.6412 77.9374 82.0827 77.3972 84.64 75.5217C88.205 72.912 89.4176 68.2932 89.4176 64.073C89.4176 55.8108 83.8347 50.9535 75.9432 50.9535C73.6877 50.9535 71.6347 51.5016 69.6708 52.5719V42.0527ZM75.9166 71.7713C71.1929 71.7713 69.6708 68.7716 69.6708 64.4717C69.6708 60.1811 71.2015 57.1642 75.9166 57.1642C80.6324 57.1642 82.1632 60.1811 82.1632 64.4717C82.1632 68.967 80.8271 71.7713 75.9166 71.7713Z" fill="white"></path> <path d="M120.931 63.8345V77.1508H128.089V64.2784C128.089 62.4726 128.186 60.5884 129.362 59.1108C130.619 57.5535 132.618 57.1555 134.521 57.1555C136.493 57.1555 138.104 57.8372 139.404 59.3234L144.57 55.0674C143.244 53.793 141.855 52.7141 140.111 52.0418C138.262 51.3335 136.308 51.1036 134.344 51.1036C131.034 51.1036 127.478 51.9089 124.913 54.0847C122.091 56.4652 120.931 60.2343 120.931 63.8345Z" fill="white"></path> <path fill-rule="evenodd" clip-rule="evenodd" d="M169.22 65.6749V42.0527H162.355V52.5899C160.4 51.5102 158.329 50.9707 156.082 50.9707C152.887 50.9707 149.569 51.8026 147.032 53.8103C143.961 56.244 142.608 60.2695 142.608 64.091C142.608 73.1411 147.394 77.9453 156.498 77.9453C163.744 77.9453 169.22 73.0715 169.22 65.6749ZM160.841 70.0186C159.638 71.3109 157.824 71.7878 156.117 71.7878C154.64 71.7878 153.127 71.5141 151.94 70.5854C150.144 69.1702 149.862 66.6223 149.862 64.4896C149.862 60.1193 151.391 57.19 156.116 57.19C160.841 57.19 162.354 60.1193 162.354 64.4896C162.354 66.3386 162.16 68.5949 160.841 70.0186Z" fill="white"></path> <path fill-rule="evenodd" clip-rule="evenodd" d="M190.021 77.1501H197.195V63.3195C197.195 60.0374 195.922 56.6053 193.497 54.349C190.941 51.9692 187.305 51.049 183.89 51.049C178.749 51.049 173.82 53.2162 171.733 58.2064C170.999 59.9584 170.477 61.9762 170.477 63.8783C170.477 67.2667 171.078 70.7434 173.193 73.4946C175.423 76.3973 178.881 77.8483 182.482 77.8483C185.437 77.8483 187.631 77.1501 190.021 75.4692V77.1501ZM183.889 57.2525C188.241 57.2525 190.09 60.5532 190.09 64.5248C190.09 68.5065 188.241 71.7979 183.889 71.7979C179.218 71.7979 177.678 68.8068 177.678 64.5248C177.678 60.2515 179.225 57.2525 183.889 57.2525Z" fill="white"></path> </g> <defs> <clipPath id="clip0"> <rect width="134.474" height="36" fill="white" transform="translate(62.7631 42)"></rect> </clipPath> </defs> </svg> 