<?xml version="1.0" encoding="UTF-8"?> <svg xmlns="http://www.w3.org/2000/svg" width="260" height="120" viewBox="0 0 260 120" fill="none"> <g clip-path="url(#clip0)"> <path fill-rule="evenodd" clip-rule="evenodd" d="M77.1475 44.002C74.7622 44.002 71.9341 46.2952 69.6014 50.1505C67.1701 54.1433 65.7196 59.0864 65.7196 63.3789C65.7196 69.663 69.2461 76.0003 77.1482 76.0003C85.0408 76.0003 88.5768 69.663 88.5768 63.3789C88.5768 59.0864 87.127 54.1433 84.7074 50.1505C82.3528 46.2952 79.525 44.002 77.1475 44.002ZM138.859 53.4302H146.859V74.2867H155.43V53.4302H163.427V45.7153H138.859V53.4292V53.4302ZM181.713 53.4302H194.284V45.7153H181.713C170.163 45.7153 163.995 51.4576 163.995 60C163.995 68.5424 170.163 74.2867 181.713 74.2867H194.284V66.5721H181.713C176.367 66.5721 172.854 64.6616 172.854 60.001C172.854 55.3404 176.367 53.4302 181.713 53.4302ZM121.425 45.7153L116.857 62.7683L112.289 45.7153H97.1479V74.2867H105.716V51.0475L111.943 74.2867H121.772L128.002 51.0335V74.2867H136.573V45.7153H121.425Z" fill="white"></path> </g> <defs> <clipPath id="clip0"> <rect width="128.572" height="32" fill="white" transform="translate(65.7142 44)"></rect> </clipPath> </defs> </svg> 