<?xml version="1.0" encoding="UTF-8"?> <svg xmlns="http://www.w3.org/2000/svg" width="260" height="120" viewBox="0 0 260 120" fill="none"> <g clip-path="url(#clip0)"> <path fill-rule="evenodd" clip-rule="evenodd" d="M193.606 55.1492C193.399 53.8344 192.45 53.0962 191.237 52.661C189.155 51.9126 187 51.8719 184.823 52.0488C182.811 52.2117 180.865 52.6113 178.989 53.5786C178.641 51.6924 178.306 49.8839 177.968 48.055C179.619 47.2506 181.276 46.8026 182.979 46.501C186.621 45.8582 190.271 45.7577 193.881 46.6524C197.687 47.5968 200.36 49.7528 201.098 53.7186C201.28 54.6986 201.273 56.1813 201.273 56.1813V65.0904C201.273 65.4773 201.321 66.3046 201.345 66.6902C201.48 68.7495 201.668 68.9506 203.818 69.2624V73.5019C201.696 74.0262 199.517 74.3024 197.36 73.3071C196.147 72.7484 195.589 71.7137 195.323 70.4919C195.288 70.3316 195.272 70.1674 195.251 69.9703V69.9699V69.9662C195.241 69.864 195.23 69.7529 195.214 69.6289C192.61 73.2931 188.884 74.1929 184.788 73.9677C180.199 73.7157 176.676 70.6993 176.027 67.1408C174.972 61.3499 177.956 57.0239 183.913 56.1508C187.679 55.5984 188.758 55.8326 193.626 57.4541C193.626 57.2089 193.636 56.9644 193.645 56.7212C193.665 56.188 193.686 55.6614 193.606 55.1492ZM193.477 62.5131C192.227 61.6719 190.807 61.2302 189.322 61.0457C187.778 60.8535 186.254 60.954 184.945 61.9442C183.743 62.8529 183.289 64.2962 183.729 65.784C184.067 66.9282 185.258 67.8242 186.662 67.954C188.015 68.0813 189.327 67.8802 190.577 67.3597C192.819 66.4242 193.697 64.9479 193.477 62.5131ZM98.9467 73.9995C95.0522 74.0224 91.5509 72.9139 88.6453 70.4028C85.4227 67.618 84.15 63.9933 84.1818 59.8849C84.2098 56.4766 85.1466 53.3763 87.4947 50.757C89.6011 48.4088 92.2815 47.0113 95.4098 46.3763C99.3387 45.5783 103.12 46.0263 106.6 47.9455C110.988 50.3675 113.155 54.1615 113.423 58.9915C113.658 63.2399 112.607 67.0669 109.35 70.1202C106.46 72.8299 102.915 73.9588 98.9467 73.9995ZM99.0409 52.8684C95.742 52.9473 93.4269 54.6617 92.5424 57.4846C91.9989 59.2244 92.0333 60.9502 92.5755 62.69C93.3633 65.2164 95.1082 66.7679 97.7656 67.1726C100.457 67.5811 102.77 66.7169 104.241 64.4337C105.915 61.8335 105.947 59.0564 104.612 56.3061C103.469 53.9503 101.432 52.8964 99.0409 52.8684ZM154.182 62.5456H158L158.623 62.6856L159.503 64.2484L159.517 64.2729C161.353 67.5349 163.187 70.7949 164.991 74.0001H173.273C173.186 73.7877 173.111 73.5873 173.041 73.3975C172.901 73.0199 172.777 72.6845 172.601 72.3812C171.184 69.9432 169.757 67.512 168.331 65.081L168.321 65.0646L168.315 65.0534C167.535 63.7244 166.755 62.3955 165.977 61.0654C165.842 60.8368 165.721 60.5992 165.589 60.3427L165.589 60.3421C165.529 60.2248 165.467 60.1035 165.401 59.9772C170.778 56.8196 171.895 51.7529 171.74 46.0002H164.363C164.363 48.2571 163.991 49.5845 163.554 51.1446V51.1447L163.554 51.1457C163.498 51.3448 163.441 51.5477 163.384 51.7567C162.807 53.8656 161.374 55.2745 159.326 55.9885C158.192 56.3837 156.979 56.3128 155.736 56.2402C155.222 56.2101 154.703 56.1797 154.182 56.182V46.0002H146.545V73.9759L154.182 74.0001V62.5456ZM133.9 46.0002H141.455V74.0001H133.826V65.021C133.376 65.1251 132.938 65.2375 132.507 65.348C131.595 65.5819 130.715 65.8075 129.822 65.9285C126.359 66.3969 123.062 65.9705 120.237 63.5816C118.053 61.7336 116.774 59.2556 116.387 56.4442C116.125 54.5375 116.103 52.034 116.08 49.5191V49.519C116.07 48.3306 116.059 47.1396 116.023 46.0078L123.637 46.0002V47.2729V53.6365C123.637 56.6338 126.278 58.9985 129.153 59.0405C130.928 59.0659 131.964 58.6332 133.81 57.4623L133.9 46.0002ZM65.0908 74.0001H72.7272V53.6365H81.6362V46.0002H56.1817V53.6365H65.0908V74.0001Z" fill="white"></path> </g> <defs> <clipPath id="clip0"> <rect width="147.636" height="28" fill="white" transform="translate(56.1817 46)"></rect> </clipPath> </defs> </svg> 