<?xml version="1.0" encoding="UTF-8"?> <svg xmlns="http://www.w3.org/2000/svg" width="260" height="120" viewBox="0 0 260 120" fill="none"> <g clip-path="url(#clip0)"> <path d="M102.38 48.9512H98.537L97.5763 50.104C97.3842 50.2962 97.4802 50.3922 97.6724 50.4883L98.9213 51.0647L102.476 49.4315C102.764 49.3355 102.668 48.9512 102.38 48.9512ZM88.0654 67.7809H83.358C82.1091 68.5494 81.7248 68.7416 80.0916 69.4141C79.9955 69.4141 79.8995 69.6062 79.9955 69.7023L84.2226 81.5189H86.6244L82.7816 70.663C85.2794 70.663 91.3318 69.9905 94.5982 64.7066C93.5414 66.2437 91.1396 67.7809 88.0654 67.7809ZM94.7903 50.7765C94.406 51.1608 93.8296 51.1608 93.5414 50.7765C93.1571 50.3922 93.1571 49.8158 93.5414 49.5276C93.9257 49.1433 94.5021 49.1433 94.7903 49.5276C94.0217 48.759 92.7728 48.759 92.1003 49.5276C91.4278 50.2962 91.3318 51.449 92.1003 52.2175C92.8689 52.9861 94.1178 52.9861 94.7903 52.2175C95.4628 51.449 95.5589 50.2962 94.7903 49.5276C95.0785 49.9119 95.0785 50.3922 94.7903 50.7765ZM85.4715 72.2962L88.7379 81.5189H91.1396L87.6811 71.8158C87.1047 72.0079 86.3361 72.104 85.4715 72.2962ZM88.7379 60.7678C89.0261 60.3835 89.2182 59.9992 89.5064 59.5189C89.4104 59.4228 89.3143 59.5189 89.2182 59.6149C84.3187 64.8027 79.6113 65.4752 75.9606 65.4752H70.3885C70.1964 65.4752 70.1003 65.2831 70.1964 65.0909C74.5195 59.1346 79.227 54.4272 82.7816 51.449L73.4628 59.2306C72.6942 59.8071 71.8296 60.1913 70.6768 60.1913H58.9562C58.668 60.1913 58.7641 60.4796 58.7641 60.6717C59.5326 63.1695 61.8383 65.4752 65.6811 65.4752L62.8951 68.2612C62.799 68.3573 62.799 68.6455 63.0872 68.6455H73.5589C81.0523 68.6455 85.7597 65.3791 88.7379 60.7678Z" fill="#898989"></path> <path d="M193.262 81.5196H201.812V55.1004H193.262V64.8035H185.192V55.1004H176.642V81.5196H185.192V71.5284H193.262V81.5196ZM92.1003 52.2183C91.3318 51.4498 91.3318 50.2969 92.1003 49.5284C92.8689 48.7598 94.1178 48.7598 94.7903 49.5284C95.4628 50.2969 95.5589 51.4498 94.7903 52.2183C94.0217 52.9869 92.7728 52.9869 92.1003 52.2183ZM94.5021 64.7074C97.7685 59.4236 98.9213 51.0655 98.9213 51.0655L97.6724 50.4891C97.4803 50.393 97.4803 50.2969 97.5763 50.1048L98.537 48.952C97.9606 47.7991 95.8471 45.8777 92.7728 45.8777C90.9475 45.8777 89.3143 46.3581 87.8733 47.3188C87.8733 47.3188 85.7597 48.7598 82.7816 51.3537C79.227 54.4279 74.5196 59.0393 70.1964 64.9956C70.1003 65.1878 70.1964 65.3799 70.3886 65.3799H75.9606C79.6113 65.3799 84.3187 64.7074 89.2183 59.5196C89.3143 59.4236 89.4104 59.4236 89.5065 59.4236C89.6025 59.5196 89.6025 59.6157 89.6025 59.7118C88.834 61.6332 86.9126 65.3799 83.358 67.6856H88.0654C91.2357 67.6856 93.5414 66.2445 94.5021 64.7074ZM89.6986 71.048L93.3493 81.4236H103.725C101.611 74.9869 99.3056 69.0306 97.096 63.5546C95.3667 67.3013 93.7335 69.1266 89.6986 71.048ZM58.1877 81.5196H68.6593L72.2139 70.4716H62.0305C60.7816 73.738 59.5327 77.3886 58.1877 81.5196ZM72.31 57.7904L77.5938 53.4672C78.7466 50.393 79.8995 47.3188 81.0523 44.7249C81.6287 46.0699 82.2052 47.5109 82.7816 48.952C85.6637 46.5502 87.489 45.1092 89.8907 44.4367C88.4497 41.2664 87.3929 38.9607 86.9126 38H75.1921C74.2314 40.1135 70.4846 47.8952 66.0654 58.3668H70.2925C71.1571 58.3668 71.8296 58.2707 72.31 57.7904ZM137.061 78.5415L137.637 81.4236H144.555V55.1004H136.004V73.4498C135.236 74.3144 133.795 75.2751 132.45 75.2751C130.048 75.2751 128.799 73.9301 128.799 71.4323V55.1004H120.249V73.4498C119.48 74.3144 117.847 75.2751 116.406 75.2751C114.196 75.2751 112.948 73.9301 112.948 71.4323V55.1004H104.397V72.5852C104.397 78.9258 107.183 82.0961 112.948 82.0961C117.079 82.0961 119.576 80.559 121.498 78.5415C122.843 80.9432 125.244 82.0961 128.799 82.0961C132.93 82 135.236 80.559 137.061 78.5415ZM164.249 73.3537C163.48 74.2183 162.231 75.179 160.118 75.179C157.812 75.179 156.563 73.0655 156.563 68.9345C156.563 63.8428 157.908 61.345 160.694 61.345C162.327 61.345 163.096 61.441 164.249 61.7293V73.3537ZM157.14 82H157.428C161.271 82 163.865 80.655 165.306 78.5415L165.786 81.4236H172.799V56.1572C170.013 55.2926 166.747 54.524 160.79 54.524C152.24 54.524 147.629 59.7118 147.629 69.3188C147.629 78.1572 150.895 82 157.14 82Z" fill="white"></path> </g> <defs> <clipPath id="clip0"> <rect width="143.624" height="44" fill="white" transform="translate(58.1877 38)"></rect> </clipPath> </defs> </svg> 