<?xml version="1.0" encoding="UTF-8"?> <svg xmlns="http://www.w3.org/2000/svg" width="260" height="120" viewBox="0 0 260 120" fill="none"> <g clip-path="url(#clip0)"> <path fill-rule="evenodd" clip-rule="evenodd" d="M105.095 15.1083C107.449 15.0593 109.808 15.102 112.163 15.0875C116.017 15.0875 119.87 15.0875 123.723 15.0875C126.372 15.0541 129.025 15.1281 131.658 15.426C135.563 15.8198 139.416 17.0157 142.764 19.0826C145.792 20.9567 148.319 23.6767 149.808 26.9238C151.763 31.1741 152.086 36.1058 150.936 40.6228C150.154 43.698 148.559 46.5701 146.298 48.8047C143.518 51.5799 139.886 53.3696 136.121 54.3832C134.12 54.9541 132.043 55.1812 129.976 55.3635C126.753 55.6427 123.516 55.5729 120.286 55.5812C115.737 55.5812 111.189 55.5812 106.642 55.5812C105.97 55.5688 105.28 55.6396 104.626 55.4479C104.013 55.2729 103.515 54.7593 103.349 54.1447C103.196 53.5696 103.241 52.9696 103.234 52.381C103.235 40.7811 103.235 29.1823 103.234 17.5824C103.243 17.0366 103.269 16.4521 103.584 15.9844C103.902 15.4604 104.498 15.1645 105.095 15.1083Z" fill="white"></path> <path d="M128.724 97.0689C128.316 97.1053 127.831 97.1486 127.762 97.6137C127.71 98.17 128.477 98.1179 128.769 97.8533C128.987 97.7017 128.989 97.4402 128.991 97.1973C128.991 97.143 128.992 97.0896 128.995 97.0386C128.913 97.052 128.821 97.0602 128.724 97.0689Z" fill="white"></path> <path d="M113.908 95.8426C113.643 95.6301 113.249 95.6124 112.959 95.7853C112.77 95.8963 112.71 96.1094 112.654 96.3111C112.641 96.3556 112.629 96.3995 112.615 96.4417C113.115 96.45 113.614 96.4541 114.114 96.4395C114.101 96.3855 114.092 96.3281 114.083 96.2702C114.058 96.1116 114.033 95.9495 113.908 95.8426Z" fill="white"></path> <path d="M108.651 96.4465C108.51 96.4498 108.369 96.453 108.228 96.449C108.229 96.7608 108.229 97.073 108.229 97.3854C108.229 97.5417 108.228 97.698 108.228 97.8543C108.378 97.8498 108.528 97.8526 108.678 97.8554C108.946 97.8604 109.213 97.8653 109.477 97.8293C110.124 97.7481 110.169 96.6459 109.549 96.4959C109.254 96.4327 108.952 96.4396 108.651 96.4465Z" fill="white"></path> <path d="M108.629 94.4148C108.495 94.4177 108.362 94.4206 108.23 94.4175C108.23 94.5528 108.229 94.6882 108.229 94.8238C108.229 95.0952 108.229 95.3671 108.23 95.6395C108.363 95.6343 108.498 95.6378 108.633 95.6413C108.901 95.6483 109.17 95.6554 109.432 95.5937C109.925 95.452 109.962 94.5748 109.442 94.4477C109.174 94.403 108.901 94.4089 108.629 94.4148Z" fill="white"></path> <path d="M125.162 96.1604C124.976 95.454 123.675 95.7218 123.803 96.4479C123.802 96.9261 123.804 97.4042 123.807 97.8834C124.222 98.0084 124.826 98.1345 125.091 97.6855C125.303 97.2136 125.271 96.6552 125.162 96.1604Z" fill="white"></path> <path d="M122.32 88.5941C122.058 88.3723 121.648 88.3702 121.362 88.5452C121.185 88.6602 121.128 88.8607 121.073 89.0543C121.059 89.1043 121.044 89.1539 121.028 89.2015C121.528 89.2098 122.028 89.2098 122.529 89.2046C122.515 89.1494 122.506 89.0912 122.497 89.0327C122.473 88.8703 122.448 88.7052 122.32 88.5941Z" fill="white"></path> <path d="M113.852 89.8128C113.59 89.8364 113.326 89.8602 113.085 89.9672C112.805 90.0766 112.725 90.4703 112.905 90.7006C113.206 90.8787 113.628 90.7975 113.873 90.5579C114.033 90.3974 114.036 90.1732 114.039 89.9583C114.039 89.9025 114.04 89.8474 114.043 89.7942C113.98 89.8012 113.916 89.807 113.852 89.8128Z" fill="white"></path> <path d="M108.588 87.1768C108.475 87.1774 108.363 87.178 108.255 87.1732C108.258 88.2813 108.257 89.3904 108.256 90.4986L108.256 90.587C108.382 90.5808 108.512 90.5847 108.643 90.5886C108.996 90.5991 109.356 90.6098 109.664 90.4245C110.138 90.1051 110.175 89.4761 110.205 88.9585L110.206 88.9463C110.198 88.4337 110.186 87.8358 109.791 87.4555C109.456 87.1719 109.012 87.1744 108.588 87.1768Z" fill="white"></path> <path d="M123.858 81.3093C123.59 81.1343 123.214 81.1353 122.943 81.3009C122.763 81.4069 122.71 81.6082 122.659 81.8012C122.645 81.8568 122.63 81.9117 122.613 81.9635C123.113 81.9708 123.614 81.9718 124.114 81.9593C124.104 81.9123 124.096 81.8628 124.088 81.8125C124.058 81.6221 124.026 81.4213 123.858 81.3093Z" fill="white"></path> <path d="M114.2 81.3978C113.957 81.1499 113.536 81.1582 113.239 81.2936C112.973 81.4499 112.909 81.7906 112.88 82.0739C112.851 82.4479 112.857 82.8479 113.016 83.1959C113.224 83.5782 113.768 83.6074 114.112 83.4053C114.395 83.1969 114.425 82.8125 114.431 82.4917C114.431 82.4731 114.431 82.4544 114.432 82.4357C114.435 82.0783 114.439 81.6858 114.2 81.3978Z" fill="white"></path> <path d="M108.553 79.9352C108.452 79.9368 108.352 79.9385 108.256 79.9363C108.257 81.0728 108.258 82.2104 108.254 83.3469C108.373 83.3421 108.494 83.3448 108.617 83.3476C108.993 83.3562 109.377 83.3649 109.698 83.1552C110.108 82.8615 110.162 82.3125 110.197 81.852C110.215 81.3239 110.214 80.7311 109.874 80.2956C109.542 79.9191 109.028 79.9275 108.553 79.9352Z" fill="white"></path> <path fill-rule="evenodd" clip-rule="evenodd" d="M116.303 60.325C112.605 60.3238 108.907 60.3225 105.208 60.3296C104.581 60.3629 103.921 60.6327 103.584 61.188C103.277 61.663 103.23 62.2443 103.228 62.7964C103.229 75.886 103.229 88.9766 103.228 102.066C103.223 102.74 103.221 103.473 103.623 104.05C104.001 104.628 104.724 104.854 105.386 104.86C109.623 104.861 113.861 104.861 118.099 104.86C120.218 104.86 122.337 104.86 124.456 104.86C125.077 104.857 125.699 104.859 126.321 104.861C128.167 104.866 130.013 104.871 131.856 104.756C134.811 104.577 137.765 104.184 140.614 103.365C144.408 102.286 148.065 100.463 150.897 97.6783C153.555 95.1312 155.379 91.7716 156.22 88.1984C157.475 82.9136 156.962 77.1403 154.429 72.3014C152.905 69.3896 150.617 66.8999 147.9 65.0591C145.052 63.1204 141.782 61.8578 138.422 61.1411C135.882 60.6515 133.294 60.4577 130.713 60.3546C129.126 60.3136 127.538 60.3192 125.951 60.3247C125.035 60.3279 124.119 60.3311 123.204 60.3254C120.903 60.3266 118.603 60.3258 116.303 60.325ZM130.773 96.45C130.829 95.8739 131.165 95.2947 131.723 95.0822C132.464 94.8155 133.355 94.8978 133.969 95.4187C133.796 95.6343 133.625 95.8521 133.458 96.0729C133.149 95.8281 132.755 95.626 132.352 95.751C131.95 95.8323 131.771 96.2782 131.772 96.6501L131.771 96.6716C131.762 97.0784 131.75 97.5818 132.122 97.8418C132.556 98.1304 133.131 97.9533 133.487 97.6189C133.588 97.7734 133.692 97.9265 133.796 98.08C133.848 98.1574 133.901 98.2349 133.953 98.3127C133.369 98.7752 132.568 98.8638 131.861 98.6888C131.525 98.594 131.209 98.3908 131.032 98.0846C130.746 97.5949 130.724 97.0011 130.773 96.45ZM127.254 96.0721C127.091 95.9671 126.929 95.8621 126.769 95.7542C127.057 95.3437 127.48 95.0103 127.996 94.9687C128.673 94.8739 129.609 94.9562 129.886 95.701C130 96.1049 129.988 96.522 129.976 96.9397C129.965 97.3095 129.955 97.6798 130.031 98.0418C130.116 98.0335 130.284 98.0168 130.369 98.0096C130.368 98.2325 130.366 98.4564 130.364 98.6814L130.364 98.6877C129.905 98.7669 129.316 98.8284 129.06 98.3408C128.609 98.744 127.957 98.8586 127.382 98.6971C126.572 98.4575 126.552 97.1334 127.274 96.7719C127.727 96.5363 128.242 96.4889 128.745 96.4425C128.832 96.4345 128.918 96.4266 129.003 96.4177C129 96.3862 128.997 96.3533 128.994 96.3198C128.978 96.1163 128.96 95.889 128.752 95.7969C128.288 95.5635 127.742 95.799 127.481 96.2198C127.405 96.1704 127.329 96.1212 127.254 96.0721ZM118.569 95.9346C118.569 95.6286 118.569 95.3226 118.569 95.0166C118.854 95.0145 119.141 95.0145 119.427 95.0166C119.439 95.0925 119.45 95.1684 119.461 95.2452C119.467 95.2854 119.473 95.3258 119.479 95.3666C119.938 95.0041 120.551 94.8385 121.123 94.9916C121.569 95.0624 121.92 95.477 121.899 95.9323C121.905 96.5327 121.904 97.1336 121.902 97.7346C121.902 98.0523 121.901 98.37 121.901 98.6877C121.571 98.6866 121.242 98.6866 120.913 98.6877C120.908 98.347 120.91 98.0061 120.912 97.6653C120.915 97.187 120.918 96.7088 120.903 96.2313C120.869 95.4906 119.61 95.7031 119.588 96.3469C119.581 96.8585 119.583 97.3705 119.584 97.883C119.585 98.1511 119.586 98.4193 119.586 98.6877C119.472 98.6877 119.359 98.6876 119.246 98.6875C119.02 98.6872 118.794 98.687 118.568 98.6877C118.569 97.7699 118.569 96.852 118.569 95.9346ZM115.861 97.5005C115.873 96.6704 115.885 95.8401 115.742 95.0197C115.977 95.0148 116.212 95.0144 116.448 95.0139C116.512 95.0138 116.576 95.0137 116.641 95.0135C116.67 95.1666 116.698 95.3218 116.726 95.4791C117.023 95.0427 117.559 94.9687 118.048 95.0103C118.048 95.3135 118.048 95.6177 118.049 95.9219C117.979 95.9248 117.907 95.9245 117.836 95.9243C117.624 95.9236 117.41 95.9229 117.213 96.0031C116.933 96.1344 116.848 96.4688 116.851 96.7532C116.847 97.1211 116.848 97.4891 116.849 97.8572C116.85 98.1343 116.851 98.4114 116.85 98.6888C116.52 98.6867 116.189 98.6857 115.86 98.6867C115.849 98.2921 115.855 97.8963 115.861 97.5005ZM111.61 96.8595C111.592 96.3261 111.718 95.749 112.112 95.3645C112.539 94.9718 113.162 94.8937 113.718 94.9562C114.15 94.9958 114.599 95.1791 114.837 95.5593C115.136 96.0302 115.12 96.6167 115.076 97.1522C114.926 97.152 114.776 97.1517 114.626 97.1515C113.953 97.1503 113.279 97.1492 112.606 97.1543C112.62 97.1992 112.632 97.2462 112.645 97.2939C112.7 97.5022 112.759 97.7225 112.956 97.8387C113.467 98.1408 114.166 97.9627 114.51 97.4866L114.567 97.5362C114.753 97.6989 114.94 97.862 115.124 98.0293C114.855 98.3721 114.485 98.6471 114.047 98.7169C113.446 98.8148 112.769 98.8054 112.245 98.4585C111.736 98.1054 111.596 97.4418 111.61 96.8595ZM108.167 98.6877C107.849 98.6868 107.531 98.6859 107.214 98.6877C107.213 97.8371 107.214 96.9864 107.214 96.1355C107.214 95.2847 107.214 94.4338 107.214 93.5832C107.517 93.584 107.819 93.5833 108.122 93.5826C108.566 93.5815 109.01 93.5805 109.454 93.5842C109.893 93.5957 110.391 93.7082 110.653 94.0957C111.023 94.677 110.932 95.5531 110.336 95.9552C111.112 96.274 111.195 97.297 110.873 97.9699C110.622 98.4992 109.992 98.669 109.455 98.6846C109.025 98.69 108.596 98.6888 108.167 98.6877ZM134.43 95.5373C134.429 94.8421 134.429 94.147 134.429 93.4519L134.43 93.4518C134.65 93.4525 134.869 93.4523 135.089 93.452C135.199 93.4519 135.309 93.4518 135.419 93.4518C135.418 93.6628 135.419 93.8738 135.419 94.0849C135.42 94.4896 135.421 94.8945 135.411 95.2998C135.943 94.929 136.669 94.8029 137.263 95.103C137.607 95.2675 137.766 95.6582 137.762 96.0239C137.765 96.5363 137.764 97.049 137.763 97.5619C137.763 97.9375 137.762 98.3131 137.763 98.6887C137.433 98.6865 137.103 98.6865 136.773 98.6877C136.771 98.3703 136.772 98.0532 136.774 97.7362C136.775 97.2696 136.777 96.8033 136.768 96.3375C136.771 96.1125 136.687 95.8353 136.433 95.7916C136.01 95.6739 135.391 95.9354 135.42 96.4385C135.416 96.9379 135.417 97.4378 135.419 97.9375C135.42 98.1872 135.42 98.437 135.42 98.6866C135.089 98.6877 134.759 98.6877 134.428 98.6877C134.43 97.6373 134.43 96.5872 134.43 95.5373ZM122.788 95.3083C122.792 94.6891 122.796 94.07 122.789 93.4519H123.803C123.803 93.6415 123.803 93.8311 123.803 94.0207C123.804 94.4448 123.805 94.869 123.802 95.2937C124.3 94.9468 124.963 94.8291 125.53 95.0749C125.919 95.2437 126.127 95.6573 126.204 96.0552C126.303 96.6074 126.299 97.1865 126.144 97.7293C126.015 98.2012 125.619 98.5867 125.139 98.6877C124.365 98.8627 123.524 98.7596 122.82 98.3929C122.773 97.3677 122.781 96.3379 122.788 95.3083ZM120.023 89.6787C120.001 89.1088 120.121 88.4744 120.569 88.0817C121.038 87.6869 121.696 87.6431 122.277 87.7296C122.7 87.7879 123.111 88.0244 123.313 88.4098C123.55 88.8713 123.531 89.4088 123.494 89.912C123.267 89.912 123.039 89.9114 122.812 89.9108C122.215 89.9091 121.618 89.9074 121.021 89.9172C121.034 89.9573 121.045 89.9992 121.057 90.0418C121.12 90.2693 121.189 90.5174 121.421 90.6235C121.941 90.8829 122.593 90.6861 122.939 90.235C123.101 90.3911 123.269 90.5421 123.437 90.6934C123.471 90.7239 123.505 90.7544 123.539 90.785C123.29 91.0881 122.978 91.3611 122.582 91.4424C121.962 91.583 121.26 91.5726 120.701 91.2403C120.179 90.9121 120.022 90.2558 120.023 89.6787ZM116.869 87.9409C116.88 88.002 116.891 88.0629 116.898 88.1036C117.417 87.715 118.12 87.566 118.734 87.8087C119.109 87.9389 119.326 88.3411 119.322 88.7255C119.327 89.2569 119.326 89.7886 119.324 90.3205C119.324 90.6958 119.323 91.0712 119.324 91.4465H118.335C118.329 91.1173 118.332 90.788 118.335 90.4587C118.339 89.9534 118.343 89.4482 118.314 88.9442C118.228 88.2275 116.937 88.488 117.005 89.1589C117.004 89.7183 117.005 90.2788 117.006 90.8393C117.007 91.0417 117.007 91.2442 117.007 91.4465H115.988C115.993 90.2225 115.992 88.9994 115.989 87.7764C116.132 87.7754 116.274 87.7751 116.417 87.7748C116.557 87.7746 116.698 87.7743 116.839 87.7733C116.846 87.815 116.857 87.8781 116.869 87.9409ZM111.968 88.6174C111.917 88.5854 111.866 88.5534 111.815 88.5213C112.308 87.6504 113.476 87.5316 114.338 87.841C114.707 87.9827 114.961 88.3453 114.997 88.7369C115.036 89.1041 115.032 89.4734 115.028 89.8428C115.025 90.1485 115.021 90.4543 115.043 90.759C115.158 90.7642 115.276 90.7704 115.394 90.7767C115.392 90.9996 115.389 91.2225 115.387 91.4476C114.932 91.5309 114.365 91.5611 114.098 91.1017C113.731 91.4069 113.253 91.5674 112.775 91.5121C112.401 91.4976 111.98 91.31 111.874 90.9204C111.761 90.4704 111.774 89.8839 112.202 89.5995C112.654 89.3021 113.201 89.2522 113.733 89.2037C113.844 89.1936 113.954 89.1836 114.062 89.1714C114.06 89.154 114.058 89.1363 114.056 89.1183C114.027 88.8837 113.992 88.5996 113.732 88.5202C113.275 88.3244 112.782 88.5828 112.52 88.9672C112.338 88.8488 112.153 88.7331 111.968 88.6174ZM107.214 87.6199C107.214 87.1943 107.214 86.7687 107.214 86.343C107.514 86.3557 107.817 86.3491 108.119 86.3425C108.707 86.3297 109.296 86.3168 109.871 86.4461C110.533 86.5868 111.042 87.1514 111.169 87.8077C111.339 88.6817 111.347 89.6401 110.971 90.4631C110.687 91.0788 110.004 91.3747 109.36 91.4226C108.901 91.456 108.442 91.4517 107.982 91.4473C107.726 91.4449 107.47 91.4424 107.215 91.4465C107.213 90.171 107.213 88.8955 107.214 87.6199ZM121.618 82.7063C121.566 82.0729 121.617 81.3353 122.116 80.878C122.532 80.4665 123.16 80.4207 123.713 80.4644C124.19 80.4988 124.687 80.7363 124.901 81.1842C125.095 81.5432 125.088 81.9494 125.081 82.348C125.079 82.4481 125.077 82.5476 125.079 82.6458C124.809 82.6465 124.539 82.6456 124.27 82.6448C123.712 82.643 123.155 82.6412 122.597 82.6531C122.61 82.6936 122.622 82.7359 122.634 82.7789C122.703 83.023 122.779 83.2921 123.034 83.3949C123.555 83.6157 124.177 83.4376 124.52 82.9917C124.717 83.1761 124.919 83.3553 125.122 83.5345C124.514 84.3793 123.275 84.4501 122.388 84.0564C121.891 83.8022 121.648 83.2407 121.618 82.7063ZM116.223 81.8303C116.056 81.3906 115.888 80.9509 115.721 80.5114C116.076 80.5082 116.432 80.5082 116.787 80.5114C116.855 80.7144 116.922 80.9176 116.989 81.1207C117.204 81.7722 117.419 82.4232 117.651 83.0689C117.716 82.8608 117.781 82.6529 117.847 82.445C118.049 81.8003 118.251 81.156 118.447 80.5093H118.451C118.791 80.5093 119.13 80.5093 119.47 80.5103C119.031 81.7416 118.592 82.9719 118.152 84.2022C117.982 84.6543 117.786 85.1544 117.35 85.4138C117.031 85.6016 116.661 85.5953 116.3 85.589C116.205 85.5874 116.11 85.5858 116.017 85.5877V84.8096C116.1 84.8008 116.19 84.8041 116.282 84.8075C116.518 84.8161 116.763 84.825 116.919 84.6283C117.039 84.4731 117.186 84.2626 117.076 84.0678C116.79 83.3225 116.507 82.5764 116.223 81.8303ZM115.721 80.5114C115.721 80.5113 115.721 80.5114 115.721 80.5114ZM111.865 81.9552C111.903 81.3666 112.234 80.753 112.827 80.5707C113.614 80.3467 114.701 80.3623 115.192 81.1322C115.514 81.7031 115.512 82.401 115.405 83.0313C115.315 83.5865 114.899 84.0834 114.337 84.1991C113.674 84.3397 112.884 84.3376 112.341 83.8751C111.837 83.3823 111.813 82.6125 111.865 81.9552ZM107.214 84.2074V79.0768C107.434 79.0794 107.655 79.0778 107.876 79.0761C108.437 79.0719 108.998 79.0676 109.556 79.1341C110.178 79.206 110.801 79.5623 111.036 80.1654C111.341 80.9343 111.326 81.7968 111.185 82.6C111.067 83.2532 110.629 83.8761 109.966 84.0574C109.339 84.2302 108.69 84.2188 108.043 84.2074C107.766 84.2026 107.489 84.1977 107.214 84.2074ZM119.896 82.6876C119.897 81.441 119.897 80.1943 119.895 78.9476C120.224 78.9466 120.553 78.9466 120.882 78.9466H120.887C120.888 80.6999 120.888 82.4532 120.887 84.2064C120.722 84.2064 120.556 84.2067 120.391 84.2069C120.226 84.2072 120.061 84.2074 119.896 84.2074C119.896 83.7008 119.896 83.1942 119.896 82.6876Z" fill="white"></path> </g> <defs> <clipPath id="clip0"> <rect width="53.7736" height="90" fill="white" transform="translate(103.113 15)"></rect> </clipPath> </defs> </svg> 