<?xml version="1.0" encoding="UTF-8"?> <svg xmlns="http://www.w3.org/2000/svg" width="260" height="120" viewBox="0 0 260 120" fill="none"> <g clip-path="url(#clip0)"> <path d="M35.0841 74.2953V45.2129H47.2814C51.3961 45.257 55.3639 45.4737 58.1193 49.1733C58.8908 50.2167 59.9562 52.1345 59.9562 55.3528C59.9562 59.4014 58.1928 61.8372 56.9804 62.9724C54.8128 65.1437 51.9104 65.3641 49.0448 65.4964H43.7177V74.2953H35.0841ZM47.0242 58.7511C48.457 58.7144 50.0735 58.6372 51.1022 57.5902C51.3961 57.2816 51.8737 56.6607 51.8737 55.6504C51.837 54.6474 51.3961 54.0228 51.1389 53.7142C49.8898 52.3586 47.8692 52.5129 46.2159 52.5129H43.8279V58.7511H47.0242Z" fill="white"></path> <path d="M73.9537 74.3278L73.623 72.3917C72.5209 73.2551 70.5002 74.9451 66.8631 74.9451C66.2385 74.9451 63.5199 74.8606 61.6462 73.2992C60.8379 72.5974 59.4419 70.9075 59.4419 68.1116C59.4419 67.4504 59.6256 66.3261 60.691 64.9264C62.1973 62.9094 63.9975 62.362 66.312 61.822L70.2063 61.337C70.6472 61.2121 71.1248 61.0909 71.6391 61.01C71.7494 60.966 72.3739 60.8815 72.7046 60.6353C73.0352 60.3892 73.2924 59.4413 73.2924 58.9857C73.2924 58.1628 72.227 57.4905 70.5737 57.4905C69.1042 57.4905 68.4061 58.0232 68.0387 58.5596C67.855 58.8461 67.7816 59.0923 67.7448 59.7536L60.3603 59.7095C60.691 58.0232 61.0216 56.6638 62.234 55.2641C63.7403 53.5741 66.1283 52.505 70.7942 52.505C71.6759 52.505 75.2763 52.134 77.9215 53.9048C78.9869 54.6065 79.6849 55.4331 80.1625 56.5426C80.9708 58.273 80.7504 60.3671 80.7504 62.182V67.9867C80.7136 71.6092 80.9708 72.2668 81.6321 74.3278H73.9537ZM73.1822 64.9888C72.1167 65.3599 71.0146 65.6905 69.9124 66.0616L69.1042 66.3078C68.7 66.3886 67.4509 66.6605 67.4509 68.2255C67.4509 68.9272 67.8551 70.2021 69.4716 70.2021C69.692 70.2021 70.6839 70.1066 71.1983 69.9412C72.6678 69.5298 72.778 68.5745 73.1822 68.1594V64.9888Z" fill="white"></path> <path d="M96.1807 74.3504V64.0488C96.1807 65.2759 96.5113 60.0259 95.4092 59.5079C95.0418 59.3279 94.3437 58.9715 93.4987 58.9899C92.5435 59.0083 91.4781 59.4712 91.1107 60.3198C90.7066 61.3559 90.5596 62.3074 90.5964 64.464V74.3577H82.6608V53.0345H90.1555L90.2657 55.5107C91.2944 54.2506 92.5068 52.623 96.9154 52.623C100.148 52.623 102.61 53.7509 103.602 57.0244C103.822 57.851 103.933 58.6519 104.006 60.3492V74.3504H96.1807Z" fill="white"></path> <path d="M140.267 59.1957C140.12 58.3838 139.532 57.0392 137.512 57.0392C136.63 57.0392 135.969 57.278 135.638 57.4837C135.454 57.5609 135.161 58.0936 135.161 58.7034C135.161 58.8651 135.307 59.35 135.785 59.6366C136.079 59.8019 136.777 60.004 137.585 60.0958L140.708 60.9078C142.912 61.4662 144.823 61.8593 146.366 63.4023C147.137 64.1334 147.542 65.0813 147.652 65.467C148.019 66.5692 147.835 67.4326 147.835 67.7999C147.835 70.3129 146.623 71.8265 145.925 72.4768C144.419 73.8582 142.031 74.9016 137.659 74.9016C134.022 74.9016 131.744 73.9463 130.384 73.1565C127.482 71.4738 127.335 68.3767 127.151 67.4032L134.72 67.3775C134.793 68.1086 134.903 68.656 135.491 69.1813C135.969 69.6295 136.483 69.9381 137.842 69.9381C139.459 69.9381 140.377 69.1593 140.414 68.4502C140.451 68.3657 140.451 67.7963 140.23 67.5134C139.863 66.9035 138.871 66.6463 137.438 66.279C137.438 66.279 133.03 65.3311 132.699 65.1731C131.707 64.7176 127.703 63.8175 127.703 59.35C127.703 56.8371 128.988 55.4961 129.723 54.8054C131.083 53.6261 133.324 52.5313 137.328 52.5313C138.21 52.5313 141.957 52.4909 144.749 54.4013C145.521 54.9267 146.145 55.577 146.623 56.3485C147.284 57.4433 147.395 58.7512 147.468 59.1957H140.267Z" fill="white"></path> <path d="M167.564 71.9097C166.278 73.2139 163.633 74.9259 159.261 74.9259C157.865 74.9259 154.008 74.8451 151.179 71.5019C150.003 70.0764 148.57 67.7104 148.57 63.4671C148.57 62.7323 148.57 61.0607 149.268 59.2274C150.848 54.58 155.146 52.4602 159.665 52.5006C160.878 52.5006 164.662 52.6218 167.38 55.3956C168.74 56.7806 170.467 59.3083 170.43 63.7941C170.43 64.8926 170.356 69.0551 167.564 71.9097ZM161.686 59.0364C160.988 58.3824 159.922 58.2502 159.555 58.2502C158.637 58.2502 157.975 58.7829 157.755 58.9445C156.8 59.7197 156.102 60.8991 156.102 63.5479C156.102 65.6273 156.579 69.1065 159.518 69.1065C160.363 69.1065 161.172 68.8861 161.686 68.2762C162.384 67.501 163.119 66.1013 163.082 63.6545C163.082 63.5332 163.119 60.5023 161.686 59.0364Z" fill="white"></path> <path d="M194.494 52.9644H202.282V74.3868H194.494V52.9644ZM194.494 45.0215H202.282V50.5948H194.494V45.0215Z" fill="white"></path> <path d="M217.272 61.1566C216.684 58.5849 215.435 58.4563 214.039 58.4563C212.9 58.4563 212.532 58.842 212.165 59.1617C211.173 60.0067 210.842 61.0537 210.842 63.6658C210.842 63.8642 210.732 67.3544 212.643 68.6807C213.194 69.0444 213.451 69.0664 214.112 69.0664C214.333 69.0664 214.994 69.0885 215.582 68.8093C216.353 68.4492 217.161 67.7879 217.308 65.9767L224.84 65.9143C224.766 66.3992 224.473 68.1076 223.738 69.5146C221.864 73.251 218.043 74.8087 214.186 74.8087C212.606 74.8087 211.504 74.5699 210.842 74.4487C207.793 73.6845 205.111 71.5536 203.935 68.5007C203.605 67.5785 203.164 66.1714 203.164 63.8385C203.164 62.876 203.201 60.3851 204.56 57.8942C204.744 57.4937 205.368 56.4871 206.25 55.5649C209.116 52.7507 213.377 52.6699 214.406 52.6699C218.374 52.6699 220.835 54.1578 222.048 55.2821C222.415 55.6458 223.15 56.6157 223.738 57.9419C224.215 59.0257 224.473 59.992 224.656 61.1566H217.272Z" fill="white"></path> <path d="M126.417 68.1008V62.3071C126.417 60.4959 126.417 58.0601 125.645 56.3334C125.131 55.2202 124.763 54.603 123.698 53.905C121.053 52.1342 117.159 52.4685 116.277 52.4685C111.611 52.4685 109.223 53.6992 107.717 55.3892C106.504 56.789 106.247 58.1593 105.916 59.8493H113.301C113.338 59.188 113.448 58.9419 113.595 58.6516C113.999 58.1189 114.587 57.4466 116.056 57.4466C117.71 57.4466 118.775 58.2879 118.775 59.1109C118.775 59.5627 118.738 60.3012 118.408 60.5473C118.077 60.7972 117.232 61.0911 117.085 61.1315C116.718 61.1939 116.24 61.3042 115.652 61.4585L111.795 61.9471C109.48 62.4835 107.68 62.9537 106.174 64.9707C105.071 66.3704 105.071 67.6489 105.071 68.3066C105.071 71.1061 106.284 72.7226 107.092 73.4243C108.966 74.9857 111.648 74.9269 112.309 74.9269C115.946 74.9269 117.857 73.3288 118.995 72.4654L119.326 74.486H127.298C126.858 73.0863 126.38 72.3552 126.417 68.1008ZM116.681 70.0664C116.167 70.2317 115.285 70.1949 115.064 70.1839C113.742 70.0958 113.044 68.8907 113.044 68.189C113.044 66.6239 114.293 66.3704 114.697 66.2896L115.542 66.0545C116.607 65.6834 117.71 65.3711 118.775 65.0001L118.812 67.7224C118.481 68.336 118.114 69.6549 116.681 70.0664Z" fill="white"></path> <path d="M185.088 74.3094V63.9417C185.088 65.1687 185.456 59.9849 184.354 59.4632C183.986 59.2905 183.288 58.9305 182.48 58.9489C181.525 58.9672 180.423 59.4302 180.092 60.2788C179.651 61.3148 179.431 62.0202 179.467 64.1731L179.394 74.3498L171.642 74.3167V52.9935H179.1L179.21 55.4697C180.239 54.2096 181.451 52.582 185.897 52.582C189.093 52.582 191.554 53.9414 192.546 57.2148C192.767 58.0414 192.804 58.5815 192.914 60.2788V74.3167L185.088 74.3094Z" fill="white"></path> </g> <defs> <clipPath id="clip0"> <rect width="189.832" height="30" fill="white" transform="translate(35.0841 45)"></rect> </clipPath> </defs> </svg> 