<?xml version="1.0" encoding="UTF-8"?> <svg xmlns="http://www.w3.org/2000/svg" width="260" height="120" viewBox="0 0 260 120" fill="none"> <g clip-path="url(#clip0)"> <path d="M48.5765 42.1055V60.6349C48.5765 61.4819 47.9412 62.1172 47.0941 62.1172H44.8706C44.7647 62.1172 44.6588 62.2231 44.6588 62.329V77.8937C45.1882 77.8937 45.7176 77.9996 46.3529 77.9996C56.3059 77.9996 64.3529 69.9525 64.3529 59.9996C64.3529 50.7878 57.4706 43.1643 48.5765 42.1055ZM48.1529 69.8466C46.8823 69.8466 45.9294 68.7878 45.9294 67.6231C45.9294 66.3525 46.9882 65.3996 48.1529 65.3996C49.4235 65.3996 50.3765 66.4584 50.3765 67.6231C50.4823 68.7878 49.4235 69.8466 48.1529 69.8466ZM53.4471 69.8466C52.1765 69.8466 51.2235 68.7878 51.2235 67.6231C51.2235 66.3525 52.2823 65.3996 53.4471 65.3996C54.7176 65.3996 55.6706 66.4584 55.6706 67.6231C55.6706 68.7878 54.7176 69.8466 53.4471 69.8466ZM58.7412 69.8466C57.4706 69.8466 56.5176 68.7878 56.5176 67.6231C56.5176 66.3525 57.5765 65.3996 58.7412 65.3996C60.0118 65.3996 60.9647 66.4584 60.9647 67.6231C60.9647 68.7878 60.0118 69.8466 58.7412 69.8466Z" fill="white"></path> <path d="M46.3529 42C36.4 42 28.3529 50.0471 28.3529 60C28.3529 68.6824 34.3882 75.8824 42.5411 77.5765V61.3765C42.5411 60.6353 43.1764 60 43.9176 59.8941H44.6588H46.1411C46.247 59.8941 46.3529 59.7882 46.3529 59.6824V42ZM42.8588 56.8235C41.5882 56.8235 40.6353 55.7647 40.6353 54.6C40.6353 53.3294 41.6941 52.3765 42.8588 52.3765C44.1294 52.3765 45.0823 53.4353 45.0823 54.6C45.0823 55.7647 44.1294 56.8235 42.8588 56.8235Z" fill="white"></path> <path d="M226.565 51.8477V58.6241H217.459V51.8477H212.906V69.8477H217.459V62.5418H226.565V69.8477H231.012V51.8477H226.565Z" fill="white"></path> <path d="M151.6 53.8591C150.859 52.2709 149.376 51.4238 147.894 51.4238C146.412 51.4238 144.929 52.2709 144.188 53.8591L136.882 69.8474H141.647L143.235 66.0356H152.553L154.141 69.8474H158.906L151.6 53.8591ZM144.718 62.4356L147.471 55.8709C147.576 55.6591 147.682 55.6591 147.788 55.6591C147.894 55.6591 148.106 55.6591 148.106 55.8709L150.859 62.4356H144.718Z" fill="white"></path> <path d="M98.0234 48.5645C95.9058 48.5645 94.5293 49.7292 93.5764 51.9527L87.7529 65.5056L81.9293 51.9527C80.9764 49.7292 79.5999 48.5645 77.4823 48.5645C75.4705 48.5645 73.4587 49.9409 73.4587 53.0115V69.7409H77.9058V53.5409L83.8352 66.988C84.5764 68.8939 85.9529 70.0586 87.7529 70.0586C89.6587 70.0586 90.9293 68.8939 91.6705 66.988L97.5999 53.5409V69.8468H102.047V53.1174C102.047 50.0468 100.035 48.5645 98.0234 48.5645Z" fill="white"></path> <path d="M109.988 66.0344C109.776 66.0344 109.565 65.8226 109.565 65.6108V62.4344H120.788V58.7285H109.565V55.9755C109.565 55.7638 109.776 55.552 109.988 55.552H121.106V51.7402H107.765C106.176 51.7402 105.118 53.0108 105.118 54.3873V66.9873C105.118 68.3638 106.282 69.6344 107.765 69.6344H121.106V65.8226H109.988V66.0344Z" fill="white"></path> <path d="M128.623 69.8477V56.083C128.623 55.8712 128.835 55.6594 129.047 55.6594H140.165V51.8477H126.823C125.235 51.8477 124.176 53.1182 124.176 54.4947V69.7418H128.623V69.8477Z" fill="white"></path> <path d="M209.941 60.8465C209.941 54.5995 207.188 51.6348 200.412 51.6348H198.823C192.047 51.6348 189.294 54.5995 189.294 60.8465C189.294 66.9877 192.047 70.0583 198.823 70.0583H200.306C207.188 69.9524 209.941 66.9877 209.941 60.8465ZM200.306 66.2465H198.823C195.118 66.2465 193.635 64.5524 193.635 60.8465C193.635 57.2465 194.906 55.4465 198.823 55.4465H200.306C204.118 55.4465 205.494 57.2465 205.494 60.8465C205.494 64.5524 204.118 66.2465 200.306 66.2465Z" fill="white"></path> <path d="M176.8 48.9883H167.906C161.235 48.9883 158.588 52.3765 158.588 58.2C158.588 59.153 158.694 60 158.8 60.7412C159.541 64.8706 161.976 67.4118 168.223 67.4118H170.235V69.7412H174.682V67.4118H176.588C182.835 67.4118 185.271 64.8706 186.012 60.7412C186.118 60 186.223 59.153 186.223 58.2C186.118 52.3765 183.365 48.9883 176.8 48.9883ZM170.023 63.7059H168.012C164.941 63.7059 163.882 62.5412 163.247 60.7412C163.035 60.1059 163.035 59.153 163.035 58.2C163.035 54.3883 164.835 52.8 167.376 52.8H170.129V63.7059H170.023ZM181.459 60.8471C180.823 62.6471 179.659 63.8118 176.694 63.8118H174.682V52.8H177.435C179.976 52.8 181.776 54.3883 181.776 58.2C181.671 59.2589 181.671 60.1059 181.459 60.8471Z" fill="white"></path> </g> <defs> <clipPath id="clip0"> <rect width="203.294" height="36" fill="white" transform="translate(28.3529 42)"></rect> </clipPath> </defs> </svg> 