<?xml version="1.0" encoding="UTF-8"?> <svg xmlns="http://www.w3.org/2000/svg" width="35" height="35" viewBox="0 0 35 35" fill="none"> <path d="M11.1386 26.5156C11.2912 26.2951 12.1224 25.4979 12.3938 25.2434C12.767 24.9042 12.6991 24.9211 12.6822 24.2766C12.6652 22.0884 12.5804 8.26384 12.7331 7.39874L13.1571 9.29856C13.2589 9.72262 13.208 9.65477 13.4964 9.84136L26.3032 17.2371C26.9817 17.6442 27.728 18.0174 28.3896 18.4584C27.5754 18.4075 26.5915 17.6442 25.8621 18.0343L19.552 21.6813C18.8735 22.0884 11.7492 26.2951 11.1386 26.5156ZM9.56105 1.91981C7.45769 2.27603 6.79614 4.34547 6.79614 6.66935V29.0091C6.79614 32.5374 9.45928 34.2506 12.9197 32.3338C13.7339 31.8758 14.5311 31.4178 15.3114 30.9598L29.4582 22.7839C30.6626 22.1054 33.3257 20.6635 34.0042 19.8832C35.5139 18.1531 35.1746 15.9818 33.648 14.7945C32.3419 13.7767 21.4519 7.6023 19.569 6.53365C17.9915 5.61767 16.4988 4.70168 14.8873 3.80266C13.4794 3.02238 11.6475 1.5636 9.56105 1.91981Z" fill="white"></path> </svg> 