<?xml version="1.0" encoding="UTF-8"?> <svg xmlns="http://www.w3.org/2000/svg" width="104" height="104" viewBox="0 0 104 104" fill="none"> <path d="M44.4274 3.16019C48.8382 -0.427951 55.1618 -0.427952 59.5726 3.16019L59.9303 3.45117C62.583 5.60908 66.0303 6.53279 69.4066 5.99032L69.8618 5.91718C75.4758 5.01517 80.9522 8.17695 82.978 13.4898L83.1423 13.9206C84.3606 17.1158 86.8842 19.6394 90.0794 20.8577L90.5102 21.022C95.8231 23.0478 98.9848 28.5242 98.0828 34.1382L98.0097 34.5934C97.4672 37.9697 98.3909 41.417 100.549 44.0697L100.84 44.4274C104.428 48.8382 104.428 55.1618 100.84 59.5726L100.549 59.9303C98.3909 62.583 97.4672 66.0303 98.0097 69.4066L98.0828 69.8618C98.9848 75.4758 95.8231 80.9522 90.5102 82.978L90.0794 83.1423C86.8842 84.3606 84.3606 86.8842 83.1423 90.0794L82.978 90.5102C80.9522 95.8231 75.4758 98.9848 69.8618 98.0828L69.4066 98.0097C66.0303 97.4672 62.583 98.3909 59.9303 100.549L59.5726 100.84C55.1618 104.428 48.8382 104.428 44.4274 100.84L44.0697 100.549C41.417 98.3909 37.9697 97.4672 34.5934 98.0097L34.1382 98.0828C28.5242 98.9848 23.0478 95.8231 21.022 90.5102L20.8577 90.0794C19.6394 86.8842 17.1158 84.3606 13.9206 83.1423L13.4898 82.978C8.17695 80.9522 5.01517 75.4758 5.91718 69.8618L5.99032 69.4066C6.53279 66.0303 5.60908 62.583 3.45117 59.9303L3.16019 59.5726C-0.427951 55.1618 -0.427952 48.8382 3.16019 44.4274L3.45117 44.0697C5.60908 41.417 6.53279 37.9697 5.99032 34.5934L5.91718 34.1382C5.01517 28.5242 8.17695 23.0478 13.4898 21.022L13.9206 20.8577C17.1158 19.6394 19.6394 17.1158 20.8577 13.9206L21.022 13.4898C23.0478 8.17695 28.5242 5.01517 34.1382 5.91718L34.5934 5.99032C37.9697 6.53279 41.417 5.60908 44.0697 3.45117L44.4274 3.16019Z" fill="#FFD11A"></path> </svg> 