<?xml version="1.0" encoding="UTF-8"?> <svg xmlns="http://www.w3.org/2000/svg" width="19" height="15" viewBox="0 0 19 15" fill="none"> <path d="M18.3918 1.94906C17.7238 2.24454 17.0154 2.4386 16.29 2.52481C17.0545 2.06756 17.6268 1.34795 17.9 0.500058C17.1825 0.927058 16.3959 1.22631 15.576 1.38818C15.0253 0.798939 14.2953 0.408151 13.4996 0.276569C12.7039 0.144988 11.887 0.279987 11.1759 0.660579C10.4648 1.04117 9.89936 1.64603 9.56749 2.38113C9.23563 3.11622 9.15592 3.94037 9.34077 4.72543C7.88574 4.65251 6.46231 4.27439 5.16289 3.61564C3.86348 2.95689 2.71713 2.03222 1.79827 0.901683C1.47302 1.46033 1.3021 2.09538 1.30302 2.74181C1.30302 4.01056 1.94877 5.13143 2.93052 5.78768C2.34952 5.76939 1.78132 5.61249 1.27327 5.33006V5.37556C1.27344 6.22055 1.56584 7.03947 2.10088 7.69349C2.63593 8.3475 3.38069 8.79635 4.20889 8.96393C3.66955 9.11009 3.10403 9.13163 2.55514 9.02693C2.78865 9.75426 3.24377 10.3904 3.85678 10.8462C4.4698 11.302 5.21 11.5546 5.97377 11.5688C5.21469 12.165 4.34555 12.6057 3.41604 12.8657C2.48653 13.1257 1.51488 13.2 0.556641 13.0843C2.22938 14.1601 4.1766 14.7312 6.16539 14.7293C12.8968 14.7293 16.5779 9.15293 16.5779 4.31681C16.5779 4.15931 16.5735 4.00006 16.5665 3.84431C17.283 3.32645 17.9014 2.68495 18.3926 1.94993L18.3918 1.94906Z" fill="white"></path> </svg> 