<?xml version="1.0" encoding="UTF-8"?> <svg xmlns="http://www.w3.org/2000/svg" width="19" height="17" viewBox="0 0 19 17" fill="none"> <path d="M18.5456 3.28391C18.9788 4.9731 18.9788 8.49935 18.9788 8.49935C18.9788 8.49935 18.9788 12.0256 18.5456 13.7148C18.3049 14.6485 17.6006 15.3831 16.7086 15.6315C15.0886 16.0827 9.49968 16.0827 9.49968 16.0827C9.49968 16.0827 3.9136 16.0827 2.29077 15.6315C1.39499 15.3793 0.691633 14.6456 0.453706 13.7148C0.0205078 12.0256 0.0205078 8.49935 0.0205078 8.49935C0.0205078 8.49935 0.0205078 4.9731 0.453706 3.28391C0.694477 2.35021 1.39878 1.61558 2.29077 1.36722C3.9136 0.916015 9.49968 0.916016 9.49968 0.916016C9.49968 0.916016 15.0886 0.916015 16.7086 1.36722C17.6044 1.61937 18.3077 2.35306 18.5456 3.28391V3.28391ZM7.60384 11.8171L13.2913 8.49935L7.60384 5.18164V11.8171Z" fill="white"></path> </svg> 