<?xml version="1.0" encoding="UTF-8"?> <svg xmlns="http://www.w3.org/2000/svg" width="148" height="147" viewBox="0 0 148 147" fill="none"> <path d="M79.9538 0.646854L71.371 0.412479C71.0291 0.403144 70.8997 0.525658 70.8904 0.86753L70.567 12.7071C70.5577 13.049 70.6802 13.1784 71.0221 13.1877L71.8138 13.2093C72.1737 13.2192 72.3031 13.0967 72.3124 12.7548L72.6043 2.06676L78.65 2.23186L78.3581 12.9199C78.3488 13.2617 78.4713 13.3911 78.8132 13.4005L79.6049 13.4221C79.9648 13.4319 80.0942 13.3094 80.1035 12.9675L80.4268 1.12795C80.4361 0.786074 80.3136 0.656681 79.9538 0.646854Z" fill="white"></path> <path d="M96.9325 4.16251L92.3533 2.70361C92.0274 2.59979 91.8691 2.6816 91.7653 3.00746L88.1699 14.2926C88.0661 14.6184 88.1479 14.7767 88.4738 14.8806L89.2284 15.121C89.5714 15.2303 89.7297 15.1484 89.8335 14.8226L91.1012 10.8436L94.4627 11.9146C96.8981 12.6905 98.8664 11.7307 99.6368 9.31244C100.413 6.87705 99.3507 4.93294 96.9325 4.16251ZM94.8001 10.3219L91.593 9.30008L93.0792 4.63511L96.2864 5.65689C97.7613 6.1268 98.3745 7.28561 97.9046 8.76057C97.4347 10.2355 96.2751 10.7918 94.8001 10.3219Z" fill="white"></path> <path d="M107.799 13.4364L105.545 16.8659C103.983 19.2424 104.503 21.6953 107.225 23.4849C109.948 25.2745 112.406 24.7793 113.968 22.4027L116.222 18.9733C117.785 16.5968 117.265 14.1439 114.542 12.3543C111.82 10.5647 109.362 11.0599 107.799 13.4364ZM114.763 18.0142L112.509 21.4437C111.461 23.0381 109.89 23.2979 108.115 22.1312C106.34 20.9645 105.956 19.4193 107.004 17.8249L109.258 14.3955C110.306 12.8011 111.877 12.5413 113.652 13.708C115.427 14.8747 115.812 16.4199 114.763 18.0142Z" fill="white"></path> <path d="M129.617 31.0505C131.341 29.5497 131.402 27.5637 129.571 25.4591C127.645 23.246 125.837 22.8145 123.918 23.6256C123.591 23.7432 123.528 23.9175 123.659 24.2328L123.952 24.9803C124.109 25.2974 124.219 25.3688 124.559 25.2393C125.873 24.6924 126.943 24.9069 128.278 26.4412C129.412 27.7447 129.409 28.8927 128.35 29.8145C127.495 30.5589 126.443 30.6391 125.58 29.648L123.855 27.6656C123.619 27.3941 123.455 27.3699 123.183 27.6063L122.708 28.0199C122.436 28.2562 122.438 28.4222 122.674 28.6937L124.529 30.8254C125.427 31.8573 125.264 32.9304 124.286 33.7813C123.241 34.6912 122.033 34.6203 120.745 33.1403C119.315 31.4974 119.23 30.3305 119.953 29.1048C120.129 28.7852 120.088 28.6293 119.794 28.4558L119.094 28.0628C118.786 27.9011 118.619 27.9278 118.444 28.2474C117.375 30.0361 117.573 31.9636 119.523 34.2039C121.615 36.6071 123.686 36.7379 125.437 35.2135C126.483 34.3035 127.046 33.1688 126.51 31.7027C127.599 32.1865 128.667 31.8777 129.617 31.0505Z" fill="white"></path> <path d="M140.663 43.0092L138.603 38.6673C138.456 38.3583 138.288 38.2985 137.979 38.4451L127.279 43.5231C126.97 43.6697 126.91 43.8376 127.057 44.1466L127.397 44.8621C127.551 45.1873 127.719 45.2471 128.028 45.1005L131.8 43.3101L133.313 46.4974C134.409 48.8065 136.454 49.5893 138.747 48.5012C141.056 47.4053 141.751 45.3021 140.663 43.0092ZM134.707 45.6565L133.264 42.6155L137.687 40.5164L139.13 43.5574C139.794 44.9559 139.366 46.1951 137.967 46.8588C136.569 47.5224 135.371 47.055 134.707 45.6565Z" fill="white"></path> <path d="M135.227 68.9907L146.232 62.353C146.516 62.1948 146.562 62.0407 146.505 61.7036L146.383 60.994C146.325 60.6569 146.23 60.5272 145.892 60.4756L133.32 57.8851C133.001 57.8304 132.853 57.9288 132.914 58.2836L133.021 58.9045C133.118 59.4722 133.234 59.6167 133.575 59.686L136.655 60.2896L137.557 65.5408L134.854 67.1371C134.553 67.2983 134.491 67.4732 134.592 68.0587L134.711 68.7505C134.772 69.1053 134.943 69.1489 135.227 68.9907ZM143.237 62.2462L138.876 64.8212L138.139 60.528L143.13 61.5158C143.995 61.6596 144.793 61.5225 144.832 61.5342L144.85 61.6406C144.815 61.6467 144.022 61.8192 143.237 62.2462Z" fill="white"></path> <path d="M146.731 85.1107L146.815 84.305C146.85 83.9648 146.738 83.8265 146.397 83.7913L140.811 83.2134C140.751 82.9177 140.619 81.7459 140.775 80.2419C140.997 78.0934 142.083 77.3914 143.856 77.5748L147.007 77.9008C147.347 77.936 147.485 77.8236 147.52 77.4834L147.602 76.6956C147.639 76.3375 147.527 76.1992 147.186 76.1641L144.035 75.838C141.242 75.5491 139.517 76.6554 139.173 79.9857C139.013 81.5254 139.124 82.7312 139.164 83.043L134.616 82.5725C134.276 82.5373 134.138 82.6497 134.103 82.9899L134.019 83.7956C133.984 84.1357 134.096 84.274 134.437 84.3092L146.218 85.5281C146.558 85.5633 146.696 85.4509 146.731 85.1107Z" fill="white"></path> <path d="M140.644 105.17L140.941 104.436C141.076 104.102 141 103.955 140.683 103.827L136.027 101.944L138.334 96.2372L142.99 98.1196C143.307 98.2478 143.471 98.1782 143.606 97.8444L143.903 97.1102C144.031 96.7931 143.962 96.6291 143.645 96.5009L132.664 92.0614C132.347 91.9332 132.183 92.0028 132.055 92.3198L131.758 93.0541C131.623 93.3878 131.693 93.5519 132.01 93.6801L136.833 95.6299L134.525 101.337L129.702 99.3873C129.385 99.2591 129.228 99.312 129.093 99.6457L128.796 100.38C128.661 100.714 128.738 100.861 129.055 100.989L140.035 105.429C140.352 105.557 140.509 105.504 140.644 105.17Z" fill="white"></path> <path d="M131.534 112.626L128.306 110.093C126.068 108.337 123.581 108.65 121.569 111.213C119.558 113.776 119.846 116.267 122.083 118.023L125.312 120.556C127.549 122.312 130.037 121.999 132.048 119.436C134.059 116.873 133.772 114.382 131.534 112.626ZM126.39 119.183L123.161 116.649C121.66 115.471 121.533 113.884 122.844 112.213C124.155 110.542 125.727 110.288 127.228 111.466L130.457 114C131.958 115.178 132.085 116.765 130.774 118.436C129.463 120.107 127.891 120.361 126.39 119.183Z" fill="white"></path> <path d="M118.972 126.693L116.547 123.382C114.866 121.088 112.371 120.729 109.758 122.644C107.551 124.261 107.02 126.034 107.667 128.014C107.768 128.365 107.936 128.442 108.276 128.327L109.031 128.109C109.381 128.008 109.455 127.865 109.344 127.5C108.909 126.145 109.234 125.036 110.715 123.951C112.429 122.696 114.021 122.89 115.128 124.4L117.575 127.739C118.692 129.264 118.401 130.816 116.673 132.082C115.221 133.146 114.072 133.162 112.912 132.339C112.608 132.137 112.46 132.179 112.248 132.468L111.801 133.108C111.6 133.412 111.627 133.57 111.916 133.782C113.609 134.996 115.453 134.985 117.631 133.389C120.259 131.463 120.653 128.987 118.972 126.693Z" fill="white"></path> <path d="M97.0274 143.82L104.965 140.692C105.3 140.561 105.355 140.404 105.229 140.086L104.979 139.449C104.853 139.131 104.706 139.053 104.372 139.185L101.206 140.432L97.2869 130.485C97.1615 130.167 97.0148 130.089 96.6799 130.221L95.943 130.511C95.6081 130.643 95.5538 130.8 95.6792 131.118L99.5987 141.066L96.4335 142.313C96.1153 142.438 96.0443 142.602 96.1697 142.92L96.4204 143.556C96.5458 143.875 96.7092 143.946 97.0274 143.82Z" fill="white"></path> <path d="M85.3939 133.674L80.6215 134.241C78.1013 134.541 76.6911 136.249 76.9928 138.787C77.2923 141.307 79.0437 142.622 81.5819 142.32L85.0852 141.904L85.5781 146.05C85.6185 146.39 85.7585 146.5 86.1159 146.458L86.9024 146.364C87.242 146.324 87.3523 146.184 87.3119 145.844L85.9139 134.083C85.8736 133.744 85.7336 133.633 85.3939 133.674ZM84.894 140.295L81.5515 140.692C80.0143 140.875 78.9808 140.11 78.798 138.572C78.6153 137.035 79.4364 136.013 80.9736 135.831L84.3161 135.433L84.894 140.295Z" fill="white"></path> <path d="M46.7164 142.222L47.4844 142.479C47.7234 142.559 47.8714 142.514 48.0025 142.406L54.6368 137.34C55.8964 136.358 56.6204 135.727 57.5955 134.687L57.6467 134.704C56.9557 136.029 56.6187 136.752 56.0694 138.39L54.1185 144.21C54.0098 144.534 54.0892 144.693 54.4305 144.808L55.1814 145.06C55.5057 145.168 55.6652 145.089 55.7739 144.765L59.5385 133.535C59.6472 133.21 59.5678 133.051 59.2435 132.942L58.4755 132.685C58.2366 132.605 58.1171 132.622 57.9404 132.752L51.1693 137.943C49.9267 138.932 49.294 139.46 48.3644 140.477L48.2962 140.454C48.9928 139.169 49.2899 138.509 49.8334 136.888L51.8244 130.949C51.9331 130.624 51.8708 130.471 51.5295 130.356L50.7785 130.105C50.4372 129.99 50.2948 130.075 50.1861 130.4L46.4215 141.629C46.3128 141.954 46.3751 142.107 46.7164 142.222Z" fill="white"></path> <path d="M19.7346 123.479L24.8083 128.511C25.0511 128.752 25.2293 128.752 25.4701 128.509L28.0686 125.889C31.8079 122.119 33.3092 121.985 34.2518 122.16L34.6352 122.54C34.8908 122.793 35.0562 122.78 35.2971 122.537L37.7181 120.096C37.9589 119.853 37.971 119.688 37.7154 119.434L37.1786 118.902C36.923 118.648 36.7576 118.662 36.5168 118.905L34.907 120.528L28.5297 114.203L30.1395 112.58C30.3803 112.337 30.3796 112.159 30.124 111.905L29.5872 111.373C29.3316 111.119 29.1662 111.133 28.9254 111.375L26.5044 113.816C26.2635 114.059 26.2515 114.225 26.5071 114.478L27.2483 115.213L19.7191 122.805C19.4782 123.048 19.479 123.226 19.7346 123.479ZM25.0928 126.512L21.77 123.216L28.488 116.443L32.7949 120.715C31.6246 120.872 30.0109 121.553 26.88 124.71L25.0928 126.512Z" fill="white"></path> <path d="M15.8628 111.517L19.4637 109.548C21.9591 108.183 22.652 105.774 21.089 102.915C19.526 100.056 17.1234 99.339 14.628 100.703L11.0271 102.672C8.53176 104.037 7.83888 106.446 9.40185 109.305C10.9648 112.164 13.3675 112.881 15.8628 111.517ZM11.8647 104.204L15.4657 102.235C17.1398 101.32 18.6487 101.828 19.6676 103.692C20.6866 105.556 20.3002 107.1 18.6261 108.016L15.0252 109.985C13.3511 110.9 11.8422 110.391 10.8233 108.528C9.80431 106.664 10.1906 105.12 11.8647 104.204Z" fill="white"></path> <path d="M2.33382 89.6695L3.46937 94.5799C3.54642 94.9132 3.69757 95.0075 4.03078 94.9305L15.5702 92.2619C15.9035 92.1849 15.9978 92.0337 15.9208 91.7005L14.7487 86.6323C14.2296 84.3875 12.6802 83.12 10.4881 83.627C8.8571 84.0041 7.97115 84.9665 7.89081 86.2968L7.8382 86.309C7.11193 85.4054 6.10398 85.1212 4.75362 85.4334C2.6667 85.916 1.82689 87.4774 2.33382 89.6695ZM5.40064 87.1128C6.66331 86.8208 7.43528 87.3628 7.72728 88.6255L8.53027 92.0979L4.75977 92.9698L3.95678 89.4975C3.66479 88.2348 4.13796 87.4048 5.40064 87.1128ZM10.7304 85.4739C12.0457 85.1697 12.8784 85.7346 13.1825 87.0499L14.0545 90.8204L10.0735 91.741L9.2016 87.9705C8.89744 86.6552 9.43265 85.774 10.7304 85.4739Z" fill="white"></path> <path d="M0.820547 67.6349L0.547068 74.8658C0.534142 75.2075 0.65529 75.3382 0.997046 75.3511L12.8326 75.7988C13.1743 75.8117 13.305 75.6905 13.3179 75.3488L13.5996 67.9021C13.6132 67.5424 13.4914 67.4297 13.1496 67.4168L12.4661 67.3909C12.1243 67.378 11.9943 67.4811 11.9807 67.8409L11.7474 74.0105L7.70029 73.8574L7.89417 68.7311C7.90778 68.3713 7.80394 68.2593 7.4442 68.2457L6.77867 68.2206C6.41893 68.2069 6.28894 68.3101 6.27533 68.6698L6.08145 73.7962L2.21421 73.6499L2.43939 67.6962C2.453 67.3364 2.33117 67.2237 1.98941 67.2108L1.3059 67.185C0.964145 67.172 0.834153 67.2752 0.820547 67.6349Z" fill="white"></path> <path d="M4.15796 51.4642L2.72455 56.0514C2.62255 56.3779 2.70523 56.5357 3.03167 56.6377L14.3366 60.1702C14.663 60.2722 14.8209 60.1896 14.9229 59.8631L15.1591 59.1072C15.2665 58.7636 15.1838 58.6057 14.8574 58.5037L10.8714 57.2582L11.9237 53.8908C12.686 51.4511 11.7153 49.4882 9.29277 48.7313C6.8531 47.9689 4.91493 49.0417 4.15796 51.4642ZM10.3291 53.5622L9.32515 56.775L4.65199 55.3148L5.65591 52.102C6.11761 50.6244 7.273 50.0048 8.75054 50.4665C10.2281 50.9282 10.7908 52.0847 10.3291 53.5622Z" fill="white"></path> <path d="M15.135 29.9304L14.6884 30.6061C14.5494 30.8164 14.555 30.9711 14.6256 31.1256L17.8117 38.841C18.4366 40.3112 18.8595 41.1732 19.6132 42.3833L19.5834 42.4283C18.481 41.4193 17.8699 40.9075 16.4283 39.9548L11.3075 36.5706C11.0222 36.382 10.8476 36.4177 10.6491 36.718L10.2125 37.3787C10.0239 37.6641 10.0595 37.8387 10.3449 38.0272L20.226 44.5575C20.5113 44.746 20.6859 44.7104 20.8744 44.4251L21.321 43.7493C21.46 43.5391 21.4745 43.4192 21.3938 43.2148L18.1221 35.3351C17.4872 33.8799 17.1398 33.1324 16.3962 31.9722L16.4359 31.9121C17.4983 32.9163 18.0593 33.3733 19.4859 34.3162L24.7118 37.7698C24.9971 37.9584 25.1618 37.9378 25.3603 37.6374L25.7969 36.9767C25.9954 36.6764 25.9499 36.5168 25.6645 36.3282L15.7834 29.798C15.4981 29.6094 15.3335 29.63 15.135 29.9304Z" fill="white"></path> <path d="M28.667 16.1207L23.1971 20.8577C22.9385 21.0816 22.9258 21.2593 23.1497 21.5179L30.9033 30.4712C31.1272 30.7297 31.3049 30.7425 31.5635 30.5186L37.1967 25.6401C37.4688 25.4045 37.468 25.2385 37.2441 24.98L36.7963 24.4629C36.5724 24.2044 36.4083 24.1798 36.1362 24.4155L31.469 28.4573L28.8177 25.3958L32.6956 22.0374C32.9678 21.8018 32.9787 21.6494 32.743 21.3773L32.307 20.8738C32.0714 20.6017 31.9072 20.5772 31.6351 20.8128L27.7572 24.1712L25.2237 21.2457L29.7275 17.3453C29.9997 17.1096 29.9988 16.9437 29.7749 16.6852L29.3272 16.1681C29.1033 15.9096 28.9391 15.885 28.667 16.1207Z" fill="white"></path> <path d="M49.5207 7.02198L48.8845 7.23858C48.6346 7.32367 48.5824 7.46821 48.7279 7.67219L49.6827 9.80633L47.3591 9.60875C47.0854 9.54979 46.9951 9.65662 46.9893 9.93748L46.9782 10.5751C46.9951 10.8482 47.1097 10.9613 47.3978 10.9139L49.6881 10.6412L48.7761 12.8025C48.6335 13.0538 48.7026 13.1824 48.9612 13.2718L49.5925 13.4879C49.8434 13.5546 49.987 13.455 50.0232 13.1891L50.4944 10.9244L52.2497 12.431C52.4484 12.6423 52.5925 12.6186 52.7655 12.3822L53.1416 11.8485C53.2919 11.6198 53.2455 11.4835 53.0096 11.3864L50.9831 10.2002L52.9867 9.01097C53.2439 8.87271 53.2429 8.72092 53.0974 8.51693L52.7145 7.98812C52.5385 7.76915 52.4095 7.76239 52.1982 7.96108L50.4779 9.53559L49.932 7.26221C49.9001 7.01955 49.7706 6.93689 49.5207 7.02198Z" fill="white"></path> </svg> 