<?xml version="1.0" encoding="UTF-8"?> <svg xmlns="http://www.w3.org/2000/svg" width="19" height="12" viewBox="0 0 19 12" fill="none"> <path fill-rule="evenodd" clip-rule="evenodd" d="M18.4049 1.14517C18.5347 0.712523 18.4049 0.394531 17.7873 0.394531H15.7451C15.2259 0.394531 14.9866 0.669199 14.8568 0.972166C14.8568 0.972166 13.8182 3.5034 12.347 5.14762C11.871 5.62358 11.6547 5.77485 11.3951 5.77485C11.2653 5.77485 11.0774 5.62358 11.0774 5.19094V1.14517C11.0774 0.625877 10.9267 0.394531 10.4939 0.394531H7.28483C6.96042 0.394531 6.76525 0.635504 6.76525 0.863933C6.76525 1.35624 7.50072 1.46972 7.57657 2.85429V5.86164C7.57657 6.52096 7.45754 6.64057 7.19789 6.64057C6.50561 6.64057 4.82171 4.09781 3.82282 1.18849C3.62706 0.62296 3.43072 0.394531 2.90881 0.394531H0.866667C0.283198 0.394531 0.166504 0.669199 0.166504 0.972166C0.166504 1.51304 0.858936 4.19583 3.39017 7.74391C5.07786 10.1668 7.4552 11.4804 9.61871 11.4804C10.9169 11.4804 11.0774 11.1887 11.0774 10.6862V8.85484C11.0774 8.27137 11.2004 8.15497 11.6113 8.15497C11.9144 8.15497 12.4335 8.30638 13.6452 9.47463C15.0298 10.8591 15.2579 11.4804 16.0369 11.4804H18.079C18.6625 11.4804 18.9542 11.1887 18.7859 10.613C18.6018 10.0391 17.9407 9.20682 17.0635 8.21988C16.5875 7.65727 15.8735 7.05148 15.6573 6.74866C15.3544 6.35919 15.4409 6.18619 15.6573 5.8402C15.6573 5.8402 18.1452 2.33515 18.4049 1.14517Z" fill="white"></path> </svg> 