<?xml version="1.0" encoding="UTF-8"?> <svg xmlns="http://www.w3.org/2000/svg" width="150" height="150" viewBox="0 0 150 150" fill="none"> <path d="M82.2992 0.736259L81.49 0.702356C81.2382 0.691809 81.1085 0.776456 81.0126 0.916563L76.0474 7.62662C75.1104 8.92054 74.5902 9.72747 73.9424 10.9975L73.8885 10.9952C74.1841 9.5303 74.3071 8.74276 74.3794 7.01628L74.6364 0.883658C74.6507 0.541957 74.5301 0.410794 74.1704 0.395726L73.3791 0.362577C73.0374 0.348262 72.9062 0.468879 72.8919 0.810579L72.3962 12.6442C72.3818 12.9859 72.5025 13.1171 72.8442 13.1314L73.6535 13.1653C73.9052 13.1758 74.0154 13.1264 74.1488 12.9518L79.2107 6.08367C80.1297 4.789 80.5907 4.1057 81.201 2.87016L81.2729 2.87317C80.9609 4.30136 80.8588 5.01772 80.7872 6.72622L80.525 12.9847C80.5107 13.3264 80.6133 13.4568 80.973 13.4719L81.7643 13.5051C82.124 13.5201 82.2372 13.3988 82.2515 13.0571L82.7472 1.22344C82.7616 0.881737 82.6589 0.751327 82.2992 0.736259Z" fill="white"></path> <path d="M102.606 5.69367L101.856 5.44025C101.515 5.32505 101.372 5.40987 101.263 5.73389L99.6559 10.4918L93.8235 8.52201L95.4305 3.76406C95.5399 3.44004 95.4609 3.28035 95.1198 3.16515L94.3694 2.91172C94.0454 2.80229 93.8857 2.88135 93.7763 3.20537L89.9864 14.4266C89.8769 14.7507 89.956 14.9103 90.28 15.0198L91.0304 15.2732C91.3715 15.3884 91.5311 15.3094 91.6406 14.9853L93.3051 10.0568L99.1375 12.0267L97.4729 16.9552C97.3635 17.2792 97.4255 17.4331 97.7666 17.5483L98.5169 17.8017C98.858 17.9169 99.0006 17.8321 99.1101 17.5081L102.9 6.28682C103.009 5.9628 102.947 5.80887 102.606 5.69367Z" fill="white"></path> <path d="M121.15 16.4045L115.323 12.2673C115.045 12.0693 114.869 12.0991 114.671 12.3779L112.535 15.3866C109.46 19.7162 108.001 20.0927 107.042 20.0745L106.602 19.7619C106.309 19.5534 106.148 19.5936 105.95 19.8725L103.959 22.6757C103.761 22.9546 103.776 23.1198 104.07 23.3282L104.686 23.7659C104.98 23.9744 105.141 23.9342 105.339 23.6553L106.662 21.7914L113.986 26.9915L112.662 28.8555C112.464 29.1343 112.494 29.31 112.788 29.5184L113.404 29.9561C113.698 30.1645 113.859 30.1243 114.057 29.8455L116.047 27.0423C116.245 26.7634 116.23 26.5981 115.936 26.3897L115.085 25.7853L121.275 17.0675C121.473 16.7886 121.443 16.6129 121.15 16.4045ZM115.369 14.2864L119.185 16.9959L113.661 24.7744L108.716 21.2625C109.844 20.9162 111.325 19.9809 113.899 16.3558L115.369 14.2864Z" fill="white"></path> <path d="M136.406 32.5935L135.908 31.9544C135.753 31.7556 135.605 31.7115 135.436 31.7289L127.107 32.2831C125.514 32.4056 124.562 32.5309 123.175 32.8585L123.142 32.8159C124.45 32.0936 125.13 31.678 126.494 30.6164L131.336 26.8452C131.606 26.6351 131.628 26.4582 131.407 26.1742L130.92 25.5493C130.71 25.2795 130.534 25.2575 130.264 25.4676L120.919 32.7445C120.649 32.9547 120.627 33.1315 120.837 33.4013L121.335 34.0404C121.49 34.2392 121.599 34.2913 121.818 34.2801L130.33 33.6974C131.912 33.5607 132.731 33.4702 134.068 33.1363L134.112 33.1931C132.821 33.879 132.209 34.2646 130.86 35.3152L125.918 39.1638C125.648 39.3739 125.615 39.5366 125.836 39.8206L126.322 40.4455C126.544 40.7295 126.709 40.7373 126.979 40.5272L136.324 33.2503C136.594 33.0402 136.627 32.8775 136.406 32.5935Z" fill="white"></path> <path d="M144.385 47.8065L142.489 43.1367C142.36 42.8198 142.196 42.7504 141.879 42.8791L130.905 47.3345C130.588 47.4631 130.519 47.6273 130.648 47.9441L132.605 52.764C133.471 54.8988 135.201 55.906 137.286 55.0597C138.837 54.4299 139.56 53.3399 139.43 52.0136L139.48 51.9933C140.339 52.771 141.379 52.8926 142.664 52.3713C144.648 51.5655 145.231 49.8912 144.385 47.8065ZM141.76 50.8149C140.559 51.3025 139.711 50.889 139.224 49.6882L137.883 46.386L141.469 44.9302L142.809 48.2324C143.297 49.4332 142.961 50.3274 141.76 50.8149ZM136.755 53.2741C135.504 53.782 134.593 53.3555 134.085 52.1046L132.629 48.5189L136.415 46.9818L137.871 50.5676C138.379 51.8184 137.989 52.7731 136.755 53.2741Z" fill="white"></path> <path d="M149.562 71.1247L149.473 70.3196C149.446 70.0691 149.343 69.9537 149.19 69.88L141.807 65.9849C140.386 65.254 139.51 64.8616 138.157 64.413L138.151 64.3593C139.644 64.4303 140.441 64.4331 142.158 64.2439L148.259 63.5719C148.599 63.5345 148.711 63.3955 148.671 63.0376L148.585 62.2504C148.547 61.9104 148.408 61.799 148.068 61.8364L136.296 63.1331C135.956 63.1705 135.844 63.3096 135.882 63.6495L135.97 64.4547C135.998 64.7051 136.063 64.8066 136.256 64.9121L143.81 68.879C145.228 69.592 145.973 69.9445 147.287 70.3612L147.295 70.4328C145.836 70.34 145.112 70.3472 143.413 70.5344L137.186 71.2202C136.846 71.2576 136.733 71.3788 136.772 71.7366L136.859 72.5239C136.898 72.8817 137.035 72.9753 137.375 72.9378L149.148 71.6411C149.488 71.6037 149.602 71.4826 149.562 71.1247Z" fill="white"></path> <path d="M147.647 92.2233L148.94 85.1954C149.002 84.859 148.901 84.7123 148.565 84.6504L144.936 83.9824C139.714 83.0211 138.757 81.8567 138.369 80.98L138.467 80.4489C138.532 80.0949 138.427 79.9658 138.091 79.9039L134.71 79.2815C134.374 79.2196 134.23 79.303 134.165 79.6571L134.028 80.4006C133.963 80.7546 134.067 80.8837 134.404 80.9456L136.652 81.3594L135.026 90.193L132.778 89.7792C132.441 89.7173 132.294 89.8184 132.229 90.1724L132.092 90.9159C132.027 91.27 132.132 91.399 132.468 91.4609L135.849 92.0833C136.186 92.1452 136.329 92.0618 136.394 91.7078L136.583 90.681L147.099 92.6166C147.435 92.6785 147.582 92.5774 147.647 92.2233ZM147.129 86.0882L146.282 90.6909L136.899 88.9639L137.997 82.9981C138.788 83.8756 140.26 84.8239 144.633 85.6288L147.129 86.0882Z" fill="white"></path> <path d="M139.7 112.453L140.05 111.743C140.288 111.258 140.344 111.145 140.052 110.801L135.431 104.951L142.989 104.843C143.448 104.849 143.52 104.704 143.766 104.203L144.125 103.477C144.276 103.17 144.114 103.05 143.808 103.06L134.093 103.268L131.919 100.39C131.741 100.141 131.547 100.086 131.396 100.393L130.982 101.232C130.76 101.685 130.768 101.829 131.011 102.11L139.168 112.472C139.363 112.688 139.54 112.776 139.7 112.453Z" fill="white"></path> <path d="M118.255 120.188L130.348 124.54C130.65 124.66 130.799 124.599 131.024 124.342L131.498 123.8C131.723 123.542 131.763 123.386 131.59 123.092L125.67 111.703C125.511 111.42 125.341 111.368 125.104 111.639L124.69 112.113C124.311 112.547 124.272 112.728 124.433 113.036L125.908 115.807L122.402 119.819L119.458 118.729C119.143 118.597 118.969 118.66 118.578 119.107L118.116 119.636C117.879 119.907 117.954 120.068 118.255 120.188ZM128.542 122.149L123.793 120.389L126.659 117.109L129.041 121.605C129.475 122.367 130.085 122.9 130.1 122.937L130.029 123.018C130.002 122.994 129.368 122.489 128.542 122.149Z" fill="white"></path> <path d="M112.652 139.59L118.537 135.696C118.822 135.507 118.858 135.333 118.669 135.047L116.484 131.745C113.305 126.941 113.898 125.75 114.521 124.669C114.712 124.37 114.673 124.18 114.359 123.999L113.681 123.628C113.382 123.437 113.227 123.496 113.037 123.795C112.082 125.419 111.363 127.104 115.058 132.689L116.607 135.03L112.809 137.543L106.909 128.626C106.72 128.341 106.546 128.306 106.261 128.494L105.6 128.931C105.3 129.13 105.264 129.305 105.453 129.59L111.989 139.467C112.177 139.753 112.352 139.788 112.652 139.59Z" fill="white"></path> <path d="M98.1811 132.526L93.6138 134.022C91.2018 134.812 90.1555 136.764 90.9509 139.194C91.7407 141.606 93.7166 142.55 96.1457 141.754L99.4985 140.656L100.798 144.625C100.905 144.95 101.063 145.03 101.406 144.918L102.158 144.672C102.483 144.565 102.564 144.406 102.457 144.081L98.7715 132.826C98.6651 132.501 98.5062 132.42 98.1811 132.526ZM98.9944 139.117L95.7955 140.164C94.3244 140.646 93.1604 140.099 92.6786 138.628C92.1969 137.157 92.8008 135.993 94.2719 135.511L97.4707 134.464L98.9944 139.117Z" fill="white"></path> <path d="M73.9821 149.784L74.7734 149.752C75.1331 149.737 75.236 149.607 75.2221 149.265L75.0188 144.247L81.1698 143.998L81.3731 149.016C81.3869 149.358 81.5179 149.479 81.8776 149.464L82.669 149.432C83.0107 149.418 83.1315 149.287 83.1176 148.945L82.6382 137.111C82.6243 136.769 82.4933 136.649 82.1516 136.662L81.3602 136.695C81.0005 136.709 80.8797 136.84 80.8936 137.182L81.1042 142.38L74.9532 142.629L74.7426 137.431C74.7288 137.089 74.6158 136.968 74.2561 136.982L73.4647 137.014C73.105 137.029 73.0022 137.159 73.0161 137.501L73.4955 149.335C73.5094 149.677 73.6224 149.798 73.9821 149.784Z" fill="white"></path> <path d="M64.6237 136.349L59.988 135.081C57.5399 134.411 55.591 135.464 54.9166 137.93C54.247 140.378 55.3759 142.254 57.8413 142.929L61.2443 143.859L60.1425 147.887C60.0523 148.217 60.1406 148.372 60.4878 148.467L61.2517 148.676C61.5816 148.766 61.7364 148.678 61.8266 148.348L64.9516 136.924C65.0418 136.594 64.9536 136.439 64.6237 136.349ZM50.7496 145.318L53.8745 133.894C53.9648 133.564 53.8939 133.414 53.5466 133.319L52.7827 133.11C52.4354 133.015 52.298 133.108 52.2078 133.438L49.0828 144.862C48.9926 145.192 49.0635 145.342 49.4107 145.437L50.1747 145.646C50.5219 145.741 50.6593 145.648 50.7496 145.318ZM61.6718 142.297L58.425 141.409C56.9319 141 56.2618 139.903 56.6702 138.409C57.0786 136.916 58.2237 136.278 59.7168 136.686L62.9635 137.574L61.6718 142.297Z" fill="white"></path> <path d="M30.4563 138.596C30.2536 138.744 30.2598 138.833 30.3975 139.051L30.8596 139.629C31.0116 139.792 31.1067 139.811 31.2899 139.693C31.9469 139.175 32.6554 139.141 33.3958 139.62C34.1211 140.089 34.3797 140.75 34.1608 141.552C34.1439 141.777 34.215 141.866 34.4808 141.952L35.1119 142.103C35.3573 142.155 35.4515 142.109 35.5182 141.873C35.8403 140.581 35.3107 139.444 34.0414 138.623C32.757 137.791 31.5036 137.773 30.4563 138.596ZM30.8676 135.41L31.5476 135.85C31.7591 135.987 31.9138 135.98 32.0676 135.908L39.7524 132.649C41.2166 132.01 42.0746 131.579 43.2775 130.814L43.3228 130.843C42.3243 131.955 41.8183 132.571 40.8793 134.022L37.5438 139.175C37.358 139.462 37.3953 139.636 37.6975 139.831L38.3623 140.262C38.6494 140.448 38.8237 140.41 39.0095 140.123L45.4458 130.181C45.6316 129.894 45.5943 129.719 45.3072 129.534L44.6273 129.093C44.4157 128.956 44.2957 128.943 44.0921 129.026L36.2437 132.372C34.7946 133.021 34.0505 133.375 32.8974 134.13L32.8369 134.091C33.831 133.019 34.2827 132.453 35.2119 131.018L38.6159 125.759C38.8018 125.472 38.7796 125.308 38.4774 125.112L37.8125 124.682C37.5103 124.486 37.3512 124.533 37.1653 124.82L30.7291 134.763C30.5432 135.05 30.5654 135.215 30.8676 135.41Z" fill="white"></path> <path d="M9.49842 111.077L14.0209 118.375C14.2011 118.666 14.3746 118.706 14.6653 118.526L24.733 112.288C25.0237 112.107 25.0645 111.934 24.8843 111.643L24.4672 110.97C24.2775 110.664 24.1041 110.623 23.8134 110.803L14.7248 116.435L11.5392 111.294L20.6277 105.662C20.9184 105.482 20.9591 105.309 20.779 105.018L20.3618 104.345C20.1722 104.039 19.9987 103.998 19.708 104.178L9.64024 110.417C9.34953 110.597 9.30879 110.771 9.49842 111.077Z" fill="white"></path> <path d="M8.79709 99.2738L12.7426 98.1444C15.4768 97.3617 16.6823 95.1631 15.7857 92.0309C14.8892 88.8987 12.7029 87.671 9.96868 88.4536L6.02314 89.583C3.28895 90.3656 2.08345 92.5643 2.98003 95.6965C3.87661 98.8287 6.0629 100.056 8.79709 99.2738ZM6.50362 91.2616L10.4492 90.1322C12.2835 89.6071 13.6438 90.4347 14.2283 92.4767C14.8128 94.5187 14.0965 95.9407 12.2621 96.4658L8.3166 97.5952C6.48227 98.1203 5.12199 97.2927 4.53748 95.2507C3.95297 93.2087 4.66929 91.7866 6.50362 91.2616Z" fill="white"></path> <path d="M0.377452 71.0194L0.341326 78.1654C0.339597 78.5073 0.464959 78.634 0.806955 78.6357L4.49691 78.6544C9.80684 78.6812 10.9539 79.659 11.4899 80.4537L11.4872 80.9937C11.4853 81.3537 11.6108 81.4624 11.9528 81.4641L15.3908 81.4815C15.7327 81.4832 15.8593 81.3758 15.8611 81.0158L15.8649 80.2599C15.8668 79.8999 15.7413 79.7912 15.3993 79.7895L13.1133 79.7779L13.1587 70.7961L15.4447 70.8076C15.7867 70.8093 15.9133 70.684 15.9152 70.324L15.919 69.568C15.9208 69.208 15.7954 69.0994 15.4534 69.0976L12.0154 69.0803C11.6734 69.0785 11.5469 69.1859 11.545 69.5459L11.5398 70.5899L0.847903 70.5358C0.505908 70.5341 0.379272 70.6594 0.377452 71.0194ZM1.9674 76.9676L1.99106 72.2876L11.5309 72.3358L11.5003 78.4018C10.5679 77.677 8.95131 77.0029 4.50537 76.9804L1.9674 76.9676Z" fill="white"></path> <path d="M16.6478 52.5828L9.66261 54.9196L5.25365 49.3465C5.09276 49.1297 4.84794 49.132 4.75564 49.4426L4.47871 50.3743C4.33513 50.8574 4.35612 50.9764 4.61215 51.3153L8.04361 55.5651L2.84805 57.2507C2.44843 57.3949 2.3659 57.483 2.20693 58.0179L1.94026 58.9151C1.84795 59.2257 2.04661 59.3786 2.30494 59.2676L9.05422 57.0297L13.6171 62.78C13.8073 63.0243 14.047 63.0392 14.1496 62.6941L14.406 61.8314C14.565 61.2965 14.5612 61.1828 14.2707 60.8335L10.6233 56.4257L16.1117 54.6393C16.5459 54.5055 16.6163 54.3949 16.7701 53.8773L17.047 52.9456C17.1496 52.6005 16.9285 52.4597 16.6478 52.5828Z" fill="white"></path> <path d="M12.6476 42.2327L16.1313 44.4022C18.5455 45.9056 20.9849 45.3254 22.7071 42.5599C24.4294 39.7943 23.874 37.3491 21.4599 35.8457L17.9762 33.6763C15.562 32.1729 13.1226 32.753 11.4004 35.5186C9.6781 38.2842 10.2335 40.7293 12.6476 42.2327ZM17.0532 35.1584L20.5369 37.3278C22.1565 38.3365 22.4548 39.9005 21.332 41.7035C20.2092 43.5065 18.6739 43.9287 17.0543 42.9201L13.5706 40.7506C11.951 39.742 11.6527 38.1779 12.7755 36.375C13.8983 34.572 15.4336 34.1498 17.0532 35.1584Z" fill="white"></path> <path d="M27.9609 17.0389L22.6357 21.8042C22.3809 22.0322 22.371 22.2101 22.5991 22.465L25.0597 25.2148C28.6007 29.1717 28.6446 30.6784 28.4145 31.6089L28.0121 31.969C27.7438 32.2091 27.7473 32.375 27.9754 32.6299L30.268 35.1918C30.4961 35.4467 30.6606 35.4686 30.9289 35.2285L31.4922 34.7244C31.7605 34.4843 31.757 34.3184 31.5289 34.0635L30.0045 32.36L36.6978 26.3704L38.2222 28.0739C38.4503 28.3288 38.6282 28.3386 38.8965 28.0986L39.4598 27.5944C39.7281 27.3544 39.7246 27.1884 39.4965 26.9336L37.2039 24.3716C36.9758 24.1168 36.8113 24.0949 36.543 24.3349L35.7651 25.0311L28.6351 17.0635C28.4071 16.8087 28.2291 16.7988 27.9609 17.0389ZM24.6147 22.2072L28.1022 19.0863L34.464 26.1955L29.9436 30.2406C29.856 29.0629 29.272 27.4116 26.3072 24.0985L24.6147 22.2072Z" fill="white"></path> <path d="M50.9724 6.89442L50.3379 7.11582C50.0886 7.2028 50.0375 7.34773 50.1846 7.55061L51.1555 9.67746L48.8304 9.49747C48.5564 9.44058 48.4668 9.5481 48.4631 9.82899L48.4569 10.4667C48.4759 10.7396 48.5913 10.8519 48.879 10.8023L51.1672 10.5122L50.2715 12.6804C50.1309 12.9328 50.201 13.0609 50.4603 13.1483L51.0932 13.3596C51.3446 13.4244 51.4874 13.3237 51.5216 13.0576L51.9757 10.7893L53.7423 12.2827C53.9426 12.4924 54.0864 12.4676 54.2577 12.2299L54.6297 11.6934C54.7783 11.4636 54.7308 11.3276 54.4942 11.2323L52.4588 10.0615L54.4534 8.85712C54.7095 8.71692 54.7074 8.56514 54.5603 8.36226L54.1734 7.83636C53.9958 7.61873 53.8667 7.61295 53.657 7.81323L51.9486 9.40071L51.3856 7.13153C51.3518 6.88911 51.2216 6.80744 50.9724 6.89442Z" fill="white"></path> </svg> 