<?xml version="1.0" encoding="UTF-8"?> <svg xmlns="http://www.w3.org/2000/svg" width="146" height="146" viewBox="0 0 146 146" fill="none"> <path d="M71.263 5.15372L71.0646 9.25292C70.9271 12.0936 72.6217 13.9417 75.8759 14.0992C79.1301 14.2567 80.9953 12.5809 81.1328 9.7402L81.3312 5.641C81.4687 2.80033 79.774 0.952245 76.5198 0.794747C73.2657 0.63725 71.4005 2.31304 71.263 5.15372ZM79.5872 5.5566L79.3888 9.6558C79.2966 11.5616 78.0758 12.5837 75.9542 12.4811C73.8327 12.3784 72.7163 11.2431 72.8085 9.33732L73.0069 5.23812C73.0992 3.33235 74.32 2.31018 76.4415 2.41285C78.563 2.51553 79.6795 3.65083 79.5872 5.5566Z" fill="white"></path> <path d="M99.1197 5.70261L90.9905 3.11185C90.6475 3.00254 90.5064 3.08979 90.4025 3.41565L90.1948 4.06735C90.091 4.3932 90.1556 4.54605 90.4986 4.65536L93.74 5.68839L90.4933 15.8755C90.3895 16.2014 90.4541 16.3542 90.7971 16.4636L91.5517 16.704C91.8947 16.8134 92.0359 16.7261 92.1397 16.4003L95.3864 6.2131L98.6277 7.24612C98.9536 7.34997 99.1119 7.26818 99.2158 6.94233L99.4235 6.29062C99.5273 5.96477 99.4455 5.80646 99.1197 5.70261Z" fill="white"></path> <path d="M109.532 25.3432L109.981 20.3962C110.103 19.2354 109.946 18.3447 109.332 17.5676L115.744 15.2567C116.012 15.1716 116.062 14.926 115.789 14.7515L115.046 14.2765C114.576 13.976 114.44 13.9537 114.029 14.0964L108.045 16.3392L106.711 15.4861L109.425 11.2394C109.609 10.9512 109.571 10.7772 109.267 10.5833L108.6 10.1568C108.312 9.97263 108.138 10.0109 107.954 10.2991L101.575 20.279C101.391 20.5672 101.429 20.7412 101.718 20.9254L102.385 21.3519C102.688 21.5457 102.862 21.5074 103.046 21.2193L105.858 16.8208L107.041 17.5769C108.178 18.3039 108.409 18.8787 108.292 20.0643L107.825 24.3376C107.778 24.713 107.906 24.8803 108.391 25.1905L109.058 25.617C109.362 25.8109 109.508 25.6482 109.532 25.3432Z" fill="white"></path> <path d="M127.77 25.8787L124.58 22.2836C124.353 22.0278 124.175 22.0172 123.919 22.2441L115.06 30.1044C114.804 30.3314 114.793 30.5092 115.02 30.7651L115.546 31.3575C115.785 31.6268 115.962 31.6375 116.218 31.4105L119.342 28.6391L121.683 31.2782C123.38 33.1902 125.562 33.3716 127.461 31.6873C129.373 29.991 129.454 27.7772 127.77 25.8787ZM122.788 30.0819L120.554 27.564L124.216 24.3147L126.45 26.8326C127.478 27.9906 127.412 29.3 126.254 30.3273C125.096 31.3547 123.815 31.2398 122.788 30.0819Z" fill="white"></path> <path d="M125.263 43.7436L127.208 48.1382C128.235 50.459 130.283 51.3046 132.62 50.27C134.941 49.2426 135.682 47.1821 134.648 44.8449L133.22 41.6189L137.038 39.9285C137.351 39.79 137.415 39.6238 137.269 39.2946L136.949 38.5704C136.81 38.2577 136.644 38.1935 136.331 38.3319L125.501 43.1262C125.188 43.2646 125.124 43.4309 125.263 43.7436ZM140.98 48.833L130.15 53.6273C129.837 53.7657 129.765 53.9155 129.911 54.2447L130.232 54.9689C130.377 55.2981 130.536 55.3458 130.849 55.2074L141.679 50.4131C141.992 50.2747 142.064 50.1249 141.918 49.7957L141.597 49.0715C141.452 48.7423 141.293 48.6946 140.98 48.833ZM131.738 42.2746L133.101 45.3525C133.727 46.768 133.3 47.9809 131.884 48.6076C130.469 49.2342 129.25 48.7499 128.624 47.3344L127.261 44.2565L131.738 42.2746Z" fill="white"></path> <path d="M145.647 68.8849L144.591 60.4185C144.547 60.0612 144.408 59.9697 144.069 60.012L143.39 60.0966C143.051 60.139 142.939 60.2617 142.984 60.6189L143.405 63.9948L132.795 65.3179C132.456 65.3602 132.344 65.4829 132.388 65.8402L132.486 66.6261C132.531 66.9833 132.669 67.0749 133.009 67.0326L143.619 65.7095L144.04 69.0854C144.082 69.4247 144.222 69.5342 144.562 69.4919L145.241 69.4072C145.58 69.3649 145.689 69.2243 145.647 68.8849Z" fill="white"></path> <path d="M141.394 77.9328L137.328 77.376C134.51 76.9901 132.521 78.5163 132.079 81.7441C131.637 84.972 133.143 86.9769 135.96 87.3628L140.026 87.9196C142.844 88.3055 144.833 86.7793 145.276 83.5514C145.718 80.3235 144.212 78.3187 141.394 77.9328ZM140.263 86.1897L136.197 85.6329C134.307 85.374 133.396 84.0683 133.684 81.964C133.972 79.8596 135.201 78.8469 137.091 79.1058L141.157 79.6627C143.047 79.9215 143.959 81.2273 143.671 83.3316C143.382 85.436 142.154 86.4486 140.263 86.1897Z" fill="white"></path> <path d="M137.631 96.4368L133.872 94.7914C131.266 93.6512 128.929 94.593 127.63 97.5612C126.533 100.068 126.963 101.867 128.517 103.255C128.78 103.507 128.965 103.49 129.201 103.22L129.744 102.652C129.996 102.389 129.988 102.228 129.709 101.969C128.653 101.015 128.378 99.8927 129.114 98.2107C129.965 96.2648 131.44 95.6332 133.155 96.3837L136.948 98.0436C138.679 98.8013 139.207 100.29 138.348 102.252C137.626 103.901 136.641 104.491 135.224 104.362C134.86 104.341 134.753 104.451 134.715 104.808L134.65 105.585C134.628 105.949 134.731 106.072 135.088 106.11C137.161 106.311 138.75 105.375 139.832 102.901C141.138 99.9168 140.237 97.577 137.631 96.4368Z" fill="white"></path> <path d="M127.196 122.271L132.512 115.598C132.737 115.317 132.706 115.154 132.438 114.94L131.903 114.514C131.636 114.301 131.47 114.307 131.245 114.589L129.126 117.25L120.763 110.588C120.495 110.374 120.33 110.38 120.105 110.662L119.612 111.281C119.387 111.563 119.419 111.726 119.686 111.939L128.049 118.601L125.929 121.262C125.716 121.53 125.736 121.707 126.004 121.92L126.539 122.346C126.806 122.559 126.983 122.539 127.196 122.271Z" fill="white"></path> <path d="M112.047 119.277L108.186 122.139C106.147 123.651 105.771 125.834 107.294 127.887C108.805 129.926 110.978 130.197 113.031 128.675L115.865 126.574L118.352 129.929C118.556 130.203 118.732 130.23 119.022 130.015L119.658 129.543C119.933 129.34 119.959 129.164 119.755 128.889L112.701 119.374C112.498 119.1 112.321 119.073 112.047 119.277ZM114.901 125.273L112.197 127.277C110.953 128.199 109.676 128.048 108.754 126.804C107.832 125.561 108.037 124.266 109.281 123.344L111.985 121.34L114.901 125.273Z" fill="white"></path> <path d="M82.6303 145.823L83.4256 145.669C83.673 145.621 83.7797 145.509 83.8407 145.35L87.125 137.676C87.7384 136.201 88.0586 135.296 88.396 133.911L88.4491 133.901C88.4992 135.394 88.5611 136.189 88.8887 137.886L90.0527 143.912C90.1176 144.248 90.2652 144.348 90.6187 144.28L91.3963 144.13C91.7321 144.065 91.8319 143.917 91.7671 143.581L89.521 131.952C89.4561 131.616 89.3085 131.517 88.9727 131.581L88.1774 131.735C87.93 131.783 87.8342 131.856 87.7446 132.057L84.4027 139.907C83.8069 141.379 83.5159 142.15 83.207 143.493L83.1363 143.507C83.1106 142.045 83.0448 141.324 82.7205 139.645L81.5326 133.495C81.4678 133.159 81.3378 133.056 80.9844 133.124L80.2067 133.275C79.8533 133.343 79.7711 133.487 79.836 133.823L82.082 145.452C82.1469 145.788 82.2768 145.891 82.6303 145.823Z" fill="white"></path> <path d="M51.0592 143.044L51.8428 143.249C52.1736 143.336 52.3274 143.246 52.4141 142.915L53.8381 137.483C54.1396 137.469 55.3178 137.517 56.7804 137.9C58.8698 138.448 59.3977 139.629 58.9459 141.352L58.1426 144.417C58.0559 144.748 58.1458 144.901 58.4766 144.988L59.2428 145.189C59.591 145.28 59.7448 145.19 59.8315 144.86L60.6348 141.795C61.3468 139.079 60.5168 137.205 57.2782 136.356C55.7808 135.964 54.5723 135.889 54.258 135.881L55.4173 131.458C55.5041 131.127 55.4141 130.974 55.0833 130.887L54.2998 130.682C53.9689 130.595 53.8151 130.685 53.7284 131.016L50.7252 142.473C50.6385 142.803 50.7284 142.957 51.0592 143.044Z" fill="white"></path> <path d="M33.5322 134.793L39.7949 138.417C40.0909 138.589 40.2631 138.543 40.4344 138.247L46.3672 127.996C46.5385 127.7 46.4926 127.528 46.1966 127.356L39.7469 123.624C39.4353 123.443 39.2787 123.498 39.1074 123.794L38.7648 124.386C38.5935 124.682 38.6239 124.845 38.9354 125.026L44.279 128.118L42.2503 131.624L37.8103 129.054C37.4987 128.874 37.3512 128.913 37.1708 129.224L36.8372 129.801C36.6569 130.112 36.6873 130.276 36.9988 130.456L41.4388 133.026L39.5003 136.375L34.3437 133.391C34.0321 133.21 33.8755 133.265 33.7042 133.561L33.3616 134.153C33.1902 134.449 33.2206 134.612 33.5322 134.793Z" fill="white"></path> <path d="M27.8514 125.213L30.7752 122.333C32.8014 120.337 32.7949 117.817 30.5213 115.509C28.6013 113.56 26.7704 113.291 24.9051 114.219C24.573 114.369 24.5208 114.547 24.6838 114.867L25.0094 115.582C25.1596 115.914 25.3119 115.966 25.6568 115.803C26.9344 115.176 28.0787 115.338 29.3671 116.646C30.8576 118.159 30.8964 119.763 29.5628 121.077L26.6134 123.982C25.2669 125.308 23.689 125.245 22.1859 123.719C20.9227 122.437 20.7404 121.303 21.3864 120.035C21.5416 119.705 21.479 119.565 21.1621 119.397L20.4647 119.048C20.1349 118.893 19.9818 118.942 19.8139 119.259C18.858 121.11 19.137 122.933 21.0318 124.856C23.3181 127.177 25.8253 127.209 27.8514 125.213Z" fill="white"></path> <path d="M7.73841 105.932L11.9607 113.346C12.1388 113.659 12.3017 113.69 12.5989 113.521L13.1933 113.182C13.4905 113.013 13.5465 112.857 13.3684 112.544L11.6848 109.588L20.9758 104.297C21.273 104.128 21.329 103.971 21.1509 103.659L20.759 102.97C20.5808 102.657 20.4179 102.626 20.1207 102.795L10.8297 108.086L9.14614 105.13C8.97689 104.833 8.80505 104.786 8.50786 104.955L7.91349 105.294C7.6163 105.463 7.56917 105.635 7.73841 105.932Z" fill="white"></path> <path d="M1.58221 87.7279L1.77769 88.4954C1.86654 88.8442 2.0153 88.9178 2.34672 88.8334L7.21335 87.5939L8.73275 93.5594L3.86612 94.7989C3.5347 94.8833 3.4437 95.0365 3.53256 95.3854L3.72803 96.1529C3.81245 96.4843 3.96565 96.5753 4.29707 96.4909L15.7746 93.5676C16.1061 93.4832 16.1971 93.33 16.1126 92.9986L15.9172 92.2311C15.8283 91.8822 15.6751 91.7912 15.3437 91.8756L10.3026 93.1596L8.78323 87.194L13.8243 85.9101C14.1557 85.8257 14.2512 85.6899 14.1623 85.341L13.9668 84.5736C13.878 84.2247 13.7292 84.1511 13.3978 84.2355L1.92022 87.1588C1.5888 87.2433 1.49335 87.379 1.58221 87.7279Z" fill="white"></path> <path d="M4.52169 76.3003L8.62315 76.4446C11.4654 76.5445 13.2909 74.8256 13.4055 71.5697C13.52 68.3137 11.8197 66.4708 8.97748 66.3708L4.87601 66.2265C2.03377 66.1266 0.208221 67.8455 0.0936984 71.1014C-0.0208242 74.3574 1.67945 76.2003 4.52169 76.3003ZM4.81464 67.9715L8.9161 68.1157C10.8229 68.1828 11.8611 69.39 11.7865 71.5127C11.7118 73.6354 10.5913 74.7667 8.68453 74.6996L4.58306 74.5554C2.67624 74.4883 1.63804 73.2811 1.7127 71.1584C1.78736 69.0357 2.90782 67.9044 4.81464 67.9715Z" fill="white"></path> <path d="M6.40072 57.5116L10.3071 58.7697C13.0142 59.6416 15.245 58.4691 16.2383 55.3851C17.0771 52.7808 16.4673 51.0338 14.7813 49.81C14.4944 49.5852 14.3126 49.6212 14.105 49.9136L13.6217 50.5333C13.3969 50.8202 13.4213 50.9793 13.7254 51.2096C14.8724 52.0518 15.2592 53.1408 14.6963 54.8884C14.0452 56.9102 12.6414 57.6872 10.8595 57.1133L6.91884 55.8442C5.11985 55.2648 4.44501 53.8371 5.10167 51.7983C5.65349 50.0849 6.57436 49.3982 7.99732 49.3837C8.36148 49.3686 8.45702 49.2481 8.45907 48.8895L8.44545 48.1097C8.43036 47.7456 8.31536 47.6329 7.95672 47.6309C5.8734 47.6407 4.3874 48.7316 3.55967 51.3016C2.56089 54.4028 3.69365 56.6397 6.40072 57.5116Z" fill="white"></path> <path d="M14.1788 30.7567L9.56214 37.9317C9.36734 38.2345 9.41486 38.3935 9.70247 38.5785L10.2777 38.9487C10.5653 39.1337 10.7297 39.1111 10.9245 38.8083L12.7653 35.9474L21.7568 41.7328C22.0444 41.9179 22.2088 41.8952 22.4036 41.5925L22.8322 40.9264C23.027 40.6237 22.9795 40.4647 22.6919 40.2796L13.7003 34.4942L15.5412 31.6333C15.7262 31.3456 15.6884 31.1715 15.4008 30.9865L14.8256 30.6163C14.538 30.4313 14.3639 30.4691 14.1788 30.7567Z" fill="white"></path> <path d="M29.5539 32.209L33.1065 28.9723C34.9827 27.263 35.1365 25.0531 33.4151 23.1637C31.7058 21.2876 29.5166 21.2367 27.6272 22.958L25.0193 25.334L22.2069 22.2471C21.9765 21.9942 21.7985 21.986 21.5324 22.2284L20.947 22.7618C20.6941 22.9921 20.6859 23.1701 20.9162 23.4229L28.8927 32.1782C29.1231 32.431 29.3011 32.4393 29.5539 32.209ZM26.1103 26.5316L28.5985 24.2647C29.7428 23.2221 31.0287 23.2438 32.0712 24.3881C33.1137 25.5324 33.0401 26.8413 31.8958 27.8839L29.4076 30.1508L26.1103 26.5316Z" fill="white"></path> <path d="M50.1218 9.35027L49.4902 9.57984C49.2421 9.67003 49.1929 9.81561 49.3425 10.0166L50.3408 12.1307L48.0136 11.9807C47.7388 11.9274 47.6507 12.0361 47.6506 12.317L47.6526 12.9547C47.6751 13.2274 47.792 13.3381 48.079 13.2848L50.3633 12.9653L49.4957 15.1448C49.3583 15.399 49.43 15.5262 49.6904 15.6103L50.326 15.8133C50.5782 15.8749 50.7197 15.7724 50.7505 15.5058L51.1752 13.2319L52.961 14.7023C53.164 14.9094 53.3075 14.8828 53.4757 14.6429L53.8407 14.1016C53.9863 13.87 53.9372 13.7346 53.6993 13.6423L51.649 12.4979L53.6278 11.2679C53.8821 11.1244 53.878 10.9727 53.7284 10.7717L53.3348 10.2508C53.1543 10.0355 53.0252 10.0314 52.818 10.2344L51.1303 11.8438L50.538 9.58203C50.5011 9.34007 50.3699 9.26008 50.1218 9.35027Z" fill="white"></path> </svg> 